<mxfile host="65bd71144e">
    <diagram id="HIP3nbAZw_EuaXWnEj3U" name="Page-1">
        <mxGraphModel dx="1006" dy="325" grid="1" gridSize="10" guides="1" tooltips="1" connect="1" arrows="1" fold="1" page="1" pageScale="1" pageWidth="850" pageHeight="1100" math="0" shadow="0">
            <root>
                <mxCell id="0"/>
                <mxCell id="1" parent="0"/>
                <mxCell id="7" value="http://ics2o.mths.ca" style="swimlane;whiteSpace=wrap;html=1;" parent="1" vertex="1">
                    <mxGeometry x="45" y="40" width="760" height="480" as="geometry"/>
                </mxCell>
                <mxCell id="8" value="&lt;font style=&quot;font-size: 17px;&quot;&gt;Cookie Clicker, In Js&lt;/font&gt;" style="text;strokeColor=none;align=center;fillColor=none;html=1;verticalAlign=middle;whiteSpace=wrap;rounded=0;" parent="7" vertex="1">
                    <mxGeometry x="260" y="40" width="210" height="30" as="geometry"/>
                </mxCell>
                <mxCell id="9" value="" style="shape=image;imageAspect=0;aspect=fixed;verticalLabelPosition=bottom;verticalAlign=top;image=data:image/png,iVBORw0KGgoAAAANSUhEUgAAAgAAAAIACAMAAADDpiTIAAAAGXRFWHRTb2Z0d2FyZQBBZG9iZSBJbWFnZVJlYWR5ccllPAAAAGBQTFRFd0onk2Q2hlYusYlSmG5DUi0oUSgWpXhIzLaR2MmstZVlx6RsYzUZaU9MtqeMaTsi5t7MLxQPoHE8u6J2cEIgQx4VnoprhHBpnoFUXj04il09f182rIFEpH1egE4k////ICy/wgAAACB0Uk5T/////////////////////////////////////////wBcXBvtAAGRPklEQVR42uy9i3rcuK6tS1KU6Kgoq0umXCVK4nr/tzzjh+wkc529z3e65+zupGecviSOL2URBAaAgQH3P7/e/qvf3K9H8MsAfr39MoBfb78M4NfbLwP49fbLAH69/TKAX2+/DODX2y8D+PX2ywB+vf0ygF9vvwzgp38b8pD/Z5izfs1DLr/O/L/IAIacS8YAOP9NBjDnYch3/Wf4dfT/eANYdfzDMM9uzStGUHpZgXPZDb3LxWEU/xd3sIX5//6XvwzgJzl+HbQMQC6gz+b9c85BVpDtzc1lm2UQfVm3//0I+nneFCz0sUOehzL8MoCf0/m7edX177Ou+se/2QLCXPTOHtPoeQ8flMvm+m3Wp8yb/sUABqyEeDEMsplh/mUAP9XbfSDeD9dtl9t3peZaiAG5DzUHNwkFuLq560PkCbZtDsVtZZVVDH1f176fypqDfAA2oA9ffxnAT3P7h3Vwrur66raHWf9prpQBFzD3xckMXHGz03sqx88JCxzKTraHEEIvL1DkFea+n0vf5/mKGfqQXwbwU7wR5gn9nLygnn6TC+gvgP9kB6XklqfM2VpQ4EN03/Uh09wrbuiT+gHjUUTAj/D/Mrt5iMO6rr8M4Ed3/rr1OmIdtvx2CaXMg7NgUHWI4IDVQr3Th2Qd9Ty3QqCXUfTbUNZJn1J18PrgoQ0yGn1i0J/1qcBCyyZ+GcAPC/zXK6SHHGJd8+DkBYJrcgjOBfl5p3PW2cof6EB1q2engOCu2z4T+u2gixIEO3K5EkzFKYooIyAfwLcMYc2/DOCHPP3VOSv8ZFeD3L4Cuzx+qQJ3uemyF2E/HXWw8y9XQpDDxEkP8wUF87oRPqYtbLKPHOYS+h4DUCiogZJSWV1ew9r+ObHgn2IAuu64aQV8OfVSFOMVCGqrpTXHpa6YQC16t46+zYG7XMgOFN3lMnTDCRRuuyoHei8OolkKIQMQWpzNTCaFkiHEoE9WSMCprL8M4IfI+gD0wfz9XBqH6LwLHGPTdW+hVcsGgmK4brLustOpgxOV+QkYBlw+prBlYcNNeePah7kFSseZE9dRF6BgnesQkj4tD03fSZ8x/eSg4B9gAOuqk3IfUV2ITaFed7XJHCoxXi6g1eZr1YEHDEKuXSbQZlCgEKI8w0ORIVeyBEoCuulbrw/P/Tz3EcBYaCW0Yic+KE8sZaU0QMwJ+iW48csA/rbLv7ph0o2tAnNBx1ndygHrqAa5g9JKDRPAfqu1hVosRRSYq/oAj29XdOdD7WsIGcyc5mDeYpCP0EWPshMlAgALvddTNxjyVWQCPkZw4zD4u7CBQGj9ZQB/6d3npLPwGQagG1pC5WDmpkxOcEChnfLeozYspJagu6zTL3Lk+r3uMe4d5x9mYcFQAAbzPJkl6J0FT6GjLgYTZEuctD5WoSVbRBhinld7Zx4oO7lpmNefrdH4cxnAyuUT3KfWlyn3CabPVYdSJweSn2USMoMC8NPf6chC00FXDKTGj3fqAAslgGJ5AG0BR4VY3j03sN6gow3TprOvfEIVWGjCfi1jVyUOc6wkj07vk4+Q12mFzsNAfbE6nMgvA/iTYr1OxvI1ynZVz7zXQSrTJ/QL+je70BT6fJk95+ybJQZcWrvxLfgQvAIA6b4LuA+nO1x01ze6QDq8YZ0HOfzyEAZUAtAPMqYT14HhlI40wpFqNmf1RVxMMZJBWQGMc79ScV5/GcB/vsI36IwVszk6HWadlas1mcFV1gkhVKv16GR0Vjpsob7iFcp1gLXRDHAl5lplCfpQmkNkBMJ9152nQUwNiALBWigix7m4q2DQCm4kRMxI33dqV3vgJNFQ0Kl8OsHlo3toBYX8ywD+s1k+rr93jUyuEJwDgVn3eW5WxqtFQID8v+mNlJ/0XYiNcM7Zx+i2QEdI6UAg+QvRyT1Ylqcv4PXh+iS9w5rDCv2W/XP81JEc3v+sZI3kEjgOfaosSa6mnwcljPlqNlvT6DKpnyY5/AkM4A6JS6fhI/CLoKsj0LGQlsvnyyyE9fUeIjsYzgfd9Zmrat2c4JqCtmxGvyjzK5qTFypNLJQOVl14RYmtDut6X+9kAYVqsAyjUSxwgD6igRJKqyfWWQ5iwKHMOdZir2YOj5wn0ALMg6uw/JOAQffDX/2idFuwTt4/REJwERbgGHU+URGcIp+8dZPL5i+3Ngfd9WHgxivZl9evTY5fBmG3XK5DHkKZHkXCufko8DbJlJzOHzi/6lMsoAxNuYVMRV9eXwnziaEp4CuyzLIeQZD+HKLii74kBWeFlChASRcK0DHXn4RC8EMbAJ088+czPJ06BfB53kK2fp98sOsVhKn4FME1XXUyPOH9q9Wv4+ME9ecgG6AwpJOl7qPDFI7XKbfI+ZE6yKrySmRodADhf4AUAQxkGpX8QZ+aQvEhhwtyGnasgYoBzWLcDa8yW0JAUkiWMfwygH/n+gtjO3A+AECX6zHpTlOg04V0MTcyt9mdsWEfXhjfbrnnbLmTVRf0rLGSzBE0wAL6byzKB73X4ct29IWo++qoeqE9H2UVfFwDcMZwZYH6cnILCvdCArr9uJsQFe4r5kN5wGrKE60FoYiJ9GDuSVLnnwEN/sAGsBqtgwK+C5vbpnlTQk/mJ88ux6+jEgAbdAylTAb9K5me47oHPDXNPIH0iDm4B2g+lqb31ygkKEtousA+LPoA3fFZACCOyVc8g9yH0sUgVzPU08J/8Wdoo75BI7DIHuRtAt0mmUIwG8UK4BfQcqaEJDDRX93pXwbwx67/Sq2eezvTlHcbvZ22zUFeXxFbft1o38Tr1odzvuB+1bGS5HE3Kd8Hw390hGMAKNakD5C1cLt1+t5Zn0iX3A/3dQgnl72S7QWqBKHyG117Es1aTxmFDj46vpgMQpbjThJRHBVQMHtLAHTxYZUOVpQafnA06H7c66+kvr84GfLUYZKXlSMwg9D/lJWtcg0Ee/o5wZ3E6jYFX31rsPr13qo4oVStNAF7BemqPELpH7ecYBF70jqFB/210kK5gH07QXrgutqsalhK1KFb1oFXoebcJks6cotNiCBaOtLoGFATsqqh3jkbd0SQpVpqOP0ygN97//ti/VfKPnmjlu/mLSi0Wtse5y4sIKSvtDty48u00QkwfA5IA7xtc8xFAIGL2Aq4rfVc+HkYzvm9guplDE1H5PVJo2D7Sngv1aCcgn6g/O9dtFrANFk5kZuvlyMjqTnSUMzwTZRUZEN9cgTABoOFsNP0SzmLks1fBvB73iDiDaTbeq419P28TRt/gpczUYGhijf1OgGd3oRLd7A36PpxNHLqwvBVaWIhSSgc/pXCWbHOkS9u8gR8If0hWo0v1rVfVwiAHjaYFYYGfU1PKjhfwcjQADix0G+SLTV5mDDJGqkM68sOD938KkS5DpSdrqpQpoL9w8aBH88AVoY1lFdbFy5wjor/rsfBkmbpDssOrCDkhAuV8VfdUUWDNnlwfdV9VSyAFkhZUN5cN32AK1L1jryuQg8Q/PTlIo5laCR5pa/Rw/nUDXd8BeOT4vFlEnxJKx5bDlmVVigqbN66kAMfGqxURGfZ196Vnmqis76EUpMcmUoRNvxlAP+/Cj+DTjZbU3eeT/n1iRx87o3rQd6mXOtdJ6p7/Cg89Ky4X4npwRgfQPgqeBbkuzm9M1hsnnHcla+70gpoHK4OPtZi6YSQgv4Q7vfVWSB/PCyZ8JbzO5skpBqEU3G68VOdZr4NDaJmWWZQrJgtdpBvkBmu1lOWlepnIMek5Vh/GcD/92tZja4Bg3eG1Es3TqcDHJg2Eje9yS031+v4t8kx7qUkfpP/juR7VvEpkebdRuEwVJ9i9IIFwoXB+2gEL/MR1velUZTtjHX9k45qHZQaOLoK+sLRWITUmWRik36jw3cT76kGKeRahCO2VssGFU1OwQuOKvpnuEM5W6uBzDBkazrnHzMO/DAGAC/TCmjgPir8wH/lAHrc/ZZ5njoSP0en6+TA9NmNZcK76rKB/ECNSvz8g0KgDfURGuyeNg84KGWlwB+F7hRYin2VwYdwFnkMJ7Q/rCsEQr5KcElWpIxxo+3ULBE9I5hhU7SgDaHDbr7hc6wkpSjjqFCCF2erBcucZQhR34WGwfwxlbr+MoD/81vYGMmd6aRA7cMMMhBgmwJELV1JgT17slRcsvxwVVbYuF2UhanmzHLiMoXobPIbGl9IlcJApBgUylnrsAr368zjzBUOfpZ7kEHo/5F6kVJBK//OYZ6uanNrRi/R9X7PkEEzrSdwAXVg2Rc2JhcBxhzWbG1nIY05bDZ7ZlMFNJCgJoFXBA7X4ZcB/B9Cfxm2qZ/rtNnTKgRdxf4YNmNjCWRXuW6ZwCTQTcwd5Bgm/LJOUthtpZgTJ6qB6QzW0qMaQ+0m+pnbHdxSa14BiMX6uJ6EPVAT1Ncl5cOGiizAjZ5iELHCWVmgcMJXGUDBwIgk1kpUziGPJCDiUuPLFksWCqVECOeN2SNSDjiKeYJDOJcfjyvgfgzvL/fPSCYIYBasp5CmOzrPU6TbL2sI7rFdBRzQmO7kg/RaMXve2qYEPthNBA3EJoPYBosakSPWJfUcokD8veiwPW5byV2zem/29nmK8LHRVbrjGri4CheK8QUCAeUBLxMM1j9wsMNpM1kp2ToPzXpD/BgkLdXCP9UCmzkdjI2id9mLCkpE8g/UKPwBDKCsJQvpwcpy0PSmjZhb6avUmVbtFoz2azN+Zh5cYnmI+VGtMXw+BsEADko4MD7gZfJBgno6QG95GxFCxziv1gT0zeuW4949GA/ieIjJhysKFAC+nD1WQcKgiEDn6CoF6NCr3JA+oNiASZUn0Qd5ms/2tYK1GYbZWpYFm4qwCyCZEMsG8I080Qp/cf1lAP/zPwqLA3l9H9ywXUIuZXMTAbRSTMkP2QMNuYn7s+VpsoQsG/jOq9Fv5F3vazzxEDHycY60bfYLeYGj/xemJsinG1nxAF7ufuHeypfoHUoC5zrGNIEDhruDZ5DJ7Gku6NY3JYRgD2WFwL15ozecoA05hYCGSdVIOgnpsBhBhGnEih6BGSo1rXa1Cz5UC+hwzUZC/G83gAGIT8lXIGrj7Emqi41tlilODVqmHrR8tn1UJkOAu93cxHNdc8w9dKz72oD89XR9HrjvxiEKSb5e+Z/gXnHWydliwgQIGLQaaxjJEiN0I5/qXKGbVHl2OWpIIzSIZX8NFPAYYPwIY9Z3fZ7xAKlBCkeeilCe6qDMTR6hUXumh00mw0Si8cWgM9tMcshGZDYGc1Xm+feOlfy9BqDTMqbvvE16KAxg86Bsuntu/aTHu9HW3SI8HMOGgGr3UM5gXVogA5IO89DWVUcbfCKZn+Q3gJHUB7xP8vPzzo20WY+kG8/NFvzj7gtNeDs4eY+9UcEPEEbyel9hE1V5j4JnaEwWWGl5gmBEBKHrbIDEAwupDZhN0K6W2WwFl+/yBhXBhgzbPFyCAzi6SohgthAO2fzfaQDObf0EzWcLDyZ7UeFQOs1zvYgXk6VRk/A/9Jzi9TFk+5R7AqCRoT55jXkaQlmHGjodjU6QS5XRB8gCdmfyTiHY+brxsFelhrT2gu62flW6BLViKM4SwGElZcx3Hf990BGfUWmE4KFNGAAkBDy8bjk+XQlCPkEBoAoaBsBWsxWBkWLTKvSt4ZjJH119QV19clr5mrySE+jF9J55tP9KA5gzeR/l0jopheoprTOhCRNLRqC7vpGRufm0DowzFQ9HZkj2Dl9kkzOYhNZ0cILxggGIe+gwmNnUE96oEAplzKWujG7JO0SdVcRf8zUWfVVfySVncwLN31ewpq7/QM4A2dwBDvn3xFgEVUrbHg3X70IKUAtkDwKVvFzBBOOV2RjyDF3Mmd9addujMUV0291kU4a4NAWzSn4wkP/81xnAwBzuTF031wttC7gr6s+9oBiJNkeu5L3vvaOXa0W/2eYxar4mOZ0135gI1FU7x3ha+Q0pB3kEAcRt2yYdKeQCPEMIS4y0ChrFHHpHOnUlAZSGIILKgaz3AW4wcC8MPal/OMdAIpkvr+/oB9AKdMY3Dx0gEOZoOPWVqDrqq8+4MZtFNRMYqBDpxVJBsNkzHbkcQrk46B96NH9TfeDvMwClfpvbHgKBeiJtMtQtA5AbwC+2ib4ORTm6QYERfiorJGEbfrRa+j3YfA7UQfn2M8WKSEgDSszIu+lPHGYud4Y+5xq72YdlaZQCaBVSGqilLnwjuXp/MuR1V1Ky6A86+zvTBJQJPHwTCGeU+VpUYmDvxTAUAkCQjKDHlkKWDXj4aUpAcfWc+6Vb4a5qtcBshUvKz2NyRjbsklesff4vMoBtRpJlk0vfHvOw9fhgYgAx3cY1nf5K6RYOWo/unkFSJIzMcuNLU6FmrH/bUOpAfK/9/T5Y6M+4gMFYuQj75LXfGCRMqfPRCyviAhr+W1gD/94WCAEPisSK70WYAJdf3TqDH403QhIHy4TOoz4BBpoCVSJqcNWVWtKL3JqNGDQrKVD3EzScAa5MozubYKE5RL8YF2D8wR4cK/OUOxj6/x4DGBBi2AQB+GU1Mydkv5nGB38K/kH7ncgfdXFWCvI2293sPgl7M/OBh56NJE4iSIwHVOsIt1TPmBj1WzdZR3/vhRF1mrFbOLOWlkXH7hdBd93kpExxEbbjOoclVT95eYQl9PfC+JH+glcIr8SAXzG6udWTglwKmILhFLkHCIc+nJNAYFR605rhQggm6FRQnaYvbKJjDpyQT0fJCMQiINj/HT7g7zEALqab36tpuaDoUKxegpvcNh82weVTcV2egMJqoeUOUy+boMOcI+ReDqIxqjVb4yUzO8pwh0C20n1/6rRTGNah5db3kAsVnMNZl0PYr8nJh6jgbt0eSkE1Ww0Pkh8lQUJAbfespDC1KgcQr86fIH/FGrJ1gPTZKeovO+epNlS/NXwWHYZ28VIxFZKHanQFI4zSMrC5QysUM72QsZJqepVu/S8wAHS59BSmrfbT/NhMv00PSRd7mmnyKy6TNwv5QwloFuyNu2t9QaqCFHddT4GXhydPTwVWz08OoF8FA9eByq6OuN1Ll2KqTHPwITInT2GA8oBOjHwO1g4F4RTk+JUOKu87fQLuNTmTlWhQr1fBMFG9BgcQD+BFQRklQvjFMzSiL6uvN3hoKIVeojKT7B4Kb7ExcWbzTcVYDfQ6P4SLwQP4BF0EREr/6QbQk8qRGuvaxokYsLn8MHaHCz2T/FuG7cFphQdYT8fHTep1320s18b85V9rbDYeRJ9mFuSK63qXr8+VIIAFnImD0cVMyRdOXMBLbl9eHiBAHhA5M1JK+e9YhSJ1/0OTC5B3T3FWTIlnOgPV5No20xsogbmC0gMe9IV8qnHSRx/68jJDwKG8BOpTLeFUkC4yIglTaRYJcGWmPcg0gUxkYIbJUgNnjnD9JxuAAv9qmc8MnRvqZj+TBICHZxvToaNiDX5cOyxPq6fA9nLMAM+I/4W5bRByFCEG0LsVcUKy8c5+lfPgLOyWn8A64f5OcWRxSRdvWZaRE0m+4gjw9Xh3CjnAemfEAJ0qDv20YZEaZEOBKQJnFShSiK4ZWvTUB6CcZKrH9BetJwUBAUclW23wDxlQtHFSK2OW1s/QjWAUmKqlnMI0Y+/OxGz/4rniv9QAEOC1GX+TX5UBTDQAdawPK5NlN9ENIE+y0qnuGvWzyjvMTip4PuNGN3JF42vFmnDa8r91uCuF7wd3YhG6jmei6SPnjEtedGQcsTz6Eg2/HbrpySCeL+bijU2Ok5dRdeWIUbiyVEZLPO1+2MYxPfS1ZS8zxiPTSDiLYJUpvkDmq9k0crMJJdgM5T7ItwkuGh2gGY8N+hC2zl9DIUPTHqWqoR/6f64BsL2BeI+VF0vrrL2HYp8ewVbtMpRLooex29LrXlD6mwjDumQlBpPutr4aTRzPUID+5t6TkZMG9CSMHAxDX51nxisWfHXy6fDdGU+79o/L9fO2cJLFbjX9XGjijY6Oj6cMio5xnPBDF68oLO5xjRYqNUi4GJmPbMyfIwbWDBqgUEeXCY+Ba7m7B9ZFCWtiMAlVEzpLNktGpphtptTGEfTe7Z9pANfWjiBEPmQT8Gu9ArmcwDBcj6O4bbBswJleb6uDzn3eMhyg8uAZogjRB9NnuwZwoPUOw73v76tLNd11YuaBSetiKgcpH7ccBNAFIMFiYd4ydXkCHdzizUHY9WcQoUH1dIuMIZ2ElE5nXVy6AP8FR5UVRNyBAMApg+D/jToyiaGVBKKwJpPHjK0yuTTYBFuxbkEzXoEpU9I0uAhlg7POgJXCyl/LFvnLDADSfWbAi5F/BQIh+X4etmmiFrNRbrHqD/JOVmYzJp5hZh6581Uu1JMeDGi4CD97m/sPw123/r71LoyH63vfdQHHT6LPtV9CF5dFh6cQoONKurZ2Rkr9R/1FBQH40TXe67jWwgMyq5tfUqr34Z7HuvZlnZQHVj44YVJKKHER4SShGHXYENEpI230DmVywaaGmSTKzBHllfKiCVYp/BuzEbUJYUBmTfmtMcmoNc4mW1v+eQZg1dB+3pB7QJfJYJ7iPWMUKK4Uk1sCEegG4v9J9aqpO85jm6DucZesckqUyNQH4Iko89s2WVeMSve2fhV+q4eO74T4oYyf9r+Q3cEfUmchPwZd6oCTkEOg5ANmNNqY7IUKLr+Ry9gQI6uEqK0M8kQuKrTg9BVVZKnJWs3UjOUyEsZoxYRwTZJwsQsCw/rQTa6pnBw7syTZBAvna97I5kqLKZU1JQbN9I7/SqEx91f5f6Zl0V80uk61Jik5z2C4aGbaBvFW0qyZLn0t9k+EJ75a1KhUYIw3noPJOSnV0zmWsxT59BAXpgj7NdRkBXp/Fro9OlIlgWmhyncsRR/VdFzRSCJuOZelyLMTB2KzFkGkhlOL/L8/47DeC60H+kv9YNWFq4bAvy/KJVMMExXlKGfgP2rCNmt8Euo9481YtNMXuhd9GD9fg3RMC3SimDDOLdHQKOVSJoQ8Att9/WcZwMph83O2jJLHzMmT+M9Ztwz13okhKmdes9FMoREET5cJG2RZKfE8TA9guOrAwS4kLZ2iHIAIsjdlbXADKfUsnEScGnWfRd7ceGDL4eOxNHp4Sd/jaTBQBqLjkz8YudnQ+6ju6Abr0+p9NeVJ0v/CS137ep6jjEPBInb6Rz6ktn2HiSA3g/mG4t69EY6alYJMk0xxar1T96BPZCzjgU4nPycz6Jb9lcocQjbe49z/Zd3hv8QABPb7UgfZ+eSM2U/WR/8fujT98WEecJ4Z1o1Jv8jpK6pu693uPE+w8Pyh1cPFxNUSh71NA9OM6zdSgF4nG0+lefp/Sg0MoMvtj1MG0Y7F8ntuOogtXNWiYIWARIsgmoxgqGcGCeiY4/0uSxsueom93KGXDXQdt7nG2C0dWQVT4iZFTtnQe5M1USBpE6QB/ZrCrPPPazPl8mC0ESsZtjYJnTRTOKmfW61sQGb7y6aI3F9y/jS9hkvoAQt31sqfT2G/ebBRanj3GT2GygTeQN02XrJ7Cg0mzBdW+YGeNxvEdZbeLdbYlcVsev/ar7q/rotXpTeeYDqdyKL0X77ePtYbJzTRCpDxOHpAqS1LWCj/+Djjf0wYUEguRXe3Id9sQgEX0R8lsV4OfV2FQhU9zoR7UUpo0wb6GkOJbkdaYCi+nfLvYIYGx6CniGzyE3N03HboA2SeLroJREOF2JncpG0zWP8pBmBdXDchxJoNBswPE1NzRvS7KkDZ7oZ+fJi5Nel2nfDyBqqnFQEHBBzXDOJnvQ9uAuhtnr4pt9js/FcTfqGN44Hr8vAUBPDX4ZBduIgRZOr+C+WAVhb8fRpjWl4/SCGLTRYHO1QZgDXtCyQQHW/19HPkae72tgp36n3+ID91ut8JmhGCIsU44WCBDdG6Cq3c3++hxE1HHY0+KDdIlUAfI5tIM8OpcoTKNi4GaZ7+ImWRP98ABqPw9KS52ZlqL900rrbbqASvmYRfeK7Ud8auOEEbua7MVGdPQ3hrtp9Bd69n1xNyYMFS7ghHhzk8GYDeGBs5dSbZKH/y4g1fW/ltArE3yBvy2qT0+pJA+ErLQIaiPys8LKD4cN4CGUIX78rO7fsoWJBlkLWvw3X89/vgj80mEteMlmRTmmEFRVyGhQIjH+NUGEYbelmA36g4UzYORijWT+pGF02mqKxwS+Ez0CwceveXcMb/AgPQ0xk2xqTzPOH0KbfaujZAoC4//Zr58Q5VU5ev1S24h56JsnZFSZrFeE05YDCYBYHN8j8r5EEV3zbAofCBbINqC1kcRZnwIpxmQUAoj0FhnyzVOzlv5j89xR79/QJysAqeX8rSiBmLP9J4exNUpekgH3KCFmI9l3oWPEDtdgF7uaWs/63C9pEyEwMmvtkUCjyDHE2QiMzW16iUggHmCPmQUReMY7bJEb+gPIWOqTOGIn7xYrb+/AYwDHUG4/Thony7aasYw2aiv/NwsWwcU/ckxBMFFV1ht8Ovonjg28y8JQ+HZZ/y9du2cf8bDZWsPxD/zTKEAmUF+qPhAl/OiA6UAYFzScdI3yhaA8cqf3wr3kE5cIHZYxEgLA1/kZbx1o1CbjA/lG6MkBL0eSmON4LJ7XaiKoQt8Bq58RfIIImR8U1NQI+akilR6cunAgyANCyMYkIGjbKjbA9hM969McxKrWC4uiXEm5/dAC7S+2BuG4I8hPkIJ6ZH7tGWNpKto+fMmdIFpI5ihKxoQKEEc/ZZl4n2GcfbbzIjKmi5//5t4N/VIgEIjXK+OxkA0sX0XNBEhQ6TyHQLR5OT4shivCL+oXNfqAHF7rb47naOBgJ1U3d6SxSPQGr1drt1/PIBRNh2CITKMLw1kXXDZS66+YtNnjLcRCkT95aJGtbd5CMBDjQdzCDHqxsFz5Si4CVTHSg9rD+3ATDkodDf2/8H75imlGGzkyG4ySq9BglQAbDWsDcYdzKVB0GXMgo3CKmGRnl15q7neStmCdfbdh3+FR4uC9D/NtNzgeET2w4es26dCUVY5sf/jG3OJXwnTRwXyxqXdI5d1x3eTZBLSAhBbdeNJaF4+zLeXg59RB3yGrp0Lk0fH9toH4IpFeSKmRwGjaIjkpJCvDk0FE9YZxRM9bzSfaZqZMrTczwFNq0UHKwlamNvP7MBDNPV5Co9sTzkjT55fmc6BrhGjj0X4/VcW1wVcXfHrIZuzvN+381T+mtIk1oMW5zIxLdvx79x+Ov3foA4YCaAiph/rciDcNF2BX86BB5qGDjB43xp8cgaQloiweBc/NjVs4vjeEy9LBA2skvlqjiGtrS83W4vXZfkI6Ifk07+qHIaQhHRuAWnTRPzsssZLremfAWDxtHlMNVHkuXHhzuBomiV0YEIjn61Ec6Jjr1xhZkW+LPTwT/TAAzmMRFlmxVogkGMeNAO5yL0TIWtYeKBFWX5MAEUEvYQJqVX0PtajoWGS6imyOqpnTuifLbAjx1ALNUftu9swJDAav/fto8FcMq/t7AHwoDhwkb3B+bHO/9dDkq5i9VxYjd2uokZ7XB2SaDyhAU5f7V72zZ13U3egjwhdWMaD489kGpYldhfyQm1YRMs02dG2khYNWCRQpE7KRX5E1N3nXd1CXALlSzCIg82c0hzDA2TPzkddH8mADC0XuZ3+Hp9MNA/TKb9o6OGGD6Ue0hW72c3m3DvZiI+wTY/I8QKfcvEYPOOVItOLn8cNyc+9Xb407dY0F9AwLDAR93oIzRsPFpYAYn0ASq4tYwVYOAGLU15onKGmG4dEiOz4jWlRwWRZuRTigFyI5xH3nTtcQE6/0XOX16AcqPBTYaEI1WlwDEG9hIwOiTnENucaIBR6mQghWWERg+8eAbWh6BT/WDy3NaXXhtJBliSP6UBwHhBQ5natvCsm2w/w7rp8vc11MFUc8rAGVDtzSbPzfolmNWRkv+V6lt7raHI2IzEmz8j/URC0E84A/tn/YoFzQh4UxS/bMQ+Z2tnuHhBC5VAhfwGHYSesbC/woMCenfG3hL9HgVpRenOxwyKJ3mPILs87F908auCxeJTO1IDaDh9ORyAMzxpfUJeuwuLcclOxEMZU4QTSJkI8HeRBxU6ELFOBVN8yGM0SwtsbzHDpvP6pyoL/WkGoPyvQo5ntQ/nO80D7PcJbte6ob9VhjUjwoLQsmK/YiVD3DnAyp9XnT/IzF9pm4m9OavSzttV9dGltpRw+wgHn3cd6/j41U+T7GN6bJM5icGgYKlHujy1tx4RXkGQbeyWmo7uRvJBpXfQXzhhl5EqBZ1DBYdjNFZH//bSLUd7Lm+d4P9iMaUeyjR9vixWr3rS8SbTrSQlZcSMViC1YJqNFzcNBbp6QkdpOAl20yGFQxyUZfQQVD4GTP/E1pD70+J/dnoAZbpq29tKOnjmR9gGG/sslxigPijKALZy9XcZCsMkgvKllCJTlmC4fTCCSIKILZdI5P8EfhYFtv6jGrB9hQEfBrA9Jt4+LGDr52mzeR555I6s7+Typ0VndCoeHLqNU1n7u87l9JATkAvTC9wpTgrfoTDGeMo53qI1EIxTdrEMOt7xNHBJqRKVOnwW26qUzO6ejRPFN0qLjT2WsoqdgQTDIsILgBKGCi1Shpo9E28zjSLWXA4/mQHYkp9Z0RtxlKHixmxKrg7K4MKmyBbPwIrXfOpYFaAHS4Cdpcl17++FsKmHlGBd2vx1kZumnZ5J+9bvskAmQPvPgtBXIHA5Ac5+Mwv4yByGzcnN8sQXfeP4EtMZ017WTZ59wqVw/Y9xZFQBgqAi001/2jddUQE7BQOf7wN9YF3zjiLyshzYQDq7D4+l0LW7jtofakMo08NxtHmS1rIHyQAMaHiHdj7CWzzRLnOzB+teU2RlvjZZwhzOPXLW+acygFUZDCyXDf91rVqVSfSK+49sKzlcZe5edtFHZigzY5q277nIZATAB+NiW5U21atEh9QHpCF6shzUN9yve85F/8gOzT98RQO8285fRvIBFrOcgJf9wQW4uCBluPc0GlCauW9rvHXTyloZ2tbU8LctT0UWgLCEJyp3x5djoWG44EMWmsn6HbiAypLDEGAeI2Md/I5UANUM1CRlVSeg8qyv3Ac0TY1XGkzRCg2iIcCQxwhQwEHnolcALe5PSgb+FANYe3ZuUc4MjHcjmz5bWUtJ4IqGconnGaKt8H7IxdoyZ1iRzRsczKDvQLfVmDaC30uCsk+KHfY5r99l/tfN1/k/pk+4x3X/8AbrdkWA7cMs4Axwz/HoVACYDtETFqK8W2FXRnLX+cfBOpGA1+HiICiAP9gdyQTQOtxuXTuWL52ufjpkRiMs1ERiAPkUYikGS9sBfhKozmo/jBbCeSkfQtY4NqM8kjdeamXwnwZbhN4InpvinZLJ3koD889iAHcT9mCR3oCY8wCYpo96bdQrVuEY+jg5PdrZ3c4668lCGW3y8tw5VyCKeL8bWcMYesF/5tjefQv0H5ifU5UBTNunCXz8zWZ/YRbA9V/t71f7iEmPey+43mKAciJgMFj0cN1b53ajgFzTxTZo3PyT/9H416tO47g0ZYHp8I93ZYFLXc7jNSbrKsnX4wesdegobXK69Dma7RZttorKIgPMhkStUp+hxFCuYt7nu+mVFpMYBxT3TA8aS+RPURX7MwyASTcb3BdiW7Plc0qAJ/Zo2fjmtXqbGW7w/zZG2/WaiZ9KiXKzmbmBR1mZxffXuI5z1lJJEMM2a/x8Vn0/3cHj1ZzAvPXfV4XM/U8fSIHDXz9MoEym833hRf31lVzk4+iS0gLUaHXld+qG6I7R59nl9JlKG7rx2I/ozwNmeFp0+4/F6npUmncaGUgc1A8Y2Izzy3iJn9ha5KAC1DTZAIHxStG0zdBIkZRa5w0fcE0OQqNSRgC/ICv/+SkMQADgnK2lQRTbyAd5NKhoVDe0waa4me/IRgHPU5d0JSYEmKjOW6FEMWGxyjqAISY9UPsD2g5yqMMH/+Pj308L2LZXsMD2PRTc+isJsIrht7rQderT19/1BhWti9R15+2kG7t3JXTUfW1XdL3IhrtykuzGblz01in6M3ByMHJsjaW9GDOUJiNlw4tkJqg/oVrY7F/bZZahsZIkVqUk8o8RLmI2wYLBWCebbSS62mFGLYcmOOefwgBQwKP0rx+lRyWbmT7E2Rn2goGBEB94z94E+txq7YBc9hgZszAKzQDkg23njNUNkY+LZuU21nP00PM+jn8dvgGCd5nA/JkRXJDwigxWMNyuztHwWSz4NJ7N8gN0JGo6dDeVs1Pn647z1r3ccGf+MMpwl2xLVCf8350cfTqCMsIzPWkvwTZu2RTIkokSZ5Otj9GKQXrtj8W6fkXOXvCvpYSwoFGW6F+zGHPNrMYmzFSISMGU8dh0UUxOZPsJDACQbis7i4CUZ7ofbM+pFZ8Zy6Vp4pgGXwfX8mqJHxwhl3c0uZQw8/ezEgA9pi4y6omSj81xNZN4kfnsu6Ljpwf4bAjx72+PV5Qnpv6zQGi/u8oAVjTevkWHfviuo2huYHP7Lez6AdIYj6BgcLvdwIIWzM1V0x5at+OmOBEWSooyhWWhmUy/CTKJAtoi2BqeluFH5j6AgJFCpkd7tJlUNVEtxDqiTsN4Ozr10fbOEhnlN09WY5jCDFJKBqagvfzoBgCLd6CiEVem9nw2Jd2oH8xDlQ4xIc7NepUMvL6aRMqziHrzjaKMwiT8HNqHJH7WuMMBJG9zGzahJztJpf9o/n+7y9Yg+O3dMv9+ukzgCviUBD4ywulCjR+WMG2fdJKekqHHru5ThjWk2y2cF8gH5LQBKDu3dFf8irG76eUcy/l8dufB6dNO0rVeTms+Uutj0CPaHLBXkOOU45ls+5iJT5eQqs2U4+Hi1RqsYZYHgxu+3uUP2GliDMNrbJhHu/3wBmCDv9mEn6tbbI/fpbpM54uhDBvCKvrLwaYg+J0z6Y+1nue5CGvVU49yaAc9G10n41YvNvMd2qvFYmVdujHb+gEGP47/igXbVQD+LBJa/jddSQLvMZDw0SL4Wkm29uH2mJbSwzuV7cojp44r3qVCHrDLMdXdPYAgwx5vqRv90XmFhgSFaDyECUKEfGzjCjZkdhrgd09et116tlu289pJJs9nTIAYrtq/tQAQS9upktokBcPxH6iAKVKbrnPzD20Ad6I6Y7DUf1ng0ZrNgdSLAAXat4n+0dSWbgJ7d2RgmJTNyn5u56mHXhj7Zw4Xcm+z9o2gUocLaNY/t+lfPWkFxa+x/JMPYrfaagJ0ijj079z/ZQwfnuLKDafPNoJ+zdEv+a5kMEQ6fCcgb0loxkPQkf9egktZKWI5u/QWuzH45x6fAAChwF2JgKwi2FRiA686SGHKAq0HNTzcac1Bg8Q6aH12Z+5s8AuCI3ZD5jgzLmX7RWyIqASTSIP8dokgb8MPbAAYqsO/W/Fzlltkvs+kFZi9o9hVwVdVQTHSRhcMyLbZ01qDc3kYdZN0KqG/6Lj4C/R/P9K0oYPmoXQBCJfldP3XCGAsgM9GoDUJPxBAb13Dx0fT8AKD/fWnD6O4yoq+HTqoIzzuepcyPPn4MXV+uS07qH0gdR+VneahvQsMHo5itQ79Tb6/062nFLiklGCHybvTaDY1wYbYCIICzuhCwoTu4co7vpDNg4t+JgFdPTP5NNOiwi32BAHrHTkrkpjUlMGAOfxnGSL/SQPIyP1MbGEbKJph+8FAr21vRrqXiRxqqrTILVnq6AhWlq9dupDT9jiYuGs2tcvVT0D/I+kfo90Z49enpdPR+J2d31c2aDW+7/3Atn2t/60fWeBHNfDTAraPutH1Tqdv1enXzff3NVApjimNI8M/jPk120gFf3uJY+eSfoYlRreHMcEp5+j9GLrDiCK2e1KvdScjoJEZKSHZpjn2ExgAaFehu1EsgktiavXyKBSDVyagTQ2xURCEIbZlW0Zm25TyD2oARKpoghqgXGXuZTaOZ2OMf9NPvVUXz1gvIm6K0LIhX9jgz7Xaj/HPlaGQaE3WdrajuxpuCYF3hjzB4vCv9JzT4hi6+ywGrP+K7j9LP1fP8IM2sH3c/uvcvzoJfcJczOV3aRnWFjrEwTCJ7nYbOX9jhy/d7exuTnZSz86/hz0YB2hhTFEOSTa5jAQNs+323H0tO8vLmEV+srM4hPO5IyVUPpZXmxgx22xMlMgUKqqtGVlXtthn44xQHXe9qYoNNmI5/IgGcGfZr+tduYYhZtNRGBt7fTy1Dz3CybURSmyCV82iLsFgeCIKd3Yl3LTR6tm6kzCK9ILOIx4vPp16riPSvum4eJvdYTwOv2fTBeq/WsDwXa3n261/BwZ+WIB5/n+hlNq/c5R1pXTS2Vu6hQr/rpO+nbd06zpB0tKNt3MrOgkl/p381L5v+/IWMYC07DaB7I/llkwkxoRDym5yYruzOQZL9GpDnQrobx2uTlan6MaIk80dsKo4GFemsLCEqWn5gEpp2MqCxIAtb/2PZwAr8k6mdcbMQyO5iyei3/Fqg+AMXKRMXutrtSyJhmB9lDtTkTV2/JTQxHc9d92IRW6A6c6D/EgmIUeSXAedH5/QRsEtfkPzxCQivzv43uDA+lkH6rf18eCQHxcc2D7/8+ESPtrI4UynviEcr3RJSzAecKbbeBujyQ+ev00sFit73JNeVlsdp58cEQpu+cvI3GHQzW/mwLjbJggi2PNyyQddyuJ6InPyzL8xgqJHQnmrORqgLC/IqzHPBltIBR/u4syxKIEZe6W/uf/RDICujqszy9qt2zGbjUPkltHHic2axpOD3YUhkCDTS69J7q7J20G93i+9JBePuFw6DJDsKbMkEm35Vu/wsKDC89SNFW7y+cHtv39XD+g/QaH1B+x8H+8Po49+IIPPAtE2bd8KQzY/1lV9WZ3ucV6FX+EM5Xu37k5pOL5s1hsUpGRQbBWY23f9jIKCy/iiV/kKu0SJAZMhEX0qNK7x+3KGLYXjpKY7kRrR/7NJ9sUUKO3DaYQoEMVtZQNOgxtZTZJ0g1pdTCfVZAXnPP/nUgH3Hzr/zGAt7NspII5oagtG5wzGcmNvJ9N6aPMjmjabIJvumz4IQfX5ZOAXTU2ZfhzlEJLJ+dFuOdoC7dZIfAtETErCi+/O2/JkaVMZrrO/fwOBn1ZARkib5/F4fJz+Z/D/qBR+zQ3WvlwWCe9H6dxyAkMaA4Jj93ZDzmCfTqtb5JXuzGMfJr/v0R10qUa/y/2/v7mLdr7wav3hSGNBjzuqAUsxAIvwqOkNM5V+XppChAfmzb1NyK99Hq7ZGJwqKim2h3hluYZtUN6wgR/JAAY0DozAgjxys22qsCLOYMOeiGUh8wMrDtmPhu7SKVMQ7BltUROzwXu26jfN0PFA1oOyr27ikcYqJyCLOMPYHYeQGuVkOYXxJHoWVn5eAmFXi+ijJvRJC9xgkX6Wgb6SCD/P/tuIATpOr0wICNczLfJyKr63F3zQ7cbdm9Im52wN7ek+bAlDIF0h7xtl3G9LeKN6EIEp5DljNB5IJRHsTFWSihAzodEkzhajoSOEwHCIckIZwlxiVATLp7cNiEQPJLFpnlJhYz02WnvlP9YY+k8YgFuDidyR+MUxo6dP9xahbQ48ChFQ8DqxkPFBekxflEqpS8+OXQEfq9dNATTXLZ5jd5LnPf1h3aCnQL/gH9BKPiDuu/IDBZHRPzsuT+k/oOBXJMBkwHC5A07+MX0SBT6Pv/9KKP0kE642zMsIeUw3myAgFwFxnOPZoz7vdlq9yH2C0e5rZuQQTtGpw20vTX7gWJbjeDt50Sk9Ke4+s15ogz5E5kdACPMJQ8yfDCabKM05XyKFlVWZMepHGa5JgtkEVac5N9PWmjcrmRkUHKbtRzGAATbrbIqZiPLMNuik459eg3FhPgYy4fudtnfHamGmBxOYuys3IhuzfjL5XRd63uuTa7gg3ht32i2gAEsB0xMvu1z0Ox3Q8ubjrfZ2/+/fdfjW9ZMabojvwY1/9N8RRvr+kx/wGQSo/ydEpOk3Lnzt8UjvQfHn1vH4hVN3er4MqEBgWe9xoWgh4/zy/jb6pfgXk4tQeir/tdjrXIwQZKp0wWSKl4++Vj1OXf3zmlKbbTMJa+l0fbwtrOKHpWaAXZiO6KZb/7BsYB2MP/+fWTPj/v30Lyr5i3OzOp9xH1BEo6FjfKdi9mCDEizzbkbuN4C4OkojepbRJP6LJUu+OGVN+/6coqO6FkzH65QZLMj9d1177Es4O8b9lUQ9WQ0KpWztv+sJfPd7O998kQGm/msdYN0+MsLtu+ag8n03Lkz6WABGQEg3NAkT3vKd/ZWww8105QyGYb27W7KP8k9WkcjDp+eTgYPF7TYvfFLwMFKr79po1Q8kbJvfjQtcbW8RKtXWK0Y+MCB4NdP0sxU1kEQdk2SZrQMALaK/eQPeOfwIBqDcxAgvsOerEV/pbpLPNGaj55m0F90X9HZtC9eJNVTb0GhiUJDCWbCKbGJDV9tS3j74rPuSmOHQbUzLE1QWl4Y7IMWCIzDCFEZa5VII+nr+w+fvr+Y/J/34dvzT9DUV/PAJH7biGARd9ALTO02ZnYhzS0c8d9KyXdebDr8cgMI4vTmlCNzq9/Qal1322JGojMoclmYCNAwf+fC8Vg6YKGlLDpGCwvC7acdAIokmGEELCVHs7O6okwV6qZVsyvYV4/TZmGI7Ri662nz/T7QG/10DoOmDto/NNdPxKYistbi1B6RHomo2wQ/rDFlV+EQjoTZdKvS42sGeTVh3SAKG+KDvYmy8ddrww+k9Hnpwy81y6yRovSvf3uNNwHvk2skU9gwG+KgJK15/FQtYv7r7x+NzjuQDF3yUgT9dgPWHJlSkd7nwN/rPu0uK+oKqO2NC8IAE+xGnEVoZWSLknll5gPdv/qaX9mVZumPc6QBBF4qj+X/FMmMLkRZR3opM/ijzn6c3HtT5NFxwmtoVQXGu0GfvA0xRGpDIJp4NlbJhMrG91SRXocToNW1/twGwo9uZ1E1wQ0nFBEAa1AZmAMLruzXwG8Kw+iFt5Z5cHQQQWFc4jnOJVccfExUzI8uXstss6DrsygbT8aTJHnXaiq872pxPU/XyOAadw678waPE95UldnWILmfwSfmQB3hc+d90hYLtu9HS/qNp3Pfwvunj6GK+N7AdDb6HQL/e4n7Kbhc7i3zyCo/o573zClaKDZQ3Y9pfCRqKGiQGtIt4pbQGR1rLSz1RklocVKfQNZPEe3VMqOVIiMyWBrHlhl3WmxUHuF+NDImDZwcSzoD2Kc2Bv9kAVpP5KFb4Qe9DQF+v203kPoXV6hVBNT02jtyQbuKPpquK4MZuIp6C/qi0mlY8F8ybtL4c3Z5uY2LmbtcjJA4IWx18ivVbKZ6b0rsC6b4Zrfvb29cGwSdTyLiBjw/kfxUFrqbhhylcbmBr1OZMTKrp7J8oVp0x64sbfW0JdTHZobLfTt8261u+4eDHpXvRz/PexfZ6yBN0XqjV1CX0m0uVWr/tbBWBlbDAsIgYIRREwuxMfhZ5OQizs9tMwq4mxYF0PTKbGbXFk5eLXHN1/35B6N8zAAZn6OPpVlTI7Ogp6H7PD8rd3vZzo/hmRW4rbJpMmy3qDtdi9pC60yMGxtAPXwQCFSM5YYd3wyM7bLuPsmocgCc90B16Ls+j+SMpUhtTzEoBMPsvHbcPF/AvdKE+f5z0R4/gsyy4DZ8pIaZRjM/n6qmvG45xMSIQ0h4KcYtQp5shJtrtLJAB+f7yS2F8+ncfv/g3Mr4FyZCrGNaeJzpEXSDqp5uBRcMEiwmZCSd17coWok0K+8Caq4wUbo3nyfAkSlaoJbNRJJvKLNOCg2OExA1/pwFM0VT/6VWfTG8ntmuyWVspIXq/PEj28dIAiaxkkdHXa8t7tcknuv/nuA+27Gu3LUBZuWKmYL6u2/OAlCMD4CkvJu+wnMzl65k35L6aTeTaxoj8/3IB16/he+74R9n/ay64fajK2Acay5Tp9L0p/1LgpcAvN7DvyfgZLW+Rb7ztBCS6OJzdruyk3ZJ/vodzORYOdfTxiJ0d/+JCTK3ZHLKHMCAHgx8Ll1KJ/hCbpcntWmVqyhJ5pSOMIcOeMYEpJlUrkzWmMO8uQVGrDv+dBrDOrHG9GlXZGhbKeOfqH9U9zugQWWfaNVILqqbED0uAZUvFNBuReJNJdOdFgJft24Aof7PLryjBhPYRd4P9S6P6ywWiIQiesgaMKTG2/a01hrrXDz/wOTbQr9/o41/bxd+ooF+niT+bifrnYyGUzuZ0yvCVqp2pk7ktVqTaTfb9uelAXsZrvnzcaf8uz3erCS2B3sVxXrMsR7NFVDAGn95AABygpXuXlxltRLUWfdp5MUSbqVkJEe7gANCeS2OFYFFcv9pKXEZNYagNFnoL3NrhbzMAY//lBxR3pr7Rv8fJC+e07bTRp2r6mqzotSVM3lngF7qdC6MAxaT2z/G8NFIZI0CNASpoJci5LsKVNMCXrBzQWamWFhzw3596XPHJBdLBzPdvHuD63fCvkODTAhAcBh6uw78c//CBIJlVMPAVja9JohfSSww3ChibEL7npd1OGw1o7H8M5KqjlQ3iYUMCygnPIwHtFe1HJBA6kyI/Rn6CZcRyTKrmmnV6UBaMph1Yx0kxf4WFmlliua7lbsKUqFXM17YJI1rTdsmmpfp3GcDKymPqEWx3mIng8F/o6DR2wHLA1+I0/Jqw7KWk7mxChhsW9/oWjhjHTiEAzmQs148dH/i2loeFvPqwnMofrS2pycnKFNgAIGfqnwKQqaO+Qt2UROASblu/RYPvMgPKxWv//fz4t99+e9Mlb8ZYAgw+dU11b4/jdgSmV2Seq7Hb1/Xs4u3UQTrTh/Wt240kDCtEIIWytf48jgm7JwNgIsL4gjaPHsslZx+OM5aotEHuLdtisgWjZy4GjzmYyDTRwBlVZrizktY019mxlxkcd3+XAaxo/8oO64y4b+U1o8FyYf+I66eqYb3hSvIPwXsucUYZK7SpmQwOgv3HqeQHqUx/LlDGC0MBQkK7o6EKyyYcVkQ5bBpvpFwreG66fAtzPLYLQDFl+Krhun61gfv6f/ICw+fN778xy3v7aPRsP+s2rA8jBh1yCAe7BroDYq5L2xrWUy5AwUieB9Vw2lZjTe+j7xZ5qLNDJSZ2iInLHhS4GB9QxOg6WkLRugyXsBzdpAifuNo8AcCzO4rJo81ke6y81tNlC8JAiXgGU6Erb7r7FAaH+99iAEzMZnY50e5pE6UJ2/oyC7uSxrEjtc7y/XM0ZAihPtucJLvayYNNJxeBnPOkEYRYxkMZQTSBhLIPJvRuAu/Hzno2MoB47M9LjQv6ZWrvR1pcYyqHMB3aMOcPE1i/9wOXIXz90/figtY1+viYO4OMeGqcjmDom2dMEJFZHd3Rdd3t5SlvhWT9ysRIl542v848wE2xaOzOXfaSrAnA16CofJIRKGeU3z+Ot5EMEznCAtskmi6EyRW0SAs9lUVPIBorfEZQj8caTqtOumvk0KEuamJyprExuH9zZPSPGoAtaA5XBpA/tj3NJnHCJgRvGqjM/9DgMKEUhPIysn/WDKei3qgCxh1aIMSJErZ9Y4uY/Kzu4X4ydzUuLP/r0ouiwf7Uu3bDz2mRPSz04IMwJ9nGVXwnTA8fbuDDA3zvA75WC78RCL+5f30KjrezNXOeya8FDaiDf0ej/C3n7ZaMErLe63jT+5GKUsovV0E6GMZlf5GZYED6i/MAJeinCGYKV93iOE2gZMQnyFdAbCv6u8b8cYOJYG2BYbi2ZaOUBYTizjjLsAOT99dgHcM1COz9e4nAHzQAOCq97blifoXVqMz5RlDfA1048Aq3GtFs28HOQHwz3Ue0vGkWelihrI3sAbcItUINCTvPImel1kxf6al7f7ylzmopyVo/4fL9CzE6+j1fZRb8KdQs/X9YPwPBNwdw/18J4vWfDUP4zB0GVviwXyAckLt1qOM1AX6Dk6QvLlu4vZzsJ72vr6kbn7uSOF4IBsM6qo5OBXL1TA2WcSGL4SXR2UwLtSKFNNtUE2x5JXkAOPaSqiIrbDZewP4aZI8hoDFIjOIQmhqN7Uo2Os7YlGmwZqBB/5cbACL/lHLdPLnSV0N8sZqYTTnb5KZL8odtjxz+g0VvNvVZEtuZWoQkjt6G5TEDS1Kg2pBGnDEgzRBOIagOji1qS52ePmfb+WeJgg8U4HX8+zKys9fvu/JGXbOnrQXyigmfWND++de3b+yxf/UAQ7bpg6OdbxCQ7B9B+sA3Pg4hECONC9YVWcDm9vFG6ZfQtMT3pRM4VXrSueXobJGYYsO+wGtFd1o5wAGaWd48XMC0mIq9iZCPDVCzoFl+bR4QRBLIQRmXMXqDVBev6lIrJhud54nFU7MJyq7zv7Vr8g8aAPY5Bdt7wwrU+dqroKjez5ag7gKqbSh99oPtWHbgRBwCtx7JLCKDLd8xKgDBIxt9ch5HdNOqjn/p5D4TqFj3aOd8dcoAtENPaIdzceqeovenuNCQ6oiL9Q9tijxfdYF/yQ0/8eFXn2Ao4HL/vW5/sw0USTDsxmxwhxykjvbmiUbgEQjDnVXk74i7BXfFe/wUhb3DH+Qlnc0zISn36hcrD+gjCAFhrIZnWU9SFTEaJw4rmEEXbn88oRgnllXE3bigNlxueyUYCnAobxfIQyQCjo3jzI1t/8ayyT9kALQrbAVkMG5MMWzqrBwIKMSlV4Yi6f7FtrEER16dYMZwYOcuHf3qdjdtyPGhFVCsaejL/TbWbhyVZiWF/O7mL7wcYQTxu3GJF7vWIb3lln1nXhssfYCmEzdSB4Kw/ycY+N/1gU9L+EgN7I+5u5j5OGpleONtsWq+EpNTMeB2+YQkRHJ25+FMMX51JSJrjlbsTrnChoKOW1jeqQZBXlga9JVOP41OtRsx0sUUR19TMx7Z4RbnSWkVbqAXtaWGMzncXj5jPU3XfKPAjlJlQz4I1TjTkLFfiK3o/F3/FxvAJfHGYlfrBA+YJNTVM9QZzWsQP1t9LAls7E+pNgDGTj/bsmtTcpF0zybhMnw4Ou6P5m7jkc4TjCXsTRpA3meUMBsRlsN9o8Pmnt2eUF5eBPxMAZDj5+yj/oLq6p7v/3rr759w7+vbh+I7HMxFUPvG7dM5QT3Ud2JQsbuur+5pd8BNuuEFbtE+OekFMwfqzmWPF1FJ7uOUEclfLG+JpYVpeXpSA0wZJTnjOrKzYOkuaelg9HZgTTS5WqXCbJ86nfAotGjWmM40RwSUFWSRpzdKCjxMygBhHpBFGf5CA/hAAMMwDQGmxGqbXwN1Xsj/+sfJTnN90BG6JuO9CRwg9FXTpY9MJ5iSt62ClQEp0bV2wGPdlS0dZH1xfw8wgQSQXkil5fuJ9wlPb9rsh776Uljz0cIOh9C4mIrDyt0XkxQbVmPQrfdvmeAHOPhqAmyhEvhX7FaI7246/OUk9Mj29C6l++m4ye0YIlWaRmi43aqMZjVCi8DduTzfn2iG6a4f59gF0gPFD6TNwvI8RvIYS/uYG3MMvL3ouF9fLFDQAII7RMwIier4RRK3YrksoTMCgpXQZQArm2doBvfNxBZnhgXcpKRh/ksNgGXINt89P9jzO8HwlC9orH1FTZNIAOE1MiSkoF5Z+wuBQY6f3c7G9kvunq31VVuJFM0C2HC+53F5noT5nT5COnc+doEdeKSCXxDM25e20yxcoIwt6YniaseIDmR+mdxZrDDPpL4Qlxu++oGv2NDkQFf2etj4KWTjG+FbyVyKN5vxsuIuY0J0LBajf/kTiuB7f5fTl829Hd3uohJRGCC6+zBBbZPUaK0gHeyTpOCELGpzruezyUYWa4HE+MJoC2FhjOEdnqiRxnnd7LC3eeFwZUdC3HUMcz/cB7iTXDX9FdyAfoAZgCz/X2UAiP+aghVEDpSAmGBu+fS29d1G4ocNZddqSliO1TwTtNHg5L8c1GEmpxVQcf9EtLo4I4XalLAOZ7chrZOUCEY9WNvHq7zKNU/B7+RLwlovyrTeD3++yQk96dGRcu1P4wzYYCGaDqRZJgB5Xf3PrnFu4DASy+WW3hTrFcVHXfuXLvgXuWyqf3oZ7zaluHS73x0zCrrnwjL37VTiExXK9+B7d1I0XNgZtPj9MOuR3aTjjVzlpUusqU2nv/pFWFWIX96oON0MFOx0x5CLsH2DwpbCB6giLCy1ZsYMaqWtTmWLEVm3cDcdAbqC6Af1zg3zX2UAebM1147sja5uMTkttjwoRaPXFyZrEhIMTPpTJ1hNOTug/+emKMAr8+8qix7ZFlYt+9ldobmS893yq87p+GNnXjLREtipBdkUXaMSyHpQHbBSMF1dE/GiMS/DOJB91rN+6nBQ9tkN3Ldt+D74DzuVXkFvHfnikAPq4vKitE95XxhlAHL/y6u+4jkiDKSLTa6WrJA/3pJnFSjZIbtB/MoOS2pG/BjQSY4xjJ05jIX0VFjBd2/sLXxPV3X4mnC8RV8XZuDoidgaawbBEBC1MdhCW9qUZfRgrz1EtjKvEbWc3T6mMVHPZ270j9GD3B8IAEMx30Pkn5WYsOsBDWR4LRWhU0Q/raKFmWKp13YG/UT3DfTnzs6fypsnZsM3LJ7NyXDKmIvOOpnexUvI87B5YLqoi86WZ4onOMiVrQeEU4AcbBrgO41C9jhY8SXIAhQ5dvgdCg266bDMrq1vw/PJQ05UcJSa6/wW8vSzE7xsIwU5AX//AlI7vJlIUL7Jh1CH7Lo9yKHEpyLGKdN0AyNCevc48m0gDbwuzJfsXbKRFqdDXl51qV8uToNtJX11o3+tiW20zhTHkVFaG6wKna9ezOeeQ+ZUou22j3RWnK0/QHFwfiDFZ5s33UpJ8K8xAOKRHM+uo2J4tTAMHh38RYTvizMRgDZNEWkIesKuVEbp9Ovc73cdv2JmfTBPSfJnelkD+zNtOYM8M5Bf7jY6JVfA8BPmfZKD+BKICbYC0i8vlE32su9hOZ7Bf9E3Ng6esINxL023b0cQliS98/Lkz8KWprIN/qFzeEsNlS/MqGMOHMLpQi3/Kj2GW/piZXzqgdQy3mxWFQ8ExmAFVD1Owzk6FB21rK0zC12M6pveg5WlFqGB8bQGgw51N6kjX27nGF683NsoK8BA6RYWLnxypxEIKBYkU0cJoxzPiMMyadGSr2ogCpYwhC0eGxof/ioPwO5urqopGMnXo31n20BKSDMECGYgvat9PW3Xy9wL+0FuE74x7FUmXdNuSsWmQRvT9X3P3af3pXzrhSbv+87JyAzkABkI3Bkz180/LITqXu/RLWU3RNExibZbp9WnzkW4o6+ItYUlIgj6Hq1du9vuGAQHKe6QNDDKE8Yol70803jKEy/HzboMwne35XZbXmxU6HLtbKHW5X0wmhjuq7LGQ6FjynPcu3jsy03YRMg1ABeRCmC4GM8PJpGnCfBbLe0zVNOBFJX9e2Qirq2Vi1WMcWEoJroFhILF1CRLLoLS9AjIpwZKMM4UufMlG9DnP0YN+AMGYDSEYqQk6v2ImQH4IC2iBlab73VZ4myjgAj53NcpbfsEq6+eJDKC9sep+/JOyYhtIJuupQyAZkFFmUOHe7hFF1TY6R2xqPGIR9x1Z5VYy/UuytOfYfc6fx/lBWLRc9dd0/MVStA7uUB2EX3rbMGgSU0HdoVHWxpyW9KXZ3ddaEb6laOB1MeOif9FALALb1++IEQgU9l3AYBzD93N9lDLLP0RhyEqI1zO6Na4RXq/tdOLFlo8rLh3HrJaG4hlbkSRCbaALIKOkC0pU17BrmqAq3K/9FJMW4y8YKm2guhqQOE6QFaMkDbrs5iwOoIqQ24VNk28Fhz/IRj4RzwAdbtpngaSv4GlSq1iCxix0pgE5de/1MsPxDSvQ0/WvEf4rVZBKeGsAlnnbt2f8gH+A7UWxeVjv57PmWBYEA32p85nL2BnrmH8/IXgOhr8u96KXDxpdoCiX2xtC8BTsfnVn6+045/IMeDVU6HHc1yi8SyKAzYqBzzSyy3eRqskHr99ibfXG6k9T54ug3dvi9V0zpOUsNydgv4tutSXNT6ehBGGvaAuKQ7Oz32XjyeOkdNEUznqxsBeGoZD/V6BfSW8++IQG062wY44RMp7rbOgEpWSM7pDrLZ0qvkNLf7JRYYpZncJShk3ZP4jm0Xc74cAxpC0Le6mX6c8VVjgEZgJDrb6fVQSYxvZhAu29W5MnXuO48kmPmzhDuuhjiwJslkYxNJ97rqXMcSx8xA8InM4OqWOZ6UrUI0LqucRx2W31Z+K/+At3X/KBbo+unWHbtzLTrd9h2rx9Bdqi6j2xwAB6WKY6Eu+vDBVYDOGFP06fPGLTvvF6vojg93db/FG/UYXk5XxtmB0cdR02EPuBGeeSgy3u1VnKlrxfCXm2IKcki2wli+ID71CB9jTH0b9QMEczmJfuRixRRHI6Q9hMAFE2doY6rWmioIZm4gio6Sst8+59ly2GRXmuUdIhP17hOVpGP4KA1hNsZLJhA0xKMV8ZsJkDWBUHakeDctx/FXqoyVzIW8BunqmkT/eB3fS8qmmwt5MNLIYgpPNINCxXwR6knL9g0HAndMzey5c83DQ92UJmAIBCgqkyfj4OCrfDrsQfjhHGrXCYvFa4UNH19ZCIv/nqdN372/h9aU5OkfwdWVXC1WAL+PLby/nl2Y7QF674wtE0FcEag6PcIRVIanVrQP6EJvSQXk4x3BQsgUEC3Pt/Dgmcu0pVbJM8vm2vHQXF3Qx/vB52Os5SCF9eFLzzTWmKdkCMbbqXSPlxkwH3QbGBOm1sWvGqLjzHOnJ99DDbCPTn28AyPkJgNRqdKWLyoPGobOAT+eqRozVnaxmqeFav6ZLPwvICKnPqzGe9SRr3gYjjlI4KuVgXSta25bZGbruxkhtnfovsBhmlUXMxP8Z3GvNnss+ukcpll51tsprQaKD8zMlbqprOFddQFy3KUwZ0cc+A8Y1SSbkj2c6TIkivoT08sW/vCb/9oVvReJ+sBNk+VR/0XeXUVNO6sZdP1K0eD8+RwdafVXmvzPnajyFhVCkX2iPjl1HaotDUPrw3jD356WLD0rRTb4odXS9QYc0wxGTseVj+LK+XXkzqXZZHXs5c33MA5zBP9ITcr/bAYABZ5SgIfhZGwf0l7OtPgqO0rURmGjTJOEcqGwr046pprSR5MocHi+3Gm17QKNYX+rZohI9T+lmB/kDgHae2d6xzWnZDxOKhB2s56VsifxP6Te3n2ECCj6C4SSMAg6OhaNVgbWxCLa7tgGbdvfROTLIYFSNhPIYPsF+HRT8fztlh1/8b+GFAsRv7WUZ8S0CDc+reNOETnyQyZQy3AmAcurr1nalA2Pc9znJde+24eJq9DzNYgqLwvFqx/LmbynVt31H7i7BcbWqJjG/pnZfaZovuhYDSqKMiI9XS+VUFsWoIOzbuQ3C3IwLz86oI8YOpOv6pxuAjXAUWWi+EtGL9tFs6+0uKOBtAMjWM8Nui3qekDXl9pWdCR3lbhho1L68nOdq24GN3yHAnEyKy6Zuhh5yONEBiiWDVk9hgo7ruvsnY8IKsUgxnW5P2erDzuavOkrugmbCht2z6HfNCsj44ybIaP0BgJygXUrPYAjbnMneufRcBOkhoSRl3V+Wl6IPpDVNbRlFL7CB/NBJye9UWn5Y0qk8QR6A/ZY3HP3u3ovddvMVXXihUU3V6Z1S2BOFSQSmkgkeyqvcbjCPSPbQKJI7W90AftCZGzvVxLSMXUUSLbw1CHFnR/6FwIYtGC22ZzabcsCfbwDyAJEy4JA3yNtltleCrL/wLJ0eDh/GAymgN0648AoMihsOeDUx2fW+vZyTqQI1uf9+725kW01PNQ/t3pQTPFcC/6vz3TGO+4E2N/06PU637Mjr7961HUDdePDeRu7gkES4JIBuo4fwVEcm95UdtgKp3Na6jNTYqewr0RyRn3jqY0fkaE+9w6cvX97P315fU3h7+dCmS4BEf6Ola+sAgpHW9bq7l1DudKbiM6ZiNEg5nj3uAiFcehIZgb0XOQYagqZC9gxX/rdQgF4sERRkojLc7vd+dhPeg9yAhWQLm7VzeARWi6IRQzLoSqsUASkNZlaVW3M4//61Mr/TACrqBPq3IJhLNgD8c21YeSG0JyyBoayF1iZVztJidxtrmbt4q+ODHCZ4CO97V1i8XpG7QeYLhsUug9ZlhZAXUlb+58BIpP1oMFn0ZBIUbbVmY2Z4AtroNnx9KYgexsvx7Wl6Yt6efzBRMsT8MKJmd/A4X/X/k9YMzG3AJcdPSZCc8kt4GeN7eHm1vcAmV/xZltaR7SbeMLgJ3pDgQN736tJj9GWdTeiCTxopOen12GSYrNX2itXuoNKhG87MQ6owW619+EKSEaxLWTz7kvRaTmIVJSBmbtkwb2rBnDu9YWcpVGahCQ363jaz/skGYN31vE3sAEDOtLARUt5fDtZ2wzcjbQc24wKVBWoh943nqKcMy2eylbCVvoyeWZ7h1GRmBLNifbmXe29K8AB1tIKBUQr+/naSGRz6DMXGnRFktDYWRs0+GKFcbB663D6GQsfFMViY6AabzMDCxnjT89ihmccDM/MjnDJFfz5seUMjejQumDKz9NLdwiu68CGlIrNiL0jHjpAFtWMiVdZJuY5XvlEmTu4BRtp2I/zvaAgv0ZzXTe/Y34lG0BniaK9ZoBON4XS6RDXbZDCaWQBw5c27SFVYeaVPMzGscfKmMw27Vk+uRQqBten4QYGsYv7dFvA7DWCwjdboVHzgECUEjv4VNzPMDDL6Z5ySid7R4J/v5Zy2O/zbPfamgDqc1TGGWQ0hrySyo571uZzDPQKejQR40gEqdHgRCpZB7C6O+35fW1sFLw/HxO2cUSZQ2i7XftJxpeKiA3ka186gH334pdPH6ptlnT2VAUChPDutnPoGe4uzR3RixIvgaJjviC9e/v/dv3dv0Xh9TyyTWAK6DBmQq9vXh5Fz01lOcNoHEJuQS8f3j50+H4vWT6J3l12O8inYCEoMQhvmleKTwkZoJ6WkZBbASGhi57QSUTkBONQIrJF6YQOgZz38M1fbs6EneG4mHmMMgT/TAPRNOLDCWnBm1dn0olBezgpfhYJ2Rf5CN3/0jDlOGy3YLSN5YXQMpSrByPtrZrJiVJIQyrq/PJ8dk382CYKrXYz3Ide5U2695i2T34of7v29bPIFCtpcSRJv05K0yr6c6ls00hWqpM+wn+NxQ8rJ6LhC1/gXp/v3hLBhbBJv1qIM8STM7HJUaHv415fx5r/Ex3O8gOJiJPGlO18INNiJ7MUWR8vcb+l2j2GxuKxb73Zle+PNCKxdNfVQwZsWEY+OnQAMVeFr7PDSiH05LOLrkekL0mi84xd6K3j5sUKsV86nfHtDhg/sN6O/0ExgzSSkHf7fQsCfawC2R22ACgon1Q1WCMa4i+kBwPXzRvY16n6ywfo1m+SFjbmwARqmkFuHXo+YKRs3Otef+2jFI2CwNUwp9VCZUban9BAP/dStcgmaX7uXDvrVLgD3hj5vON7w5p212nTlnzoCqMFC38kGet4h+54Xbe95zWSFZR/H5cVc8UFXhpQM7/4U1lieXxRgvty+CFe86MMUTZYD5XKhRhnN0jmYyAoO3e1FbuoWT0d1WTEnvqSXh7IVgfsxms6EvtX5Rl+X8w4XOoD8btlsx/wZ5T/cv3xPNQ5KpXTKimk0q73Jy3n0x7MtlVDA9VlXiNW2c4i0BgJjGtXZXqb5d1rA7zMAWPzZGMnBnJGJAw+MKZgm4LUoq+ACHgSBauMWDLmWSS80brM3QdZ4Pob8eGYjtrtdaeAUb+T5SK1Apz1tzlLXB+KVDevEJ2MAR9qEE5QzpDHZ5k4r7OomP5f0bj5g9y/xtWMR+xH1ye/CErr/SgLi078FGzCJoftYOmJyMzA7ZTasewiFnq5/yqXcBGC+HJA2TntlEP/fgn+lL/8O72dpNb13+ia61emx5/NMpx9v+nB37+EKozUjYyujP5wSDBZF7OHJ2pldGafONnT6zoiQYwBwoCmbxBf0yW3ATYmwGcclrMF6VY+eoC7b3LLyRFPmgX0pXBjnNs/oyDx+rwX8Tg/AeQ5GSPhkpFysMOg5YZn1+KqNPfvzJZ5puq/mM5pVj9YzuBkNOPltOkTOmMUeff7hXh43cFB4IqBAqkT7RmA+sjeko272hFSd8AFBsNJqxUY9GNOb7varQv2Y9pa6vVMGNrvjTcbwUHyNyBA5p1t7mMoAW58R7n2Do8Xgf7hRfW9QUK+ebycA1l6YArl9aekNYMjSsGvkz0qL/OCylbGrp8ut3qZzSDse4eXl5QHjpPSoIWJfizE+9VULBhb083ee7iVlix0CCU0OEGg9QDuKYiMsdCJnIFvBKprRgqmawhIVdEaBB45wnSFbcwG3S5oJvY7ft2b4dxnAajugYQJkkrc8BDZjM9nH3E/9GG2JVsiVBUSX78wxhfKhdCy3oUCsF33tE2WkwN1z28tdcQ99ZpbwKVd7XVjxLmzOXe3CznoGXf9wO7oUpvuGCzig7hhpJvlxt41Nb5d4YPfc+p4GIZKiOoH9cHBHFpTYUjx4rJ0/ntDAW9iFwOQ89JzPcM2hC729+vBF6UR6kQOgFjx2N2rFo3XxWywHHUhFZv+sux6434ewxX2r9YyPffoYT+2VxSpFiG9XY6DBTZHbpuJZOhsNEkQtrBxADP9qUiRbkaEs5JbCeh/0/WqwORfBC19sn/CDqdoZZVkrwLNgpLZss+J63nVmx+yfZgA95WY4odfYqru4Iew/suarr1UmwNa3KIc4xjqvZV1nPS1P9B+aMwk4/QBxuMbe18w0KOzCVWnhG377EoTmUrxYwFW0fexBQZ2WfDc+Ifj650Oe9IW9TLs8w76/71R7Xne6enIS8X7X0/fxwcAGNUNT/hYQe17Tub67gsfbk16NXPBxnkQebqIy8hS/dK+wy3Tvv3S/3XSt0XbgE2z0l3qlLyiUKNjJIe0KdSX168PJmd1sZKRdVuBiHQ3rhVtrFCyUGwo8w1aQ13LoBiz+IRM9XgUMz7eOaCUb5GVQEoh0DghYNdpcCOun6XOEzdMGMlk+HbrXiQgOZJMNGBQT/iQD0J2vbhquEpBOlCKkLVSzzajVxn6N2kqrpVPG1lMtn1sjk6HEraNm89e8yG0wQNSy7UrONFSHo6M806zton+87jNRPHYuv7rFPXXqz2jtF38wJ3TQ1ClX8x2sAPFPeHC8dcfOqNcQ5XvLfux5p+MXTFfM9k1APFhGU6RXkD2eBzvfjGfkv4DfBfRp2i26+K9Upd6/fBl/EzZ8VWYncP8i32NNBNKWZLuH7bR/U4JyzYugdu1p2pQpGZ95l//ypVHgYybmsEopiwaXS4ogNUbQwPxLZLqYxRUUBfduPMxtISXUbKGgvmpFRcNK7oWifPlQi2G7zDwzLTz/SQbw/9D2JoqNI8fSLlAoYl9IbMR+3/8tb3xZIKW2fY5n/PtoenpRqyUKlZVrZITpdRoKKMhA1yZrCb3l2O3KAbYmMyUQp5KumifjN4EsnUFttI3ryEo4/axLScyoH8424VOyxFfMyN2g92xb9mV+b0qyMTHuVOZy6e/oxeI2QLGdTsHAmkW5uyseGAwam8hZVovlUElU7lsEsa+ZhzegfmbbOyb41C8+eZtcnx5vj4ZXkg+ZysFZF3+gd9T6LT+eROdScaHo89JlbaLDrZxFC4WnUunKOXJd2TQNBlAfVPj65uI4lf/f9GrxL+OyX3tEfxglPPPtfG22jqJQN2UGU+0ZifdbecY0BBQFSx4MOqqw7qoebIx8F/rFEfUAygNnUp0UZ4YTnP6PDEBZh8EQKTlN50sn75lMbLbdbRww5Gu6osmKIwTGrKoBOawupXk/7mOLHXD39/iMtlpGMkWvNKogXFRKdNGdVz0Mqx6zdRMatfR+2df11bFlyVJIJjMbin5cbKnKKUj7azC0cTabATzWKQWwqVuDn2flamfq1iur50CNt/Og4eOsKqfrkCs5PxgjF0oMi3iA/HMobSlYL0opyHDAHnAWpW0uACfskbpLSmW97l5K12uskI1lZSmOfMfSYeaT2MaPBvkC/BHrn1kBiMuM5+wzzNrimbVkJZjeAJS1sskscYYKBmQbXWfEwAz3TwYmv8CCfm2BGVnTjtj6f2IAQes37eAF8+CBuhpGrSYKLMd6fauTu0U+q0zca6JdjmqaQT4gABpjNIR3nJYeeH2VMutNRT0j5fw8NoO9yb0v3IYSbJzu5aKiLrrkQ7OVCQJnYZPazHBccamq83Ru3pm6JssGNHhp7PjxAj1Y8Ho3lZkjXkDrO3BG/UyXAaG/pdSXBLutizf45GCCoMRQhWCWK1IcRVKp6HB5omSARpVSfb0s2+jtrWl1sjae+FK1/za5ppbHP+O1kYWcyATgz5xXcnMNwFzIBaG+capcVd0oi6RVjGOytYMjs+4BZUlymmpiPdmwmkbCGDemOYLvP5Xzs5CJ2JYSMRVayqRoEqWkAen/iQG8dJsfcAOzxGPs1bv8j62rGmFruqVM9E9/+HLXpXaGZFaQpE1I/u+MX/cCnQ9Vqi+zo1NeX26bzmWJo51NQEDdxvRwsKCRGYeiCqH9qGLlf/rcuub7yBq2SucM1BdiDYtzRYKugJztEmUmEA/67KyyfdrNI2d0XSgt9UWqnOkKAwJf5pSHDiJafRpj+yqXrK/m6jhUKkLxUWRxoUKwUgTIS/g+8CFg+KgoM1seVfmb6Ec2PrJTtiKzW8lRELZw13Gwf2CElviPfuut0QthwrKP2WIdopikx7YIFCJy3Yx+jnt5n/56RRmoEGeCiow9y9jG7VAE6IeCCYQcaU2r6KQhrMpq+r8wAB05GyjQ1ZmsFcUw8gW69VEMs+/jalTslsnimfVAbOWwaVOKguGONmEP97WSGEQ0vC8jqDf0T+SHT0hFAfUflEPM/mJA18DCdgu1iRxAbopiO5D7HRtKaKTYOFCnl8W7XKlbEp++VvQDXllS7apAcCiHqgHd8gEhQi7bjS5iISu5GPfrPSQSzJlyaz/nOnLd/7zPnRuKSv/leQUndKXqEIOhZQC2KzsNwuvQGIv1vx8aNKYU0uTaDgjnlNRuJisb90BXZn3ne4IFeFOVDcOsBfSE9zNH60pDlxWlnpIRKZ9QEXPYJi4mg6ek6ibWhkCHMYVmBZ9VUTh2Xv8HBkDiHwX4MbtBLAinXdREYT0tNdaoB2Pxs9Gj1423tcEYUkhPrrrtJo/nAoL1giK1tiT4PDz7xAHzdNnqFKszctQsTuB1j2uhjpNREXj9csksMtNxHvY7t4tLHZYS/cgUyrP0ZSl5VVXcfqbquq1jvySUfwfLWkCI9GrkDnp/LnaRWevTl8Yn9HSQE1lAnuVxVcXFlRWZMoLzKLZ+GGjXKKhXhiUHsw9GkDCy8c+QS0trnyk22nnr/vtFhcZ55FlYDHGwGRxslTm6Bd4WBgHBuV5JdGJ589W6XAaRJdHkki3zZ7eZ7CgnThYA/sPKr9rmMmTmdbc15ADT31gW/zsGEApAwyEbNRQTnhSQJ8tWk4neyxY2r/wv7bztObMUiLMLmpmgJU1HOaVzoMQKTj7VxtSGBrMDcplZ34wGGGn2kZTM1dpujtPUIKNocdR71uwyCSgldvAevXG6zAsSnbToS6MGmKoq93wZQEtHT1/BgRhju0zGdRCMTSJOWZ2K/nI59ZkKxsmV6i++tJcryIqiSIoyyp/OVW5WpZkrMVfNmdOyVFHibLkR3k+dsTFbPFK707qeO24tY0Ilb+4hPNeHkEFCcuzktUDP9w4smweweG04s9a6RnL8OVFKz5SXbAyLJqt+RV28RSg1bOaCUxOV1pPvjEW6g/bk/8IAaDIYjXfd4eNqepCkeA6EYqyCmI+otzeb81DEOradaRESuSIWq2Jjh1NKfi5xwOvuYC28UQJ6A1X3HDrRDnFu5vPJoTsCkGt3jPS5ONRy46h0wbF4iptA60tJ3jJUF1qPup5Wkr23s1L+vUbu2I2oqc8SyDpzGEh1+6wnpJhu40FFe9Jw2U9Zcf1zEJwKQKpPsrI/lqOs+qI4ixnJ2xPqKDOAsEaust1fHU39Mvf1yyTokmwxRUClxLmdrokgGxdkfPaQ4xsngKojFtl0/6ObofAyxgDLSzD5KIV7dovSi+U7JVLNhhmwdcdILtDHU5NHdIxpC6Z/nTXorxuAwsxWG/oYyXe+PmSA8Koag1VqdWFdvx4QPkUunU02muV4wPe28upiRCP2AM7mhrD/dLAYVTtTBORN1WGJAlcyLHBDJNzcrFQ84DbIk58mHccNiowvltE+W2T5uS/KNmKjbyuzwP/xWNddsSPdrc+TLYcRDOvfzb3hfkjHfWlZGjFA1pArzy9xIjIBfUkryWSEeRG7NmsHpZylosRZ9UeJbZwAfMCwoo5nynPJucr/+7k8o2mNMrqYKhROLn1k88rDL0nJeCKMRWA7YpPO9gB10mgmxk/CSjwy9NSTGh9nBNm2P6MMdsXL8urNpfQFWa8HmIG+PDO5GrqAv44Qj/56ETjWWzoaQymMMOi9Mg4co8i0MNlWqmtHJFjBipskFKPfTNkJpTApMNW/36HdQQTcqIUNz6fzC0AbWjnHrnsod40TBhqUw9GU5DBGlXHK4lUMiH+Hrh34p2eNUBecjRBniTTMHgAHrENX79MrvRjxMB9wR2sbJT6oNeGMYfNT8M2hdfEti4kA/XrwCvo8UPzFFc2ClgyxVKVwxoXywkJ3vDz6Kix5sAqtK7EmqoLWV928ptUZ8+SuOuStSp6PAMuWbW9KCO8O9IdGGe0Y1sHkErcTjiCK4axyp0pVxcF+ULgapwcsANvJzgDIEGPbugDdICwzsi9CRVZHpOlKCR5/WWH6rxuAuRn6QLaKAhita1xqKSsYcE8SipaO7D4dN05ajqFndwK+c5ecugw2rDHGb8iR2LU5acMa8Mm2oAaqtOw4lfiBATV2HiNcuaoWPV8j3ghr3XIBgENlPtXhbQ8gUQKwg9nFg5f+dXfmlA/WPaPkNgb6WyxKLufesuzTEg1llNmckxocZJ5ACMqqUoivUAHq8+SA9EcRybWyuJidfrgl2krnY+5czkxnkhrht168Vwr8CDqWMj/kIWZQ/wtNJ6DnEUghOthgQyOjR8KAySWQHXT9ru81DxJ5pT6dpyfIGzSJPijxQLhLRmjz2PHBuiAXk9kQIfqvNwP/qgGYiMFu3R+iOJQliJldJoustC7JAPCV2U57knOxF/lGDg0T8Ztdd/APrGuAgzPNF9o3SMHHQQkAdzoUuHogVSTjZGRJlue0yI4zN9y/qmPF4Pq6loRRgCVyLSuERvOqoHGqXquqfqcYnCgH2BuIF+OnZTfTkIEBRGQEMHRql5YHXhxVeVRZmRSVbPColP3pClbxscRF4cvrUCSIiyHXiR+sdnvbZLhYMnBXasC4TB7gZUyUyoUvZDCtcYuTewLyglHSkJPMIWJfN86giqwUKxkeFuKcLKvKrJ186PuGMaiTeb22zasccKZF67eyQ22EjJCJq45mM5g9neDrr8ND/6oBKOinL6sB6UKiXqJ0o0MviB8R2ibp5LakvBSS1r0LbCddbTWuPnrHZpWNy/bPTaleRKSDbt8FJQCVcDL2HcZfbwsYVEwLQRmQpt4zwL3te/nwE3hYD6GA5VQ7atMkgZiAjVXxMEd1ZONDB2D3cBov6/zG/CMSzcMofT0VxRE/SzxKmem0DzII5km4gUR5qJ/1F9XBiCHZYuMrKfPsWpaEtf05aZMA66Z9A3Odir1sfAUR0xpQx6W0WOFqt8agrXnu5QJzpHFCyCTXhutyqRg00CoxwLE7kJgc+WlMhODr4z19MRi3K7VlLCe+4GMwUOhorK0Q+Fuxxu+7/6oBBKmaIF5M9hfZKJj1UAdcfUPqL51WX9HeiJvJRADJ7wEuQXCGLoLjZ8+j2hiFOMvhAsp7gZGTVh4UX75MDidPvnM7k3JRvqUzX+Tq48orDdPjs2yYawPt/BUn9NLd1dMyOSw1z2K7Kn7l/MdFrwU5WpxwbAotMNBZ+p4MWVypMOvbfChzUOM0e5UGLrqyuvhMB5M+r1SRFeCI+0qv1MUsDeSZZYR2UDojVmQOnUy1m4DVwz2mqeyzFXakvWZ26e9VRbkt2A6SeIwavT3Qyxl5z7hHtJbg0Ia/wEaeWX8GiVl5Ml2ec1tNaFDfGZNRMEGbM/0QeHo/BMLy1I//rgHA9mgENaN7GEGw7fWCAlXxiSlEL9lhE73Lc4e86Orht9gihIMIjSxvXsao5G1TSlGdspaluIQLCwaMEX7OkCwz96/CWS6ghBrSZIMgUDhYx0E3mGER7BCGGx5URivF3nEAB1Aw2d2a7ZmychnAi0pcj7I0zj+4/BdjgcNSFNdV3B0KLRXjHhV+lQK+7rW5pPk8dOoQhVSDisXqqc/RZknhSpmk8kSI4Av4vtzBllE86bs8svJk2f0xxegRwoppHMBlqPFKW0jkChuN3Y6IYfNYo4erdxSX4p22AIMKvTZDChkRKazq7NlurpletbzA46ZEV+an912PV9rgBEZGAgyE/8shwHhIQnXHXvhmzGAXNUCngtRqGEhKdveoV10EpawR/E2kN7s+hMt6Hkh9MxpHJLsPHSGF5c2ZMlR2OGPzoPrd+1P1b89QNUuWbLA2XewHUEFGntKD6c9sqSuiEKzolBMMMvDfjMZQVzncTQutDACmVzgB4Pw1hm8uu1V7JSDEI69Kwv2RLFYF6LRLUslcmd5SVaQUz7jN4f5kR7EH+nUWTr8g/6FPbP1oxvKpz84KPAgeAFWiK0rgrmRhfJ9ji2snBkoHoG6aW8PMqOvpnO/I5cRGe2KthJ4OCV0ChYCb5lBmcH657kBZN9to65dWkskI6tj0Bf+LBsAqeg0/MPvc7+gBE5zRf7GkdHZXoAfZotM4w6NHWFeMlRG+L/5JOtL53il3TSobQkwihaVkprBjTNDQO7iLJeDMmLZw+3paxr4FatPDsXBY45eTNG03JcEqDEsmDnB2MkuK6/BAFYnCgzW2p1BkZu6SV+cULd9nLhg6g7ne19Jr4OIR/zn4cnDDHidt1T+frsqNr7LMUbGQUcgFQGcNrZwiC6svxo+doIFz4QGCWPkjatrd9CbXLNuTfYNempbQ5YJ0aZCuMzXD2ujAHHvCu62UlCaP7E+jrM3ch/b21b2mBo0rWIunqLmaxtQkbGHcSgBwFv89A2DpcEOsrrPNh9S9SUQMgWZq1nWjr7iOxl+NX09RQ4sAPu60DTDHBkU0eYPIdr3vLZjeFoppcMOlq9wPvpwSTg7aALGfF0pD/QESUJfRNaEwvpSVs2B3whtw6bJfCR9w7eMCJKxf9uhCTHq6xSCnDtAEiYbbdSyNabskZIl0GhTvj3Kxvq/cDbl/edANPqoqq/q5Sp466CIGiDy0rqjkCIa8P4s8rvJkMFoy/UfOto/AMht/nifYsFuLcnqPNVvoCk7XQX46sO+ugvJq3gr/D5M0xggafJW85aBYlthsIav8ZeKBiaxLFbMnDX9At5C+apMtCKxnK0KTjGTS6WFzgbT7r3oApdDEFASryPo6kwmsayRA6ALT7aUHFOueyzGkG7Ne2AthkItrbx8MsN6Y3Ea+Edy3vH1NaqCUDGJH5vk2J9lJ0liZaZULq6w8fcWap56wzYl2nSRtAuoutkgyug/7QtPViKTRF9GrMkUIDqAzTQDkhL8SUg9msvBA6piLg2oPV0DnQaVjVSY5bYScRkSlotA/M+X9cTtQAmRF2cZFnvsiy9srnl0+2LYQG0nkpZnhIqso4IOCMrEOFlWAJTaOexv8xkYJ2Zhe0S1iKA+g//XiOmNUjNlhYnWkN50UVgbOrEQzeBwD422qYOMYwAUO5BrlAHqx8PbU0YY/+G8ZAD6FFSTOW0fKJjg8Fd2I/zWdR0/YjRh8dNuqDzTsN31i1OBJbmQuSoKZjEWY9mbbQUrfUYUdlVfREff+9ORpjFiHKtlUHHicpsrAIj7mPbYRwJkHQu8DNhhwHnSkwlKRjfkM8h+5oARgUpDTVxbgVpKc0rV3SRuXjsUeJQPyKEQF/n/KMCw3pBEkcwAW0uaFixUOqmFA8GEpcmUhZT5WiVUkCZxGpz/l4VbmdGnjLUMLmtXWD7C5uW17ZwZl7xUJtuajV0wO0Jig9RoiAkPimz1aTsiZ31OmeW7TK5KpQdI0TRuoW/qpFhPqaTXlhSjVPe0ao3H5rxkAy2Dpg8sNJt3rpPW91gT9DsSdl9HrykFbD/Z7IhdC8Qnx4BH2L3YCIiI47OEj9NdbGP4p3iMcSSN16ff9yGwGQkOwImuTC4CDeTYOP12EI0qUA+ZoOPhQIlk7Tw7G96x6FXOSDAmTncu9Hp+T/4pD/9IXXyNr+yWh4a+7XsScNq1frK2UQRyFVxKau2f8zHlnqyyxKi6XKy+okrItXNWWtIKsr3OQXUCHkl7N+lpNnuwjSKs6ZDP3cAI6UMqgIKjLcb8uSgC9preJ2TZBy7IBMXqBjOtphBv6KIk2r2tdg4dM0/4KIIRNVSHsCyArSdQ7W90dLWcf/xpzaPQXMkCUASIIfRRdSO9ghDZFE4p9xr1K7pIaYcN1hESUcZQJxu21uSLZxqajShDiMxqRXuYRB0Jku9eKATRwLsvwe2uxs1wLU+ueHXtCS5Z3wRjrod3rDRZsmAHAd4bi7RWTy4Pf7dHDvCnXbw0x9vERCUEscG0aJRz5cZTy8RQH2XKo0rdwYP5f/oVGQOvaKy+G4nDy+XlRk4heybPyu6GCjy3xVTzrtUQgd3W4EZk5YgJBkkhnnAYL0DcD0hmwNEGu6T5+SQGgCUXA12D1S33zx0NHQLdSHu+kefCaUncmZ+qsm7CxINJdAG67myqMLlBIu4xAcvqvGEC62zaIEkBYaNgDYdZrMq/RHm0xFIHyRePjBTaNRZDLGgVGD69/Qu8g8onyPGdUaL2zdojZgf7fbXXLRoQwKMW5bhXYfsYjQDdza9yYe2f3h5Wxy/UGCDxMmMuckArNA6a3rFx6F92x/qMQuz4+8oH8qQsa4hkWBNiE6KE4UD0Pzn7R4RfKCfu58M+8yJ9trxzwWcVVnOeFXEXcyim3mV7mYO1b1ambcZApDVD5r0dP73kKCUAfjG99uCBmYIWL3OLjk6CuTXiR0/0q7zdk1pxRTYJ8hxsLYOCusg9uWVPRZHdQmXVG0qF4guR0Z7Qt1g+MEBp+/BUK+egvlIC61XBB2j6QWYAzgRcgP8r2I5hL/GrGgVIkStg4CjYF6Bw29XhmCTMOkh/jWDCyTOfDmqaJdSfXbN6ujW0xJ1v8HMMBliy06Y0nxliXbTxArhg0fSDzMLx0w+eaS5kWGPVbHM4uVXorBd73y2Siyb67xAYN1zMunsdCwmfNXxIAJ3c/lzr8I38Wg/P9s6/k9wfVg8yES4MY9VDdzYwpae2NoP+2UTVZn42vj0Bl3JsPWKfNiEX6w3pjt4xxE1TtLQhgAuYIbv3adYRyjurXb61SW505NAfyLI0toSrjgJfV2V1EoFuFI91AY+0x0KZcgL5y+l8wgFcH/UDdTWwBgjxB2J6dtA4ZuMgEsCGEql9En5gmcAaLmGvAgRgsLDrxffRfAusdGxj+NMbOiw0b24zlVNkFwEmWLPKRAx7JrujqidMOVbbjpGeUhNVuJJ1I4ZUJyPPAuL7+Vgv/nPhHMvrOytc1mMHUsG+qaN+WeVFUenHWGpLNQRdYJF5ZvrL/gh/PqyhLvQ+suAqCCvlHd7LLEy/7aXRPh6tVC+kZJEP20SbUpe/ur+vjzlqZcfR5Qc0avETzXt/N4/HHy5zWKA6sg7r9l3sXPumjI8EA6hOdscMaLYgJ6YFyCooH7NyTDpiER2f1YvcXgsC/9wAwl1mFgWAdPR4Tg2NNmf+c0cArIa9JA6/6GmW0G9tTuvn7ZcS2o2PpRx7NHgNc2QxCdmdofFZxXcLKVtjanUvv82SPWA8HB0Xcv2Bvw+Uf7P4EOS+b4pH28w+v10cKcApxf/qog5Pzh0Sgu5Os7g7NU5P3eZ7o7EsFfsC/qusVEQpQn6WSyaqIq+J5KQAM+VkVJd2iZ1VkybO/iozVUoBegX3ktFU/9jya13i/DJ13ZDmdvmY5rq7xUaMvPv2SLycDoAVw/3kN8YLX5mRayIpcKF5sJKw+KYlt8pzGwcaauDtNk2GLUGeHtCUcvrGvddNKrfj/bAAhqnSr0Q+EvUBVomYEnSWEo0GD9DAmFK2VBcQe5tAL4ALbiySE783QPoffbKXK2RTGZdd42kIGi/59UFI15bY+B3RN435xbP0vkPhWiHJZC/84TqBCJrXEQC/ernT6pQbZcK/W7nb+Ouw72nafWxZygsfaUzIoqqv2Kwt5gaPUERfKuIb86XJGQMXSlslRVLkrcgAncfks0BCLCxMnwUW7IAyot/dG8z6q7SukD3qbR8jt+7heG9XK9oWt9RuMNXQArABcf7kpxYz16gtjHYuNIoWNUSDDDJijy9IupxCMC9Ajto2czsXWApymDgXEiEUxmUH6/2wASLo3qgPGd5ee5ALAwUd3bWtny4GwE3gDN4FRAJ/OjpgysfoKSAFYIHfWvTeCNjTt9EvOsO8DIjszSk+j9sa9wwRrOgBAc3XVVQj2riwPuB7Onj59bI3VNdJ10tN+N036Con+nUv9Kv5CXp3qPLo7HKhKDlaw1nueD7rkbZUXz6fKgufxpCAsCoV3Rf98Tqpn8nwWZS+3oHogX0waGgr41pRL3du7JTMqCwMnyyY28Cc0n8BA+k1fU1HeBBGUxT8s418/p72Gt9ADaD5S1qZpDqgYpHps0V9HXx5lc57KMi+QJAqvNMACPzNyXRD16hhu8niygEcUPVJlQ6//RwMg/2PKjDowy73dveHrIgvv8gM7EPgr0Y3PHOQhstFs3NihRQ53RBqQxhB724m3iA1BHnJgzm7OQiN/kyUMbomWw2cVIoGmrUgWxPDmOBQVXAUGD/RedLdM7gtkJd+0Tj9x9Pt8uUvrpyR7pPy7xgawITUvlyqv8rOPB93wZ6W3HE6APJmhg6oU+guChNuq55x7hYTyadvjB3tD3hgMDKGiXKbzphoVQ4gXrzEJoDyaJRvyBRE6dhse3141ZtBY+4eXryxgvfuBj+mTtqxXaJgbewRPLZ59kzRTSvF02l5oCn04RKsIiUIjRIONNC1V/LUBbVevj38nLRz9OyjwBGsjzHAUABFKJTI5hOE6aCFiXBANvn7bu7ohDWMfRAeqpA3ogK2G1UblDXCHBBAYQBIEeg34qL86Apvvme3LEDPpofaj9DOu7dgdRvVFHFlUjHd3CRXu0id5/rnxzdcDTBiAfWTXfYKu7mRovkxRsgy6/CWEsKrsnzFdoNwN1VFx8ooKcVm0cgF5UffPoh/KXLHoWRSyBTDBMdM6VGZN18MBM+khzHSJdTvkGPjSb3gTmOp1YfJ7T//s6D8m0Kyft9tw9cr31jAse2nUspHy3yTCuhITTfQQNDBgxyODrYWgyLOifUYmJlbD4NPIQzb/TwZQdy9VFg/XoUw3Rnb8yJi5IP54guhPoYmWcawsDU3pdm4G8zxDcwe1MLhyeyNNs6kcE6DFunu4+IXRTEW33/BBbs+GEyzwMYMNorVjOH6P9FrCSkgXmmzBmTYhrf/03r+/2O3/ltgfn/t420ebB1CtFQ1eSeCzdElelMmYt/3gcmY/SgnivDryMimGUSdRlEd7KFUtrW/YV8thMDZFL7pGHjgb3YnsMMZXG06zzWBf9X1lto0U3S/FTIBBUHD+dvahIdx8A1eTTiPE9/4s0Y7JhuX0PnCrlTrtfoMeDKCN3THcAbUgU1k56A2suOlJGJPkv6kEon+DBESomE3gqHnUNgvYjKeCWrAZqf/MEOJtfEwpe6mvSRlpp4dlmRGAQU78UhAI8q9MX+n5of+tC3TSvEcf5KBJkFhQaHW5WqBD+SETKK3nl1jhD3VUHH08ejjLMFL/7QOm9eev0zBvobfykEPUB7+Dn7V8IRrglBuegH6Op4e9O1e1X1SK+coCnlfelsdeLc9CH5S7uGqVJA7HAIlEe8gdOCtEgo1ebPnTxzDWAAJebC9H5kFD6y4I9Wrf1v+x5u/bjOBhp9/chnu/ulp1gLtpDVX6RaqbafpHtH/ZoxpB4EYk0nRkoq32nvaPLWsrLzMlJ0Z3/25VNPp3Y4CGTL9bx0cdVN3IBLyKjq0Lu/9kN+W23T1/ZODY/QDyiUcfjQ3t6neKJjJ9u/nsY1/y/NmZgILXuS5ZZBA5H2WmuR0HQFxFbWi4YEUMlWb9eUTr4260h+uU2vmG+fudRn3SQOq/ifQ/5AwUgHrkIQe3H++izPPnwmknVaE8oHrqz8+seOb6Y1vIGvRbCr8iaWUGRQs6J8mqxWeQBvblaayCcVhhjSuOHSpBZIIqnRivKFKMKN3d7LvxH02IBnbpcQb3RHD9OgHl8ku2II2J8wBBcO7Qx9XkmexbsHqfjtRZZ4cy8xXV0DTKSW8BuaeovXWNkUhH/7EBMGVGGax2rvYQkQXFaqWCTVMbDh7GAro+ptnOV90ALl+OPEVp7HXZbM77CO3ELQFCbTVgX1bXTjNtsS5QGe8DFNCs6jAn7A0+3Sf5QQ0IPrDH+0LyFk130/QTM9fQTZ/s8kwhPQy11p1aNx97eYd5yx0aZAf1HFVtWZaD0r1nUhzPXRFe7qDI43w+hnZoL3mp59OrCJRNOFdUtIqU9BtusD8uuSQaiHGeDaUMRd8WRASyfdO7D3We8qHmE5q47+Gof+X/7zsOrPfg4o0B1MxY+vk8gVCRbjiDAFYKsKAOanelfjw3k5VGVRAVFt18BePJeDzB7F2QxqTdOP2nBhDWAbvaQKeGP44aasuOQLMZILF8d0r0NxX0sP6kU3z60OhHHdQdjH6Z8UTZ7sdbMI9OjgMifMVBSdEQP8A4LwU6b9u/oC8h0GrjmegATZdJCftjfa3fTNmOk3K6+TXp+zgCxj7TTwLAY39/yqz1/lX1ST6USvDaWXE/Id0rWDRXSgD046mKoOCdZZm3hAXSvmWH02Mx/DnrQfinmCWiLM/QhB6YcmZxKfP/hPy7vWOTn7c1Kh4WA4JBNGEcZC2DMEK0ghbKcVgxFgAQp387FbP1npwqtiLkmDeI4mKFYcRPo8s1brRGTGASi6x6e6TWwvtPDWCajN0LStBL4QVJWMiBNzJB4/iz1aSOAb8H41DXr3RnNGIU4cSpKJDmM/p1Rt9iRGvesttECS6+/jDOBc7YDf14bwgFephq3GFazVAPYBML/vU4tYpvCtf83UzrZ+xuBfSUfprADZO/Ty9IZ/1ofoqHuxOvv/bFoP909O0zfyZX3ssE8mebl89B3j8v80G3Ol+eZItVmVUYIqNqYtJRliQAtIySnN69IQVyiEstHxzDuX/D0n3Y3xogvBLzYLcH+AYxXaYYwQgEsGCZ2t7nAfKvgR+HrTL5X1at3XapgA7qa6CCXRTIeyCTccwD7Jzq/9AA6iAQJt+PZcEH1Nk0iE5wF4QCKEJBhznY7Ot0Sq8xy1SQqG6xYa+JOxkJCnh4TturpgMa2+cemRQ9qgU+7WMej5096iTLadEjG+v3sjXOnFhxVOGgMsLw8Z6ZWki3ctoS/uk7S7tbwqvO/A4IlgOGGVDIw9YQNKxHPIw68qI95kLlX5u0eZsvSvn0GqtY+WFScPW58nMyc+xgDlCzSUyJznAFUM3zMuO8zLK2N10RfffR41dT6h08fRgBrXfpx/seNx7o46tCRjulbleQPIAIKunbo+RBn39iYZzhW8xFv1YgAR38G8xlIOzpAlcADlrZ+hrddIz/oQcA6Q03fCOHEr2BGmNrBgzhhkfOFGHdNW6UoNmkj1xXmG3ZdIhMMsCx9QlCHMb+S5FdtgDfi4l5Ms61Lsc15GHH7rhA5/SV17PMe4a8OI5ED5y5z9EX7uim79ikWx/Nr9QvTHtTTn79zFeijxMOLZfbBYSWnEEDHvNV9GPVk/4ZDUT9LOJCCWCZDOUyXEyKWv2dK+IhjyuPesVgrMYHCgaHoj5j3sFlT6JCj3Ub+YRi9c+ltnr/HTDA4S3YoeV9wReswS4tR02V1I5+Z5+E5TraOutL1/E17pCgmiY3wxi2rmkBpAxdHKsb0EXCHWs6TEYaAFDo8Z8ZQBqowGpowbv3+yT+j0GuCJKQrjPlSChqlYpk4wYtMCzgRAtk40kBRySwQ5Pfoj+U3kaLTmpM+XRcC/z9iD5eVhJmfUVVNTtIegCI0RFKyuFgNaPIhjGcdOgB1Y/12znhSLv1nvjfd6/5uNaPz01vh7HeOcPrsS59oXRPSQBEADrqlvO/6BCXZANO6WFe7DQAIZBPYBOW0SIIPjyPDNHBsjryPC6qfKDD4QaTMPHrr77Ep93TfH7XvO/kv7Fu5QcV+JPBTIAjIWDu932nnJ0C62q0b+7Nnt141Vvn6MmZZh8Lex0oHLI+dsR1Qo5B7vi/LwpG/6s4CBUAXFBd55q5NrUC5pC2CNwwhUSvC3gIYGC2YQGqnkDEmAsykUiCcDCSCCr7epvu0tHRWW+JDTy544uxuiupamMkNSplUEyFVXIjpgKRYmKamsqw9rugmkKWH27Otzk8UuyFR8j9Vu76/csmTF3XL/QivZ3Gmu8F2CuZlzK9JwefEwOKq5X7H1UM5vkOv9RRgSBWIBoyVy59VT6z/JA3aNuizxgSx2WQwSahHbuP6T0+/ofwrxdhdd8fHcCH/cUHHHQjF8OcnLXZCgiwzv/qdcFWFXuqqW0GZFpS3baR+NlaqNE3QBzkI9P2jNgXND7n/8QAmP0/YINC0yHa3mZeplZGE8ruPlNJyGpoQhtiBQwYK0NphOy1BSvUI0yiMQPKZ81z8LsH6wAIdDLdL+kMZ7ISXEJygsfU9Y+vIR5gyo2Xo2V1J5ML3kNilX6da3jOt1O4HWqdBgcQDuEDz2NPIP2ZuX1/ty25avy4eFYJLABDMRcFHQDGQXN7DE7uoF2WSh7Mcj8lBxnaMeCHCyjDtlKp38ZEWHktFBCl0qIv8uARrC/MIGwK0NwR4d3cvcxvXfgBL6mmprOobEMJsCepr6OErcM0pTwMzKGKMixnMp8DancF2C5u2nK1DsYwW1b533pB0f+KBeLq0/Qn4rg3F58sw7EZOMoXIV9S6/BrOhB+y2rbXFlBA1CSwA+QwYBBTcwyDzHfmmcwRIH/RwnahvyxAX1Pk82ktUJlWA2V93rEi5zE4MpeftnnQ3PjvT9dc350duR496jRH8K4zxotXRfOv/ujT/zrNzZFbkbl/zk8kX2uIy2WslpU1+eyTt3656zaQElf1Q+5j0tYgNgslB3I/z9x9+QowzxAJ2HMHpB7h0Hw79v9bu70ozEzDQ2gJtQANh4KbSAM4GV9gNhQbw4cXT318VrutQzDOMXHTUU0DZfaGkLZpqJw2x46JYTFDasBrWvXRPUKdVD9HxjABDU4JLQh31dgeXdMmZk0GPszHSEnPzReZ7StJoxAJ6A2/cfatHoNCh+B/UfMOzO4uw49HpUAljCCAZMCMZ4cBvZE9Kc8EXEl+rexW4xAaeiBQ+jqFW4OYL8fqM9qKIt1vQvDlcZfdzfVutsDr39gg27raT64bT3yXR6/LZ5PlGPnPGltDNQXSV8+cQ7Agno4o+gZVnmSZ1V+5HDHHK7IIB60zabsaK+hpRHszZl399cM3t4y0DsDvM9/DbOAj+u6W9pstE+vLiw/I0gunxm9Uiaugx6vNy1bdnIjtnRHGLhsYxis/haaQBDHTvC4geaQLazTf2AAxvMeuZXrjiYVaZ8RhdXAA+E3SYNwAHGgRrtV1x3vFYGSRdUX4W+bjOAELhN2d9lOB81iATIMvTGxM+yLky6D0OlYDAKc+SpL4O7VZy1zJdwK0c6Vvvvifb4XOpx0Glz+IzzK269237F7/YUI/BgBmVUTukd7lVcVl94V+bXM5aWMLt9jnXirv9iXPJ8PCsLnAW6YppTqgjhPsjb3HiuN9sMITSCc9Cc4+c+rC33+TwswzIAed0rIbOIz1Wy++NCAYN1jk6jxyJMlPh3jUQkIkKBq897WciHsZEXfXeznqhaDip1dzSiOQgRI121FXGb8n5uB/4sH4Kg794AVmtASnVFK/yGsIAdCoDQKWIdoHE+mQpnfUjiy2QMzGrzIBFeMAA74F/xKGaS/bHd5pB6O0Ok3SKBqaDYE42Omv1L1fa4EYeivJRuUD7K5kyHS+fgi/kMjmN90nxZPtOmpdsESFBjWR9fZ36+/IMKfflBw0GQFaTO3yvAVnZ7z80jaZ5vPyvCUCyxLTuYXu6I65oGWMNtkuevpHA6uKHXpB2aiRVICU2O1H1bA7tOwfnzuu73i9yfmhzEQWUBzDwHCQGC6V1h0f7OzhdcS2DptpePw2amnmyTzlm1+c7BMQUgNCQfd98i4gy/2RuCOi1ZTNuvG1csmXn/bAKYRurHxsSENBBXZOppYzQUODNg/LLy2lA7zE1CBDeXIuH68QAqj4ybvdAAIhUiYXbCZNeHds1HvE3fZgN8zCqbXD7cHZoDoOiQyWc/2nTEADgoIBOE+z1fD3E/Tr9u8fjAW9vPYKBzxMLs1sl6RTqKOui8KR/+kszO/Ey46RhY82vKZtHmxVGV+PQn3FAU9bPFFXroyz4EFF2gJPTOMs5eBKDDE7dwng2oHpGty1YQHUOVP8/9ORWwLkCng24Z/9tMfrYFPAviBNrAiBt6NQThk43hFU9KW/SfvHbe/oRrUd7hed6kaZBvv6mwNL5rozrG4MxKzL6N0/NsGkJoMEZV96hvSv8uygA6E14SAibUBxtpfsL/gEDZQKZfyFEjMENF0m4n3xpeHjTFsxjHkWdwB+muh/9sn58kiSGwcbqrzqPuMN9sknvP8GvSg+5bQG+f7bDsXVuIxB7zBHs0n4dbvaH9FXcgAHnb+5gu6uxKw3336c/QCP2VBk+dtpYNV1K9UCMgcriVW/JcbkM8vi6H0SbvLDnKdCqShrnJJUcHsnw/zebWl4RqyyieDv76Zpt3yNxf9ffuCNTgCO/V3+36/f5BNTchJzcN1BjPzdhWy80JDMPFlDTlA/WC+xpo1wGyDaMfu2mwncLxqXdo3fDFG6mGTfOhD/64BAADr3nXghaSu0EPlwJFGoy/soKkebSPdb4AT8UVKSlw3vcAJgQx28bLdPSCXmL6CYSiMsd02fSFRJubbOh5iz7Lx2BjbEIDQ9VJeHbfx0l7zrABwFHz2sONnl7/7dE+727Mq7dVbtOrHGuIAJ87/9ePXICC9cUPN/amsiJyPTPU8DcFqKPr5mbcwA1hvqNK9z/Mc6og+hyckBzFSlFXCKPmah7i4NtY4oDJHLzB6/PT538EDvC3re882CZJJrPzANOa7BgzAQH13qVkBmM+dZWmmYiMEimxQ23a4khdZQLYliPhaSwiethpMiO5ebfm/Je8GFWOUs3bR9HcN4CWn34UN5BSkwXaBMUKo3EhfQio4UonAVRUbJgnDgDQ9Yr81ij2sl5Cp9abSEAemE6a+5TzTCkqqRWWWwfGNC8ykHJdzoSV0KCGHvgstsHlYctnHEpsY+c/MP4Brfrp9/Bx9UDbfVmEdCkHDh9zQ8A+W0JBh9zBpdfKxFAKK9IlOnsPv57YsizaJYlnFrLq1UqKgv1FogES+OuKzGtvcZVVZ8P0dlLd9thsc/Mb7AwHhxOf3PH8agPpZf9b71ll/agNExBLY6W4DvRoXl7Y8YbhD47CVd6FEQH5pekSrW9MJWPhoalKsBRlkm9ltDTl7l6bWG4Qx4DGmf9cAuiBIHaiB4QOylbepThuUSry1mRgNOnc9VJIMemdDkXChCgp5n4xxsTGvD9o+y9m/Kfxh74kiGuY95N4fYras6k+VVf2Jnu6B/qR8gG5ZUioBlMdDF9rfN+Ae/NgV77rbt4dsUJffjr+zvK/j+v8kgLQKHr9HRp9xocWQFvxPcVTPYi50/+NWed9lMMFBDqCEGgzkmDwTVEL5UCrmq2B8tm2bDy4nekEuxK5gyDUD9tNCvb3NDYeui//gp/X9fZOXuCki1k8OOK2K9PFADg2ZGsEgyc4kghaAoVBqOoy1CbFciCQ6pnXG2yI3ULPKCVdjOm5mBfX2dw3ApAENn2yi1HIHoRXNS4senH0DJhhEogpCVFsoSmtTggG9jtLdedkYkKmPa/p4O03Et42RctotGlACuqPa+2MoTa5LxlDBIOP3eEhK54segTCeqtxsOT6+O/6/YNUfhGBjPWHyaRCxK02gECbkBD6B33zGvYCx/qyLWUDo5uo5V7HSPx1rqdMnD3yOAMdJCXKXL/2VQzeYKzkolbu6si1ZMB91/GGzwVCBLhiAUr5gl5YHzJ/Tnt9NcP7du7mPn5/urrEdPmb+GNn38tDfXNeuK9efR3LutvpnKivMaieEqt3WRP6CtUFPHE8Mhu/ibK44MLs6ML1/1wBUABg5sEuVUkw3SbixUuAHDBMOP9gIRRnrYbEhlGlQu/H1emzGZ+wCHZjSON0PZ31/Z6u8cTwmxwx5Xmzc8ETXZFYMUBw4M0Q7ysEjqxf3Z1tB8dovi9s/568wadPgHwPo7skPKYDKwCj8RWc+4m7K3qsB668u8Gcr18xnGvu5qlT6Fe0yD898UFHQ9rnOWkbBlqDSgapQfFqGYrZ+UD6WZUsnW+ab5FlAAiihPe+R7yOAEG300873Yd++PrzaFYN4f4oYA4cGI3hMDfio0sczKcAC0Wl8wJPJ2U8Bfcf2kafjdtlwtka1pbFuIEpulAWjB7nHCP9v5gC18UK/FfOdQv/DFs66enLGQ1unU9c1YxqpwMQZ0S/ucTggRDLEAaYXfECIP28AvKBn41I7g/lUoL1cbDrdinNZMqP3u8DihJAvaDuTC2Zp15dJa0rwKAkX+3TT/oVu4Pf0P74gWu/mWkdP2IoA/iMJugsCKwMa2kLftYywnGnOYC/ds2ohhZnbjJHwslfQgcyLUvynad0eiksqTeQA8mx+jk/lA970huK+kMsw7or+CPffgn8TUOpN+3w+3037btvw5/UdRkFmAaER8CkD19AJkj9/QxCykD0fYI9NiRJOFDLzKzUEnvfdBWNTbRAw0j5nMnK2qNtxG9gYHeu/bQDk/ms9NmsaMOaq/yYbK9gNJLUw3ejaLICZUFzbtgoDXZ+lMX8cL5gRTgBDthHG/mdsGj3sO+WwbXuDVO5UhcrBTZv9MKU0xb6hBJhVlUPcqljIlmy73f8nBwg4zzvf1vHroJt7QNAEJ9B01gOwaPDpzIfKYfoitFOrAiyszHlePJWJUP7p/z4pn/NStP6q9FKe+XM5wpzQPyGVdEdRs9s0lnFe9m0FhOSI8yrut8enuP8ufnH0VvXNsgASAKsIZZRvqwzCq57121fobup77Oqs9TsQs91DhDkmIOb8mQHU2ywLN9LtzV+2r6+Ef2Rwp0IA4CBMLpt1hcnN/mYISA1MpgNFJMQ4KNNu9WuNUOBk7mAbm3R0HslqdhQi7xUDkI4zrssrNdXcmsX9E5ePPADnCoZhjiP9gFhlsWnQLH9QHjS9eqOFZEcgM+Rl3F9lPl/xAY1QG72mG/FlLuCOmuEid9+5mvLjMB0wizAjuCNF9xkaN+tPMJh+NofBCSdjUvhiLBQE2mfh27Z8+lLnv1RFXzzLZ/WsiqqyFuC+lO2zXJICfWE2yp4xcDGlLEd0t3c+7d0VRND8LBpKAbn8OxyE4VD7aP7YcZke9+rItM/jjGb5vu3oIKJ85U8lzHADOZXE8LPqkZswlW65fnd1V426tOLzCmcggF62hta/WwUY4zBSRMgCrISdtXaPRoa0KS6kL0iimQN491ARMqYIRIwbrPmjKePEiJkgeR/rRXrTTfZLYuMgEr8ZlQijQIxilHlU7yvdt5JXxT8x43BJPxyVI22QV12S47qC758+T2n9Oc/wvCMLAk33HQVYS8BmAs2dDNj097F+BkHNXRKyzDdZOtAu7ApVygLjpS9mJfhK7/OMKVCRH/Glv04WdF54/5XPee+WvEygjEjYXylti9kOvvlc7MftZz5jwYAM65oPFviz3RJs8NsLmiY0JZQ6LT5CVleXhvn5KT8A4oeeX3OFBAAZNgUFRgGQsMA/z7xe6UDnDDQSPeq/ZQA1DWUAn3qVW0M++ECQ4h2taIcbZ2TKAoLML90wwjilDwFS3ERxE5hjWAuJVP5FPmjuXrYM6FqTw4Fxr9xNe0nHvxxxkBzXB6jGyuFzXuKl1fWClNv15xzH1gRKmeCsOKFPZ+/jBJrPSI1mIE3BEAPWTSl46As1n2oBv/t5+Pd9Wz+oslXxvwQXWOmL6+3S/9kik5gXckSlhkNSFQoSeWsAkip2zxZFKrbKaV0Svbov9vwG/D8CGCAsA9tyyKcPfCPD7j5VgLY/7kwQqhg9pr6/riyaESGiGARQI3fLIXiYpH3NVNjFZgDQrkUwdXSXgcWgjmzgjnXp3zEAprqKG3plxJo6fUNCcJJRGBw4tWUhuJE7COM3qGqUmY6nVaGoCDPNBs6il4NgygafAswAkMJvrkQo82qBhiaK8MrxStX4Mo3FV7Zlm7X6uMpX/VC4wqhcFAXS4ABWWmXWDH7Q5MGzk/I11v6Lvmt2cgTdDbux2vCOBI/1A8IOmKDpc/F+2ktz0uIH8rxXrT+qFIiLZ8/CCBqyeZVshUHF5e/bPDZ2I/c0mHCMNRg+oP42He/85LOqYq/WRgIfEEi3fliC7N/MFuTuXgCkEgrxC11Waq0YAVVlzSd8xirN0gywAH971VtjC3sMBDZryMHEZsq+YIXHx/9EGfUvDaCbjHKSfRDwv3JXWwM8yNVyJWHtJHx+dERlAGDAfKApohsMEhAJBA9HsIMBCK7YgRGm0iRZ7+xHcBO2KJ6VTtkW7j/PYAA1lRhjR+ll+6oVEQpQDJCFmwEEKoA0DZef5K67j10+niEAUwDjYKbXcudgTfRrAbP5RciRBmDA9NsC9vdzgDuiHSj7lBGoyoufsd5J5pc/lSVYJ7jqC5iphizJdQ4DEAFXzOAEiv07pAq16G0AoRYJMUE/tlCBfOZU6QcSPN3e6LV6R/JvgBqc57GzTH/CdFs1UPep5I8vPfPOhIQQDBkjY+i328/Sju3zKwLoA/6GAZg4AJIA7CLYJYvWByvH8gjkBrEBAeQGVjmXCOXwd5RRaqQp0nD76OWzwMUan/cJLa6fCQQtJwtOZOjP/NorOVMw1jSBIGOhmYJcI22i/FRR1eYOCodkkCW417cJ+GV/sf5uZ+drXp+o/wFdNpu5/s80gBFs9wGHWlPAmkPp59FPPwCh93uPkqWc+6JtY9UDvQMWUFZDUsyluYH4kC3IUlt9A3E+P+NYPiErC/mEocqoVz/V6eMDUpx+LQCHfNTGWO9Q/qX2GtJvEyB8p/tF/MerDPMOmppKmr3KMjmtTz8qqJYO8rWIAgAxyTg6IQ8DjbG6NBAUbowI/0YISAPXVGAcm8I2CBjTMVr9pMwQS7Ot9Pptk0Fko6ItMkl7lYNpTTh3IAJYIM78stADMIqsId5U3M8GC7zghlGNu6DFGaPIGNvGQJy3cVK0RzwcBRshCCoq/Ype07cCsC2QD0cAJ9+sof3jrBG0NdZus8DPh9Wfw+jCfmD3oWi+Z4GfXuIHXt7UtINU6j1L4nz5HKvLYoJcgWqB/pAhoDCDtExMbajof9leIfsvMBnW0z2wMlO0z13fk8kfkKJscgvX31rS7LFYhxeuH+sGMvcdaf6McqGK6bv9r5w6e48wAXSbr5K7AcRY5trOSOkgePwyOqLRc1vpBK2uXv+GAdQqGyB3HEEY2XowBI+hyepgo982FCMZBUJSdTXtCFWFiv0zso1lE2baSlRQmAUYNZjbjSZLDyoqosQB/JAJHCVqQYPpLpQgApYsHuJjNK2W3ucenMWcLO+sj14BK/P48QCG/zfODxrrTd0QAd7z8/m0duBtI3VYDHl8B0bdo+nevyrDz6Dg3iXHwhrfKswnNALzZFn0UwmDRN8Oy1LoT3GLB0Beohg8XAIoFOaDaoWs5J3x/vhsrNvU7y5Uv2OrT+OSbnGafrdVpy/TCSbwqONrRinCkVSDoro87XUFBmXmLxgYlVWd7N4pJ+QCRtgB9QG44E3J8NRd06gyMY3W8fVXDeBVB0gxktRAv2wleEujxxsKYvTgZQAsCVlP1jLNbbzOC/JHDKYGrmw74GR+17WYQObmR1kucsFotvh+6H0FzXqVO69fyr6cj16p9VwNbXHC4OYDj58zxEjS769PDPiM8OtPGWh36f1+jOuNtwzD1bV7dN+Wb/34kytMB0Il3oQy8vFDKHgjhVvV/dXxdC0UEc9nPyw2HmifRakfizGLKhEAr/Z0cg8yAaUGZZ9Xg2JYX9XT6/Pl3p96dH1E3ad3xbRCFUpIQL/trXsW+NAr413yp26GWyx2+XaiKWNLc4nfGc0o5DpY03obByMm7Z1Bwjbb2YmirN7HMfC6yBzWv2oA+H7jH1D9APaQZC9Vahk1tVGRQhoCE8ELKviaNpSJyoMOjkP1eAIEBAsaGEEgwYfiw5WFQ/nzutphjufYEEEKaEsBeZAKgZm6wOdG1EY/CL0weqxsh5b+9RkF3offcagB8/PdtVq/o3WbBSoBq/9s/f/YwycWWH3++FJ33nFllj/Pi761GYAyQoWk7Fk9CziEFZty+hYMjZOhqHxPXpAvT4WMvIdvsq+GevrZVlqL5/vxbj5LgN39GkPmOj2+1HZGZhT+vJrY1ejjaOt7nR6QeYTX5FCrCvWedLqmevKJYw9HT9hWdpxtDCkenJRnHkJnhL5Z5Xz8DwoS0b+CAxugvCaFiNargRdkMqjFyuphIxNQLTBNijbXRuC/mk5ViLs88JPVkbVcRhwAqAnFcLDSfXb18gOg6xLj/kgS32fJkKH5h0fImA4rNsRtHHllYH38LI8WbQgZxeH6iyfyTZDoTHShErxv9Nb8Ggt0dvuDDfy4gfSu/H6xyQDY+H7At1ybmvxZ6jQNFFCWy7NgX0wJgUueT5aGi2pQ5tIeyZArRAFfrAqVgWVOq7jKk+zYp99fKHzeon1v5ChAa760QIHNcvre//DPXm8zx/HaPaxQKv5ORFEilyV+W6FtIVFHWAKqqAs6ObD5BhB0tsAFkRxcrfTxmRH8D8jgf2kAYdiIGoDSyaaB/rd7RCtDATYOrEScas7XG12wtf031AyNPUp3/upg/UrY90LXI1NxkJ3nBaXaAid8DtkDe0EzJLq+R6Kxp+VWFWecLeUOiWM+6G6VbIgYI2zwAN9p8MenhzxPRzmHoN59Mrpuffzj7U8fj8efB4P7qJsPqcynPfwq+l6HTOU3ZBBJ+SPX9VYJULA4UMEUMSeFZa9VMsgLyDeoVjwKJQelHES8RGau08dpAfOha9EqV8ECdK3MUdU/if+vX/nxBvwBLU+E1hbTFHRXlFS/mxdHxOr3FvuGJiv7d86kKJWYeQYAAMLw+xGTAbhjm+4vewAbIXeYTlNfthhCwc91giRobYj+2zQ2ZPmbXsIoH5ReMRTSqV4lzH1AVU0eCoZnCDKVKnrXKoHd+8pE1Nl6OSD8t+V6wI/xXqjYWXje5N3KEfsqU5FFAERAiSrgYwKP9DvWtUKwoQVU6Jvsfm8CAQT7ZgrfPZDH9KWUTB9f2kab25tr5gCaYjl69MJb1kV71X95VT7jwj0r0Kl6fYoQh266SkMVrWW7qEJ4Dj19gSNpjzLp1y905fc+kr7OuL6f7yuUolYDpI+ffbDH177tdbxMg3MHGkj9F4pANxoqhELdlRutduMJAru9GYUnOiq2v0MsN0XByNp66V8zALQnuOcmDhFN3UNXnIEPKyYoyBtM4ME6WLOhH8kX3DYWROk566UgBEKqZ5DQjVZgFng04yzahnhorVtWofnQmhL8jhh4QWPwzGM9UjQgC1fIKsqrj+aD6lB28g8e4HFjuj8hYJ3hgrQIWwevbv7flsTXUAxOP1HgDrpfXoEPyBzs7vRaWiMHqOYzL4dCpy5nAOo7rmATUp73xPMn1AYtamfPo23dALPUcbBGtO8JOevnWO/WxfrxV2v3x2ra44YBPn7lODY/0h8uFOcz5qns51Ake2Vf8HFBBeHfjh0BY2xN3XYyB6jBhAPgixTJ8Qa2y6sw/q9hgdG/ggIEbeDUWF6bbeys3WgjyG6yRDB9dUCBI0TsiEGbUsHLmzSkKSLECEc72wmBJegECaQwnpAXKFulau7L3GVtAo7e0M8QhWTKseQ1VGDB06hcKrcWe1mBCopev27ItD6+JXVABt81Vnd3WerHffvrjy18IGDpp+s/Tb+pGR8hpaQ78HotQ9kewEMZDw8HBvD0LUVhfMyqVIodjqgliVWk6vvI3VXkpa+e41OFzPGUi1hqM4CvTsV3n/3xwxkx/d5R+3aAb+tMQ8ET5HVd5Pd4DLlABjGzq7tYJ3JWsLXGvrtG/ZkdEdVj0IWBCPVjF3Y5YZFHzeUvegDkISa0wWpzJxGq5A2ppd8ar0Ov5dxudlL9XZO6tLs8sKBrU7KHmJRedKWi0EY/GRXiaJ1MEPO9Xj18SggDB5EV2wiJbV6kROCQhx2QYspZwkLKIbe1MKWCqclw2HN6pPXj2wqoHzfo84sM/SyId7+cwJ9v35uW/vBzhtaS0oHX623oT938Yq6SokyO9iggCJuXti14qdWlAqE/mP8k+ZD0ig40slgnKvd2T9yy+/SbBIS0PqBT6y8kMbz/fgXpNwp85oF3vwvWx8OhwAwjd+b7DbVbt9f1FafplmTuPYY80O1RfcHMCpX8BTaPMUCM0CMykrrQ/9IF/CsDIHhE9cR6kSNbYaiAWhi7oPIL9P7QBU1ZAE0pAywNxVTHy4W3HgADwd4U3xgLwQVX+qATbS1fyMFtDRQUaHJkVvtXrW3ZVUq3wQNlDF/6tqSBEGRYfljAv2DQz5JoAP7e7w+reesvztj6ZyE8PGVrwITPl/6gAki9fFsd7fMqj8JwYMszV1U450veDlc+7HORIB8yP3uS1+XZ50NbtTIEOYo2SyhgsmPtArjve67rH0f/+F3T/vQgufTTT6RjdQ1usNorDNS7qa5nXv6QPY29TpEigRlqjLYYDWKkpEsdRlxHb/lt44ycUqP5s1HNXzEAY50P7DIdn3mk8XPiCDrWQdI0Np0o3E2jpPDtEJSkO1zTCYrhh/VhCuADBkhJHtm/ET04GxAdsTJDjyKez3S2J9jw2MSb8Km6aVUVl2jEyeci6MdSjL9Xgh7T9HvF+7vu8QsdaBthOIf6gwT8h0rgCytOfx59mt4SAyY0u8/gQJQCgu9RCVio+lviVllqTiDI8+sohiRL5Bj6asnoCmUMj2UC/X4MPpr30WQDXuGgw2de781v+8n+6vVp/qV/poqPnwLCFND197BwO3/m7u3LR2oKzml0nghWmnCTkbIGJQd6eJB6hN0++GK8UQW5f9UKiP65D8gisCJAasoTmM96GTFodE0qPFhOvzuBTIQdc8Gu3i40RCP0PUf2hUkDAgXY2av6y/vz3OQj+0g2cR6H8SpD+2qafdA/xLBvVJlyvTLrlU8Pun1euWCfFLPqrPhGAz1+35rQyf9awAfw09V3Rd/9WMjvIPCr2r4/Vfrrk6LNp9p1WVQFKNWrioXd4L2CUHx4yum3g3KUuWfwQ8uPtwFOixztwb5dDr/sO6zhVC3f3P5DBv9p84dfXt8U4XZu6bdIad7GFhdkw1PVf9l5nLuHJg1Ozhq5pjOh1wJRqJ3/bjDtzuazth7CDieVOTQfJic6/QUDYHhgAOA0jbotWs0HdKdBywhIHgog3XMYY53RRsv+bCRtmuad1fqqXfRwvFEB+cQrsWNHRCbcz/1uq4H7YQoqYKgyKJf6IzMKvuM4qqElZXSHnvmRzG3c7tWShgDwuxN4/9o9Pilgt/6c+J+Zdv3TBviz3/J4/Dz6+5D0vOOeJl98yLUXxQJdZJ6zFvD0igRxmZfLsUNcnfgWRpv+eKp6oW3Qv+elTJARPnYATEFE+stV9vXtr/Df61PXmtb8lH5HgdOP1BnnHx1ZdW7b4v1ZPqz/XrtJBy2zUBFg25mqyE2nbdyNO0hHR+wPy8K2yk93v1v/SghAbIISkD6iuREVk1BANONVKzFABaQ2STiwB3CUXihFgEhR4glp6BXm/ywHb7FRP4H4B9ToTRYEWu2zJyc8EoBUR5YfHm3fPPE0gKHq6udLj/RY8mQohjie1zAIuC9tV/+sh3f3QKf7pACf+e/jC8fr/owC0+eSpZ+5oj3Uj2aTvtLYHhXXPY6frWo92wFrFRCGQ+9U/bJUfQt5dUXUWpKynAt4pCr95v0e9/3qD92P2wP8GvL8ef7hx48VTK/f0f/zUrHI9DhLbwS9PsyA9hpS6nrdlEMr8F4byVd9mooHPn/r9nqq35FNcke0nA0Z/JdCgNGNNwYHIQ+ImrdRRHQowETRRIdBx7+5FNR5bRxBcgkI5jHnmWMgypfpI7Lve51xvJlcVonYF5IaqgZj8j0DOSu4VwmCUiaZfniZumpACJJZ14+LOXeujPo5vZX4rFu+ftEc06cT1K0/SeDvzODPWd8nC/hZLvqkgOlHVs68btQXyv1ZTByOeehlBNU8KPDHRau6lHcuVbl7mj8oTOUDomP7fuxtDbOX4trimQdOP6P9b533uf23c7cIbz/dRnEbxPcF0hBMox3Fk3jddzY0OE9A2Po1NiVuXTgwGirFa0i5EOkZdwTcvCl2mRWkVta//kIISI1x7mEq9Mz2gNl0GADnTAkAA23oMkamVYBcAQw1m+LDfDH5u0xPPQt9gR5dRo4bZCh5wdG7slBJINfZm0iTfKan53/cZNz6JwUMUejmoTNT9MvrTgH1VL6uPf2p3sN8NcT67kMe9k0Q/qkj/NNvTf8syoye41XvCvFDgkQoBMK6+m2lNPCI2/w4hrZM5r2N8x5hoTKkMEf+nJd4b97J/kbyXN5tqeJPOW+5/ScAvH4f/R9vXxO4XYEBCiamSPrnTHxWW8IeLwu8Xu+ZVrqsftx2OWc8buo2GwZ5xnTGGGWaPZT1KWxRj+kveABGQBEShOSAsMDrSje1t1XTq07dDTyCPHTU39UGDrvYPqE2dJnxAzsTAHDx4EzqmbXZHsQ42K+2H+I5k/c30iUiAfp4cAShy1z0uT+OJS4ucgPl4q6I/H5PAjkz2/X4sYBP73elSfltBD/+9QzwVyz+uf8/jUHL2V6v3SvuDzncoZWhUpP2uSTt0Lat/XGJ5qJyx5Af1VJ6FMeGZF/mvVnd1RPUEjoYqtNvV/769B1/Hz1lqM7lvToINm8/EHxBOP8AE3hMzRsp6CgbdztNyPciWMKcyeMBqTE0rkc2AFoG5vMOzUZv95OCjq9EX9etf8EAapMG05nbRIETVqn/RjVkfKs0IPJv0dhAVdqMjWmletsBuEz9Bb5fz1az/MUJX7BRB4P4Qe7B0n1QnjKMA9IfdBtNey+p5rL0u+0G5D6Jr8oVSPnkEETUdv6hhXcP+bsPAey9Exzm659L3938PI/1H7ihAppg+kn8bnjB3XsJF/DdzkBVq6Wi/wN1dCk3EL9dwnigKGY/zsNSLOSoVVIpN9j3wc1KwCKFgb5K8iVXEnB9g0rI86ZfPn8ar9ZVBpY+FEBcn/42D7AgEUKkL9TkmserfnErffdoajTSR/3sWPqaEHHz9uxHWgJ29bAAj6OwQqA2r5Eqbht38F/JAdg0BkvEQGmtTX1AVf8DpTpZ0bvhz5fbmDa4IF4HpSE0IMYFcFn1F4/Auy6U0BWkSgeBvmrBPrwhEXgmFbTReeYz2YIJcCeqMY+qioeyIqvOnNKpZffzjQeePl3fxw+K9m4C6jGN3Yc50urAf6r//8wCH7+qAC5bCP6UAK/3vC8LW79F1qISotNsF9UDEAHky66I1Lq8HcAq5MuhDz3kFvr9vbClp+pR787z/h3Vj9fj2wj6Of56zaPc4osfd9kZWwe9Eaj2Vn0pB3s9ANSsr2mfJgUAOEKvuqGnJwe80oZlF3+8oI5FW0hZ4EpVpiprM3b2GgLx1AZBKSqUMp8HtWD9zyuC/2QAU2f04Kx9NQFUCsRQVsGl1813jH1RKqKyIBwFeYCNvD+DAchIQT5vusolE2EWf8rYmeQPmH9DAQP7UBmVQbxWLkq0IRDrZ5+4OFcBkLdldKluXPJPx8QqgO7XtM/QAGEpKAplQBj/d9/Sv/vl+dM1ffwuuH/ywO9Orh3TuBTzjIJQMQ/FU75+TpaoHds5UehXtjer0JdptAN4BXn/ylrYS3wNvvK7rLmgs+XD8OL1CPLed0Gf9lc7lvVxFUov3BBXuv9Kc67jio54r3kAFzum8qMpJCGPrIp2vL/y7wcSninB3V1rZPJtUabyAPEAf63xFm/exr+AtBy/kcEYqMsh/6os4F8gA//RAFaA5Dr2aVxhnAy0kGn0pjuUQkEBCNCqDaOguDaKgCgm87+QgtT5j9tAkw9qdd4Xm2IKO01oBvSJkuckKyEAUqYP7fKhQu/yo597YEN6jjPi8TDGylL2sXSRRcxPcfTr9gfyl+i7BvaTAXx+6R5fyO33/qe/EVjfYmv65uPN3u9HUh54+dx6Ue0yK+F/FrnOPdoVAVq3wyyqCqZVXVsNChbHMS7X4a+dEYaiwHhE453K3bVe4/LR726EjnoodBEWOGgzBJGOazdZZCBf2MOSxCzN+ET/Tc3JTiYYAN1qUN43R5cB9GQo6FY6b/BMKJuQ+UZJwqjDjc/F9ONsyD9O/9YAVPnRQaYPUHcbtDCd4cMiAxpuW6PThjXwgkLeDMDywWuj8xuf5UVgMIZ49H/0TdAZjuF/iTfKPuRTdOwuKXxSZjEku5lrHVpxbIjSH86KucoHpYW53C1kktYLTe80ff3dBv6+RdGPKKjhwO5E4E8syK9qPP0e/W0LITTbNdX99igFAO+QKyierLHJeTnZ7JuF8KX3w3sfhmM5hn0us1nZShlR3MZuf5fDc58LP8fmU+xz1qpxrxgZehtyKb1RWpEvVe+YebZgn11lt2cBIINyiiJ65rdd1u8rFdyBD0C/KN+Gw1fpOCQuPkmyzSQDnOqCrAOHF8Vs5Xcc3KhQEBndb/dQlIDi698agCxMfqTRjWK8uDFISF/W+okadk6795sjx9yszRhtdCHI+VAzNHTKUtZW8Os1+R7pDNNWVBIIE3g2UOLnZca4rWDz42IUbNay6Oa95/jZAwEslXcBGHXp9PruSvza5PxwwhhLSPRpBf5u/XV3O/gH9F1/O20/g9fQCL6Tb+u7jW2xH3kBPqXPk35XFrArRPXzDC1EvO9vZYZzLlemgN/KWpNkrhYIELM4bxefV61/RO/HN6VbFtn+M6+uY85d+XzqjIeEdQOGxwXjMEpiMmSw0zK1mDUgpUS7Cu9XrezpMSEJcJkuQGTr2QE7rg+HotZBvG0U4sg0Xtb3s84PUt6jjege7I+rEHz9GwOYWOmP3GoaAayaBzVipZZ+dHDQQwAJYJR1gAgsssFRPOhVJQIMCqwNhKImgCD5MbhAYAcH9XVUuW+XpJyVAuxX3CoHGsrs8GWidCo2c9mVS82uSmLGb6ojo9c/tu5/J/cfIMcvD9B1n9avreX8Igq9J20G/f4Y1D14/xiFDmy5lidKMi3EUItearUoYyufykeb43gf+c6k+kmhqKNGQ6yoVAzumZKDWR6rTcpctcAwvdLLLGAsj5iOp078Kd+WJ88lfm5FmSf65hVFWJApESABHqPyAfFykFV93/GCpizPakX7pFJNlfvyVGhJI8hDYXDKcBb66G0P7TlT8jNFR3J2anfoQkcTgK7dP0ND/9EAXuvGejXoMswHAmoWAFy9rRsdwK0zAfnOoQ5sfSZH8/eKgCpljCXgiPRZm3mVA5dSmj4D390bw36m2NceTE4uXRVZSHLoMcdPZT2g75RRnf2ucFu2ednPcdaOxgyXTr/6wL85fj7nfKN7Pz3fryO433EbQfqT/QeWkZ9E4GMaulZLvFfy4uz47H0LBMBzUed5Vtm3KAFcxoMVsbJQ1n3sg5+TolXlsB99ZRJPQ4zeq8+Lxuv4lBu1A10uORV92xckQ94lS7kXscu59gkDsPNAfs44lFmiwRPoP1jf6gwaLnfmypgyWUFVKtpvpz6PCjbmqsYGMzIJtnkgQ9oxMLragldQeU4fpvV8ds2/NYAHymPoRFBLpCPrwBd6Qaej2aBUEqFK1MOBgoUuELoQelVxZAUB1aC76PtnF40BOB+c8v027lXiIROvB1XIUz7LJ7rYeVa6A/g/o7XyUlmkD11oruW5vsP2Nf3RuHn8JG6P7/5tFLLA+p/aft/JwM8/n36agb8xO6FYf01DmURK8Pv5yHw7LLuqVVV6RyVfvb/7wSuHUdHSt2M8y0fNxRI1Ov0doisVtTgOqKL0r6LX+tp1TvrtUeTtsSjxuYosd0vVLkpuimrg9CHLpSG2+IP/KlLhvtdJ0uMdL1XKFd3zSlFT7kKZdanPnkOr5UyYyUAYXsZARrbD2HbtFvxBCY57vRmyy1J5U5n9dwZAvogCWcToT17jTbfHJMLZB7FWwOhVDs5WDuodVAEbi4ges7hQBWYHILOmwAKelXV/EhwENGn6ypST5Sov5QS5Q37rKo+8Km0VlspRV01PSFm4CkKf1NNrevyBq/se42cetH4xYes/LoEEHNYvYHia/gKF/EJefDL2h9/fkS60sju4IeNk3vVKqqJt9123cx8ht22zZFAxc7T+mvc1jhBAg+YOfot+xwKOvE8f9T48D5ZaChk1VIkqIuUHy2SIs0qpYJFkQ5YUMZq4ub7zxcs7LDGsoMMFpK6EglrZ4cE6aMUmgs5fif/JTPaMjXSPEiw2IBgdOgj6fOquFFy+Yvc62nTfGEXBCiil+zcGAHSgSeEENGkAhYNLl31TWogWFS0hznyLbsCRoVWdoVL1QhC1pR7Y+th0wjNQX5tMNob/CeHogVaAkkBwTsr/Y9nAE2pQBUNbwm0rJcJKfua380O/F0lfW2fsH93+zwW/A8AvJdl7G8zOOiDCuvrxqyswfXqBofr/hciVB9ibPd2X8llFCano7JUHLsec+FLvVSxbdAtZ/Vgqnyx7Ne9LYXKYdDj0d8k+9HkbZ0sRP5LLuA6GJxyTxXIkzwR4YdU/s7aoWgekmOGHPvoNb46eVu3M6FQ2OUuauPEYln5zcv1pmujeUC1S+rGJ7/YZ4j0Q/PUY6+azKkgbd6+N6R+yJ8sHTU+2+0dkYPQv+kAmOJkqBbT5IqgwiCcgBzVzok4YISUw528fRSiI0HqzlD82KhuK/940wFhhVbaHBEDWqwjUpY92Hb3ry9Ylyh6yOY6G63CGDC2q3eVOiVSpXFGpYf36CQDTnx7gNyjIAv2HNvofOn/dNxHofgAAvyawr89Q/s7bx9nEA3TkkFjq4N97nrfvZZ9lvNWwFzO8hfPynvtlvHSog86yWmDELBUy9NPc+33PaCKrylMEwNXrrMuekfdwDC6JZRS+jAcY4Ut5jYGdz1hpb5arShhQVom32JswrUyDPKEkunprrjJq3fwW+YT7FpmHHlOTbWZJDIo4V++Kyx0zBLv8Keohsojp33gAZXkbPMDTwxnkW/aESknc0QRiRQAECJkfLGD0/1U0etMGM4aP+IQXMC4jMH709Hoc2YD+K7YAi1aGLlgMB6T8K2xRpVzBE/3QskiYrXqYo9rZ5frbwWgBPsc9/dnR/WeleBLBLwL4V6LwhY7+pAO/pvO/fg79uh3xuGOJwHcvy7LvUbuUflfMp2WZL15pyty6clkfcEzj3RgAVXDc9svSu8XturhVIasYZnoIOXLT5YBh9X4+imHrleieFeOQRakf/9JFpH49GsR6YDCsMmt0iXXR4FPG2fcLYxVWxBR4Y2XfrZLGrbbs3Oh64Y6lE2Si9bqq3NkN0Xf2COpH9P/9Ww9Aq3F9yfvT6X9H1sgCdBidOva3sRHAO6OcwCNawGoCGmlQmJ9brwBFSerdnsX76U0j+qLzW6ogQGONi/COkdjJrxZIWHa0ipTFogjZI9eObCxifUPS6invjIJ/64Ktf4J5/0j76q8LSL/ov6+t/KBE0ht6Nb1udNbXHHT63npB4Lp0iRcF9DmTASxy2ks0rstSNnLYSet1oO3QR8POhhjf1VJV6Entu8L83mYwC4MnPxYynGcl016OKvO7L+X6elVCgM6TY6Y7vsTMxAicwGiZlJewo6Oz5pITJmXAdnrOu8/GTK6BoKtbTmcRehi9Qt3NyPC5Iw3UDTEZB0DIWUsQBrHU9sT+bRXQyFRelI5yIJFrUibDelA0fDaoYWVRlw0jbR/kZPrsG5TD1o1NMd/sVP6RR95qRwiMBhljH+VA7FPLu71d4qj5fKILUxbFoYpbxeEzP/yg0Nq3cemVT7uskGO8LAf4wgF/EB7T4w/h+B/22N99v8fPOvG9LnKPCX7HgNd0T+P1Vhbj69W8zF+ossAM+kSnqDy9iuu0eb+XZW48sPZehaL+vh1YaZ0rXeXGFhz8Hs2wBOw+15Hr9IuqUs2vcjJTQJjLuZ/1b1RWVE9X6EbHtJ7hxAA4C06KWJKd/WkkKadMKTNJLYqrSD+jwhuxcbWMTH8ZyO+UYJ79wGs8Wen9/yk7FwW3baRZEyDEuyCKpCBIoJj3f8tTX3PGnvy7e5w42ezYnqsIdFf1peqwhgCkzdKzbQij7Lf9qQ7waKrb7YMqoIBg8NcK9xqbYlXqOW7hEP4M4oCHeVa9W5wr/Evn8oUDm46A3lxQsZoQONFZCMz6MhMmKDjkASArTjj7Qae5+yx+HU1zs1/j0vZ1ryviR6UQpY9RiaTPq7Ol0F987Wud8td8yOVx+eka+XU+pr+Ven8Fitf3vsA5Ev57Quf718FKYPN8XK00vD0uU/UUxYzsgpdnOrrLM6WQcqLe1+n5DoZxlBqUMdhoXkOx8d+r0mIX9TOsOh5j7vZ578pIRXiolsL6o869wns9h0G4F1vEgWqzPtcHPiyQ0G6MTwSGKLEn9pUL4bkkL1SCoeCHbQC9+MrTn7P0NgmVMZDtzaABUwFWOypvwzsTmk5Mbfx5HuBA9++96do3Xq8DMqFXFIt01+F++poK9f7zvk5BNyFMl+8uyv3xej0rpaelojrx0JF5hVonQGHdHCKhsONgHtBivXqtEZBnD1P/zIvAE4L9DIaK34ZB+HkUpkzfMzJfYPDXUOepGftjsuOXfcT0exGoefyNM1gc+K3D8vfprFdeigjfWCsC6Jd3k1JAeeks9gs+Afqu7P0uz2dRHOjHXZcvL3Ua9aj3Vtc4Z1e9Hmdt8r2MSAovOtR51s+o+70OAwlBL0YZO5eWNiscOPNRFOD/7OTLaE00SqJjcuKb5hEV2MCu0F2CXovth6PdDhsFpiNrylyoxuvRFLi0SbcbTLtRqaegb9Zi1+M/dgP+SyWQlsHbNhAtMjaWBCg/v7zy+wfzcp23q7fcrMj/9fKdYy2PqWAgHraCd6hvrxYSFPnbXj+9YplocCs+k4GFCpbmx67wb4MhQt0xdot5JIhO6U0F2HTcv7cC798M/ruh9xUDml93/bsd9CP4/0QBr59zAl8zGtasuen/hNDKftAG1jHNj83pkivs76kbUyXsNgsTfP2wz+e4xmFMR6rd1q29Dqpo+o6u+y/nioN0B/arfb2ii7skc8quFsbdOz90e6mXTWlf8MKsSHXyP1AlRNMXNiMWf9Qe39jighDYYUM3GPIwAKIrb2JtPFjm9Kur0TR2hEHqlTXtwAoHSyN6T0Xu162a/jwSRuP3WlH1s20JUwuqzrGli2cC5R3qq7/8GGl83Jv7SydAQUOQ8Pl2m9lD6I/uD6WB1lrDgae86JIs1jXLSH9x8xVcxXr21RWIb+fGp/iRQqx7ZjzmXBUNBPyCa1/39/5zfvbvOza/p39OoPj4zwLC4ywMf42AbHHO1PpE+qrU9QT3bj9YSpxHJademE4PiWLer1zxupZuKJ1fveAsMrJuH5Nu9pcUDTI04jV9rnS3e0HCdczB/KbxR4yCASK7e+r3TBlIl2FeBlHfwXbkxRliwCod9Gw8muVA8wm3tmkIiLEE5CA5CMrUOLlDEEOVSAwBW8mbwzLIXwvjQbSHudrT9ucDYFXk6XSLvpm4gP75VN8k6fESCAit/5E5FR02ExI3Q4GKEe83Ywr3bQ/bSzw/7UvIH74twekxL8zR6cV2bFLraIhyoQW6VIsDPPWrXh2hRmXYXu90DPkXWD83ah5f43s/1+n/8wRgL/U1ldd8L4VN3wDw9wwIDxNsOts+Yo/Yj56/jYOMev5sqbk+7Id+F4bmV6hjWDu+1jqLLsZRR7cLDAWU15dj/et6eTPmqMgxCvzq4AcMMfgRUxnpk3dKgjQXx9bHvSCXGlYblWJpJtAOTYM/sKgtlaX1D1XewL6djgKiYWCAQFO2bIcp+gSe1XuiJVyZOIx+R2ngVA4RD7hOf0wBfwnKVQi92FL424zckQDfJt984eWmElGwvNzYv/dKeYFosVG1vZttRtiad1NaBbuGAzugCZyFld217OO1tDZKi2PELnxQ9zhxAY5yVYQF9eh1uh2CMWNbHzU48Pcc/ePxU1DhV5fo8X+G/h/f2luX/7uEd/l2ZfnG/3ndxwGkAmBnym80rxghUwSA6AlyjXU4cnNvig7M98mvUo5id6MQ4ML1393tZKpPEyUt9TkeqONVB131WDDAdd1Q6+HTMhSDHHdRnpYM0I54qIr99kksAIvK3X1Ypf8cQ/JbZ9KbTgyQNexrcW89b4y79fiJ+v7DnVO6uHmmuhkapw5oI3tWA1bWrqqXnuIfV8MYIKfxhwK0Lrt7W5n3tZESqsePGWbURLGJa4fus5lmAXOu1+GtIyoIca+QB3a+UdDKH+x0GHrR+cg7NlhZL8pQM0IXBhQiBlGq6igJXWC9rqhi9ogF7d5iwC++9ss05P5j9/bntvcXVPjeBW1+CHD93hF4/Cb+l1IrnGMVPRtjZyFVjLTLiu2pB63tEFiF5eF172GJ93ust/vzfl91eEdaG/SOBNffX+IePP7HVhCY72bDvUlBTfebmy6MUaLXiQIAm1f2rrxPXtT1H/wyxs/aD6aWw1iNF9EYbd9+YaXGZaw5FO9pEQaEwXjuU2WDualyjSPOKhK00ykeaSbDTHZi8nC7Nfc/pQDTmacKaJP/bywA39QZp8vNfTx40CZ07o2esNs+iNe2Clg31CWBAc1FH+QOvSFQhy2cUhO4Z7DJvyXr1lc2/rtnPONyHfU3e8BLdlk2hQAsugdqG8MTG2d846N/fD/4H+szJyr8W6OwsSG8H8Xj5vfxaP6+HP49//HQ1UXluW5j4DZjCMNaII5AA0thXUQJfO1dbrdXN89DM2UWRufOavt9Nq2AFVZ3GpGhOXXZqn7vadoJ3I2UCWsg76cWjt/HFaP5caE4qKBgElNt/ERXRJdRzR88cwhRL9D47lHSwoErWJfVNvMpsthvoHv69ancNIH9MRV11XQU02vi7t9cdROKvNHenW7NrfnzathUMT44VafYtEcqzIdDl99GAZnQs/n5Znq34f3Gzaz+DEPVvCcKRm29be9W/0UvssXwZt+EV1rCucD/ksKwXapS9zm0Og5Jt2MoYgaj7YQMi8kvLh0SATpGY495IHOT919cwJq2v4u338JRv7Zsvzs83/T/R5T4P1VgCyh7neyxM8vL2et7fGB08wVGOsf87kqJSnA1L/d71886G2s3m47kSHaA3CpOCcpVXw5E+rfoVPf9YKZoQIHIFtm6xk7gTvxg13HpBjFdRQWlzL1Lq/AA3mRHtI7oWA7ahzbnjRhgNdAjDq4cuaLab5gPPSDmsnFqBfMHk2mcOBQE/ZMi0s+5mtfX6f7zx6lgs5nRR0/+6k8hiAkpICqKmx5lsFlHwv0UzuEPxfDPp3W1rfA311GXeQgKkT63XC2Bfqa9l0+2zV+l+XKf7mVVwN+7oLtfloHBq1ibVPyO/Gq3i/KKe6O3JLqty1cd39H/7zHg8fcZgeZr/+LxYx/TokDz+NUE/lkCouirS5l3s4tHGHToBejY9N57v/DAlBE4EgkpgHJXBBC578xPDvGSiE5kzkoh7VLO7+Uap5IY7OqocXH3Qbm1SK1YYe4ZBjFRMYxKV0WOzhqEH6HNiPeYYoIP3dublSIOIW3XYsnjUMz9OLTW0X/4hEVXNBoQeE+osiDR+f4wpodixIZsyHtiItzR1r2ZoON/Lgj/JwZoWDC2UcAv30FPJnjTVmQCBM0fyKB5FiIiBctzLZe+ay735jMOgr/hOgkv1UhCCPotuESZlH53C3m+iVBzR8uWKt0U5YRSZwoEy4rnSk+H3IrhgmNdGdxMn9hXz99B4OcZ+C4N/a4Q/dBeaH5P/zx+//N7S+fx0sPsh9B1w9EHPZ80jEThkpLu3zJHl2Klw5BN+6U0dyeeoIzHeAhzo8z19v2h0CViUxn4eD0vgWeOvqBy2xrXNBjiBeG7zAREmx3DkLr4SzswKrTMzHz09E0VAks7ClsQAPRiiA5FU9n4nPv2aVnYxGD4LihNCxTaciD9eCEyh2CUeTlX4Sbi8D5MOGq6XU3vVfj+zwfA9okxirzdrswRTJuJ/gXWkl6u2sMntPT/9NBtKTy0KFfRyxjrh5DBO7wCBaJ784LZ1wJ9L72DCCwt86pqXKlfYhF+X7KQPkthBaO4Utcur10+9EF6nUwwYmc6LmbvhIH3ef69Qff3Rdrfj/ebK3znhMvjb6Thu4T4TWGbAZUfnQBOnYJ2IeUvYzf6JzPbtZ7+k/nEbkAVZMzTa0uCdEduAX+9+VwI2rMahgve43z+k1ME3GtPMsdoWj/iyjSkAF6PUPaxxrxE3YjR5BIV9xgZWfX/EIGED6FA8aoDoTsRMNlUhA22Bsj8dfE2A+wYw+E6bmCDK7OZok40aAP3XocBSw8mt5gDMBvA6sY+2p9SQFNd3pN1j5g9vm2fM3yITqICgVII3V9hw/YjyCEY+tKX1CEQj/lc9ZoaSWreOBy2e24/OXjSvWJica3oK6MtZPSpZKt5QQEJlP267l6vlLBS0p0xEuaGfqVDJmYUBcmHMw3cf+CB34NdPwY7T3D4Y3jsVF75wfy+5r9ZzPFdt+9i/OuaRfw3h4n4eMRxPTp/7LHSKVjXITul/kEcMCIZgWFoHWfAgw5tvypEoA1yNwb42HSWahZHaOgp+cMQvJKE/qewsC5LVHIX/hmRyUsYYjoh/ejCONhSVdJlKQzT12EVNlb25Prr2SMWVmz10nr+DOWDBTBlqjoadCyNEQFuFgasCLC5NxPiX3KRj5v/4wG4+Jf4H0ZQU/W6gR2YLz304NfjXX3RDliIM5VSpog/XvxgGT5jddZWG+cfTidp/9SQBL2rKJKuwhpKpQs/zrXtSIl9i/7nnQmrEa8gcWAqa7nvqo/CJrior4QQxjq5PeTQxefj93rd5awL2SDH5bd+3C9M+Pj5/H92/77ufwOD69lQEdKkOCuAF5W9rPrX5ZDmEHrfHcr97Ct31VC50girCCjgJCOcuOqbZ9V1jwwCVHzJ+fGIuvSz0ME4ex1rXEbG6ProGRtZ2+x7dzAYWCsAur51JICBgdlj16nBT0sPcj7ccIyL/7Sj6ayjsKYLN/X+U/vah/eNgVCmcXXTO2cuHbRpBBcVsN2BvrPtB/HfyzSV17U5ZX+mPzWDXtQRG3b/r/5m/sEvj/OQ7vmT2pAJh1F4OBhHeG9VI1oqINqi+G51+/uttB8lgcLmf81K+LYsItsc79QPSqG4f2wZudUaj6XOmsSCQihxiBeMgB9FBjgWC3jKCDW4i9bM4/Fjpd5IwI+n/7dn/XMb+G/Q/9z/6efSrbMfiTQC7L5blA/mRN2nRgRSj7jbqw5nmIECwSpEP9QbiakeQz/oHq+jm20TeEAfsGusBPB4ifH12TM71PlZkDIP/axYMhzmQh4G3yoIurIkVsAGpCbjKDQtLJBbigIfZNTcZ17SoOcPYmid4n6obfvS73oEC1P5xhECVmJ+Czz2hWoAUwFMBzC3cwss9hy3stmiDxP+25/qAPfXhWwPaXxXtzdLF+/J1EI+zAJUHiUS7v3wtgqRP3ASsKzEFNhj0svbXlkHEN9918R1Qhb74TUK4mEQrB3FJUvSC0RVZEhLjSLPwJBQ5z26a0taaRHWeIa7bvZ972xG2I15fpTLjyhwN0Z/f/xQELFa0I/5od8qrPdf+3+l1+dWNloxAtctRRNuXsXJxjEPuofi4cPRnTSvA+SjF11NqxdLEGbXGYiImTHnTHerq9dQ3U3g87GFVT+N7/ZVNNCZJlpk8zHPfRr82Bfd8hVWR7V/ZE9OCV8BT5lg7d91i1aOkE/9/Ph9rT+8IyDI9q30Sr6LIsEHGQYxpYPxy4PGC6hQ2UPPvZiPoNmIVccVGZfr27wjsYK7/bkUjAQJVWSPR4RwI2OBjS2X6UFfvXkK6+pTjfLgi/f1bWbgQeRPAb/1wndThYSWs31wZr3F6gToqrjlVtBHjPt1f1TjksOAuv6YUQsPCvjruh7R0zbu3KEUUO9MDmLnOsa102UZKJYlF57f5cgfTd3H5fekwHcIeP0u/PygfvfUr5FLvm8dY2g9cu/6d9CvObu+S6VKYmh1TZTQMVDC7tKgiP0qzzwQNUTZ/Q7JW5jmsFEOZwK/j0chcvWUFYa5nlEc1A+yxt77MYlQepZOGJDZ9ZGjAN/+VQ5cBrNXQUIj29RfVKrp9YzrsyB/MFPJsBWbA6bAQiWQ8tCbMUx2cHTvhRHfVHI9fWD2A0zH4zaBCtgWaP6sEtYw/IsN2TZRCNqqZKLztmLm2RhkZQg/AnLNUaEIovdiNdgxxcqTr5lObj82CUkPhObvyFToENDVfZbtfg/1WnS1kFdfhrjQUkt+aJU0AeL1jJv8SmTFT2xg5dZz//ZWTKweYvmBBM/+QPOTEPzMAT/OxHkAXjF2x94FgYp4CP9nYkDHAL9A2hg5f6VjzrMbyhziotjc5xDL2vQlhzkKASpYdAKN4oOZme5FePW4mP37Yzft+E6Ach0zEGOGYOgHr7sjjZ7aD6NBzoIiGQDwr7O+ZsZguEYK+Ul/fazsW/aL873yqI3efCwLmDxzVRN59Rc03rwOFpLMR4VU0/Yh8zub3aUtMFXnsidecH+MAApheJHfbCWouZkWbOXPLeOG6hJFhqnwhwBCh2+hY1sU3djQYmkWRpYkK9sFpbXPQMsSdA6GT3EY7JVHES1cRJ3YEqKOVgsajckRj/s+DN2Kh/uaEWQ0tKzzQ3cmC54fSqmpXd23msb3MWj+RvQe9/vfqkT3H+zvQfGlY3ybwn9fz5D2WV94JxOMa++UiaKw6rEM+vZYCwyFUSGWl6ZYNgRBiR8sAusXBgcYhk1m/n2B02SkxNd5btdFCWXeYyce8O514jCW0uVu93XxZRkP5n7rsiOePeyfd7fPSnafggdd8HGJ3DLBBu9L97Y79n6HDXFQBCEORAGKzoy3RcyKl70SL0QaoEIiBHUnJoUalv4Z6bj+sQ7wV9MIBWzV9XQNUOBn3pRRcHYBrVn8tLCiaHMwg+Anmw1+Of5UjIThdVMFUQb41Ha22V4QBVzcWHQQWBAS6RIhbpcQmRFd935Rih3bOQ6xHbsU9UAUPSmYLgJrwlFLtefD126ddd+OeR228rsv9fipxvT4KcrwzQPuPwQ6nvWOuLsOVDr6bmYOadUX7nPdJTOInA+zAwP59wtC4EOpM6iw7kRKy5JNKYQpF0XuOisQKJTn8V2Z+Tsez6uwXS84OxDaCBClc3vVtxjUK7JX6J5gi97hNLoXpf1S6x606GMp/YMBOye+QIbPSxAJ9G+mv+ti61mQ/+DL25kuLPbiyIIKC1afqhSQv4lDT5st8L4nWy02wdjbf/iG/JcDQDew2WwtxPwnj+rMJSybHzQKzJQSRSDUwkUNiU+0ILy91Q5ceypDa1YsEMRZ6gMJEH28znrVitK7uiwvNyx6ARQQqAPsg9iQIECrC3jsg1MiGGpX4di3CiiQFljFp6DahTbnLYT4qz/wFfF/2S40Fg7uv0+ATZScvy6JGh1apDNeoJgCKtiU2k4EcgAJPwBhOEFQFOPpYbHKr0yv89gf+uAwzFGxwla16GrWy9wL7T+xJnxuVdaf6KZ3mYWigQqiUCBkEyaYXLt2VPwUKtHH0gdD9PaDISlG5omKNhjtIyYRKyPAby7Qwg7OJ1CQYd7XzOIccZihzyPsev74i1Vn6992gPR8nKKAKctX5G/xwD9HgFNP6MZgIMXg92S7pvpwJKgRjdDhwpvobZ0CDGt1EqgKCnzSeaxQ0OPbPX+agBSUgB7LDbYGXwh2+nm2qgSUIQsrTzsDgbMAVz8kjzjv6DBp7LDo8gSC2WwZe/NoWXsB6tKuKW73n4rM95/Nv8eX5Nqv6b+v2l9cZzf3cd3Hed4V+5VbkoKQ0v8897u+/ukcu1DodQryzIXoAtPE7+JihiD6gN5np08xsvQ7Uq/RtxuuisKllDYMhXPD7DdSt6tTKtMPJ6K5igF2PnT97hS4B4qd7EX2e9kYo1cQb2lNCslHF5dP27MnULM7z7PO7WQPlQFwdDreZg56tJUBQv0mKwEICOotdAGd1YNR/Xw04MHGJEDvfz4ACBBc/YOYcaPEyHixn/AgOybrMU6eCoPNIHtbCfqEA7siU5SvFsQCbUNYP1BLkVfgphWcMllQYR8MdvN+UBY4Vr1WyWV8osXB40EXVnxprrFpg6LVySHCDClnrFK51a3u6EQRQhfqvmvu97/td/6YFrOgfznj/5f+l9hfWecU+kWHre82Or0zQd+MvzCIofpOD3hUMo42qhRFUhhaJKkrE8zFAPuiK26OEXq0c4YOjP2zFJ2AGvioZ9vhKkZdDzOptUIMXU+zq1Js3WtWGmTTS3d9JggMISoetoWhEqEFHDVGJ+LfixgsRbQP8RdmvwX49JQFA5UDkhX6N2YDrA28nHqhqPpaDWgymdcGOmhLwtT1/wwCoQHN1dYJBQLf7+t2O5VGxApRmlLgYdygOUg1jYmFKtzTeBb/DDQn/VIlq1wXx2bF4c4FUSI9S4KCBHl3g6uSADSTYHp5UQYel35YO7+ONMhRC+52igFDtGZaF5UM6jbOygIK27qDXQwl1+51v//U5P6x4/E4E/8p2PxV/pmTQBnW8N2cZmCdggGNwLjnHjVAHOJXRfQRW7iKI7h2ur57QjBY+M13Z1SnBaTLLaDANugOCFzrUJXMYMGyE/Z1YKge9S4SztqeZXPRgUjB11xUFqa+hJYyyMhkc50tBrlIl5WJ6L64HgzFvYH72fQ3W7+Is7yZ8qQX6I8PAwKv5+GLrt7b64LqDcbEIH6BxW3qudftemvKP0kB2EWdesFMETAXYAmHyWR2zP3zbSPpii/YGJl4rC2oO75qVb31+N86tLXuQ11ar0OgpI5I7JBHx/2ptmUTgw2KuEoQvJB5VJAfBrPkFQnT6790uqvQ7fHAnH3XY9urXCd05NGYXxkt7/TvFxD4ZSfxw1nmR8nYHv+0rlGHx3d4vvRm/rTqafXmCXwaQinMK9wop+cAUFjRLsa3rqQTBM56Wp1bq5LqCCzIpinPYDDzPkWXfk8duEEUdhb917noWAxYWSlj0WcXrxvwQhMLNf3EbhQFiG73jAIunS74MqToP61PglL9wVK1RxpORODtlzcKELQBrAXsDYth2WE0gN0Brv+hi0rB9rD1Phj9pTGt/+be/BkE2jveHlNVTmUJSCS5ZbLdIhzpti9rGsYO9dtictUAAn8TV/ClIAzdsgVVlO4Vu/QHyWq7A2YaJcdqKyBEzBeVgHVAhsWqPAqa9FKVhfUs5niMc8aylVDrx9ovqWsJ23oQDi7WO7fH5v+0B3+s+32Nrn3JczYdvuBuFopQkmHIb+gOYQufZhb76+6po5b70VSeRlqSgh3iinUKe2x1ODGSG5eUEySkXxKtvFGZnprwkoVtEQnVvfd+1zeXdTCGrtVNxnIIbdHOjdnHD7O/ivQ6LvggxCIO/xHKDMye1a3CTFQArRGHP5QwK72QwV2ZoqIXt7nC1XaMgphaF/M62IlZOn5vkDFDgsIAruFpsdY72U0Ww5/u/yQCoCx7M9tRioKHCYSZOB1tRRMfQyH2bWMDZ2UCbzoQKOdwKpUADd5Kuv1JjL+i4umCDndx+N7tyMDomeeiaInpyjLaUjBlg6js0K57l4euX7M5NihaD8rZS2QAJx+6UfyhQgk63X4NZxb4Kgz+bgz8Wvb6RoCNF80oEfLfi9XHGEn9hwDhnPqYmNKOkeiuuzsuhP0aKdBlqfVDpD7QMO499eGt3nI6apQiRVqoIYjetSjdIn+zm42gbvEOxquRc2jFG3TX3WFvKnntGa2h2lSxQmlLdiE/g5hyYjdESLgK6fOhxPtkFyzDAjFeW9xkl13RXvH+jSNjdbbklHxFAJUobCOUnSEcHo4KVoi4v+WD/+wF/TfPoAZnARMim+giNPBBZsH0RZ7ehgtFO0/78Pc5LGSKQcfbyhEH/Yit/QTW/IldBSmYJfR61T5OPzPzIYJEJYgu6Q4szIDqKjEZjAwna4LiyAAn2J8XetbNW4X8icx56XVjutktUdHAzUg6Kq4//qa2+zsQ3H8s/frYeYf3Aw3gOOpV7kX+df3WeT30iUeBAlyh+q5C08NkPXaGUqNlAj3T0kV9BEUMBSeFHxoHOrlx0AEdlax3+pb12NYjq3+sQQAfEERadVKGOCsI+J3xPpHjWk83i+vvRwdYCjCjvShA0BvekvK23mozO6Fv+mh1OSzGmggb5iDYwgVWQQsjYN7EmspNAaBtb4h2HFXjsXw+UAu3/9428cDmnxwA3lG//A1Vwpvue8Wu2MQZs8mim1lFvA/RAv2hbzfzDn6jVHSc68lFuepTyqagrjSgn0zBVQxJh0IRvq3IgbWdhjrvtRIkMZe6sSKxrqMCP3M23TqsK2WBWm8vQ62U4HTH/LDFox6c4CGGgn3plkqJ5nq//1Jbftwv32Ls3yUA8T8msvKYAPxK12zuzfOcDqzBEXtnBm1eqiUjyIFFKBOf+5iCoruH1vmCo7TSx2jqUW6ZGdBS9hdurNfcljHQ0RzZF99t6p/TwEi5c2PSGaeIsep3TNHhlsKu+Dhk/RTpvVBQXHRfReue4gurLnL+0E8XgAb2V4p1tNaV2IN/Op5owQvC0gIKLeUcA7Vk7MtWuZuisbuEDdwIkGdg/Hb78wGwpqGZRz7wi0Ru7iwDVUhFEl/CxgahvhXyAjbxAAI/0aJ+lw8yYcx/D0QD9prdoZe7Ds1FXDcU/diKb5QIg+Op7wNtpLE3qTS9X6rFgwSqRdO9AsHqBbzIoX337mc9pC5mtAPMjYbm+SrU0LUuLfn1U3j7/nvuhxLBNSex/H1Nm07YrMsfx1HXWDhfkV7cr2MuyCkwCADEWbeXLi/jn47x/W733azEMNOiED3UhypcrF3c7XM41skoCjHfLHLvkQMQTR1DtlnA6DPThYMw4s5ghFPMO7YdyacAIAixUhxQJGVcPOvxRb2Stf6z47YEiRKaEjW4fcwjUkAfZa7GsjtJFxJo2wB6VIVBYOfJ3huCzkrYB56f1ZU+fvUfzlH/zTfQIwkO8WMgqDJTIhpDQH0EY8wwzIZRdVQKk0no1BSShG4oJ0GXHYHQ/cNasB7VIawzlocwpAhPzjr8+ICxLDIURdcCaWbhWpFZ1wfLPjfqFSfFhhnHVtazRq9H0PVH7lKttCBkdV4uNqsYv67G3+tqf5dh11ko4hizPmcHuu/WWCuIA/vmIQ5lVlJhAozu2xxFTXRhFcK7Oitmr8mMjJgXte9j2Gd9o6OACOSBHmLUrRZkKeYdoWuqg4HPIeutVIuHWa9BWPV5UPgRFv7MqThITF7R+cRcLyZiRC4CBHFQ2qZUXExzn2oaxpGOnNv457nup2w73YLte1ZUAMQC9ZjJ1OVaKALSr6EYVJ1ronpar1thtGvzzZ93AxEkZoqQYUJkZQ4sCAXwG0Ocz7cVFnXwcAV+W1ZSKnA3juFxWkaL0YAAWo+BjI446vBRNEw4fqUINlE/1wkYeNUECi3pivM5BPq4WAKJTFyuUYlwn+nUotptrLDr/JpNjxVbYUc7htGRWs9QPysqJMezsWRwqSbeokygx4prQbfmRNlhXI6B0iyVAP03r53yzhD76MdRv1NMH/O+K5JTH9Z71tlKBwhI2xhoGlY9WMRj9VdOR0c3vYjSZDeuzJG2aUE6cDRtEP3digTA4UwW7LNEJX/dGaQgRH1crdtzKNB8inini8dKg3cRkS47LdZ8ysUpypek4O+exdnyH+juYIQbEWeBwVsxNg5dpBmw4Rw+3dB1PoJAPdsBVIOr/zMR8t/8AjxY34wjrIh8883BlCgVge2Km639u3HndRqDKRUp0yBZx/rCO2wLkuHstdAUykxELKVuJiFX4WrvWMPWEVhspV53pF0EwhjGzGMUllZ8ZnecoiDBU9itCJVHpm87XatuRl5vNHWtBVe/3TYwdpDh7Ogfc+TqrY1AUjcpB7wiJR0FFS/qgcEzux4K3k0/pxjF2cUKh3WcWQmbGfkf4QaRjkCPMaiOngAg0QH7QDRMxXHqeVOAiGW31b88ZsSkgo5IjKUeV+WCETHZTixxUbTaUUNkBiS11i4S/qlLdG0SnHfpUylRLrFqD//x1Qr+o1Cy6PKzLxLYDHBPHIJaPeAP7jve83Te5uLrnbm8W7nuDN0eAH8LVjauKiw/xOa26VJdmz+0g7GXelUXU4OaTBWOxvCpCuunU3IKHEifgdKjHQfFH5ORUr5f9fB3pGF8NuHw1C4KAPu7FRII11fINAMyrJZNPOuc6NVJjP8syyjKF+O6JBhf79eqpjpP8y3Vw3FOByCdMp+qIsMAXAc/UZSH3IljMMHd20pPV8+HIsfzetxY/FhZQhGs6CyW5/he+7itG5XgNJghOALBcWYNpJ73NSquHHqu+qujY9Wbdk6KI65no9hcVnRIyidryIOJRIVe0HAcCB1CjpkdQ7RhFPfKEN3aQo11aAcwYFrOWeoFs5xDWRHC7CKtvWOY/SdWdNOfbRHIFges2QRyWAjTfzeFcGRAzAvIFRMLm0wm/LFRt/+Sib4I/JV31VybpilmIt3837Hg/zIVfNqDX96C/zYPSlOIoQJhChMN1UnAkOZ9mArNgVX0TQdwKhjYVVabIq/Zrw+j7Ir6Lg+M1D50ZK+7OM+NIlEt+ucH2kG5XXTPhfQ76wNG26hCUV7wH8I1UKdfScOMYgqljwzWw7NGhgl6+u+7xVtGq0Okh8vgwcJyl+n3C14MO8J0UadiVXBpWzH4uSjcTL3efU4YP3Shi14RQWhxHZZ5J+qPFJ7mjqGBcU2WMCCjOjNRb7kokDjUoR0ZW6iHHIfWrC71pJX1GRpiPKjWeR3Ygt8HhlxtiyBTKVvC0Qsj1ULL4bTUeeKstFTxLdbxFkgISgYvoYVNf1Rw16oMcd2sG4u9D+AsUJmZyuXM/5BzWCI9GzF1JfS3yYYyFro9Hn9sBm2YME08ZYqCt1NmcvKseuNEtp1fhIK0w7/weGMrXR0MJ+oVEZ8tQ6ET4Al3iAbvrWDfciB4/KqKQ0fryEpu4oVHqQsVlnoedmEhnLkG66MNwGXF3T7Pury6ewc6gsJew0Jt1RABlVg6jaY8xXB3z/xwPvYMW1OgUJQf9z4pJORItz+jS1Uvo21+zfOSRS37hTaA153vVtsIytR26z7vzKZTmmALUM+f2SHFmEQVYt2GIQrLh73PZU8suo7rMuZtHIg7ivb0OHb0wMCqNV3NstgUouisXpvMhlTri2jnUlB/wvgh0vip3ceh/cT+JJrbTya+HHNfZsjxeTKOU5lPGLoA26GjsCHlikYA5IyurBXpw/Y+bq8ChXtRAnqZxvx0/1MpWNfd/EVEBZrGfOQbWGED9QDx4VmFBuEbTRodTGWGzVbJFPOxD26RexaACey4wAeLCG0hYU8+sw1SKVsegg68Bm57PgtrQPRflf5HCj4DbbazCpgUAAax4mTDQjWV2vyFvnl+ImbsD/UjYkzZJFxp2IvNKTSzgNXncRjE0caSY/CzEHkfcXmJ+hpbh4ITl7zQBhr2Jbq+wBaz0Tn0SvUYKTQMQMBe397S+iGtK6lIjLWnCAy5Yyy08wIxlaLJ6GaHemQgMQneOB3G2vejb7uF+vHHuWc6lmfwZWX7q81MfRzVAs9XzJ9XSn9xw4imWA+o+NXZ+l9hAD+CtEm4b3Kvf5WynRPg3qb12ACxtHytkMhkMASdQDOBeV2q5o91ANsIu1n3eDoRoelNm074+0BtxJ/4kFqEogQewQK12+psKaHY7qIgrllI7sE0vwLzXXW4VxXrYtSAX0JMjHeGcggSKjKK6I0D1fPZI8wx1qCtpLtGdZ65jcVzNCLD49mmNywLwL/R39xtuWw/t/spFy2F4oFiguh9t2HsIzyq+6UHQT+xq2PSo591FA6OEFVgoTeq/TWrIjanm+bBJFpXgdNDqYlJhVX54ckAq8BsttXVFPK+1lmMhfJ1wFaEkcFlWMlxMQ7Zoz5R9tiNLcUlAZhVAVP3JJbQIqE/0FL09ab42S7BjVlIwCEAXvRuOg2L05voQAb/MmXetw+6csGEO4nZbPEUNPuE195W+d3M+YPgTX+4wglWcaDZ/lgHoG0w3a6ojthEACfIegIMg5gKebNhIXOYAL0ZkmAYgHCtHnwp+tZ0auvDt7XTsxXuZW1I8Kb+tPf7k/WKutUr82IkMLh1ys+Vnaxqbam0+TEJrOkdxNWWJdOtH2xqD2/WfhnYy5sdlYIRi0F0VGur25mO7ppgFUNk5exQUF4ZJ9/fa91/Zrd2BWv6ItK2+KUv2EGi9NPVngggItgmocYc0DLGDWqkNtDjCy3KoMjy1FPU106DsF/fKxSEfd0LZndrDRJE5MMl4VrGxa20GVEJUmRb/bjELa5D1b5bYH4qgVIPBZNlML7vKJgwR+eDzqZr2cPybbWJNbVX/yms64PHKbq1zpj+QcGHJWC6Qt4Egl6bQUH9AXmZfG0WMMKDphZLJP9jBLAmwO3K1zqPkBDgu9noO8I03w2GBOYaOV2PtxHPYznCpygjFMUkq1i2bDK2e9hLX2hw5IXhr/u9ur5IfkzEVq9yK8+2ztYRiFXu6lLEqvqOHnkc9cToyAGnB+4y+9iKujTYDwYylaFtVA/J3cFecEYOODgubeJYaPQtuNLoQ02foEcIqM4rLb51JfLr+qMHIWAoJjimGmGq2Rb6ss39riwLGQjQAZnX5Sz+rH3adbl1FkvHUHsYxjDq5GWFED3LISUhvzbnYVeIKPpaQyp0npXCBuBlnyplNhZFno5tiU/NY48tfmts0hNPd9sULgeav0+bzlde97esG88G0NbaU3ZnT7ZqTk8/JgHevsDORPq3N7fXZgFuVtFpGo5B8w+6gRwU/MMvNkjINAnq4RQHD8qLG2Lk75spiRxQAsbRTIwGTXGKFSz0tdzvxdXMcmaRPlbmw91dqrFhbKoE1x1HqtqlHuijl5RWUZ+0Kc4ylzsY6q+FvxXwxRfdJqjm5qH2M7xNt1sJmNteo6wp3gbSVkIAw8Pyi9Di0CpadNiALp/n8KnZVEp6KplZLiHxvu2+hkDHfjAd4E4Rx3TAca/Hw5Z7Lj44rq5PAeyvA6CkvvSB8v9iFLYvyxA6C0L6k/4pgNt1yPtSqqwVBfo2rdijC1wIJ3b17Tm//UALw2e9WtXSfvAJwFW1ssCAPk7rEUg45/wQfrlZgX8D2R+f7fMhUzsj4cxjCAZkm9azCa7K5sZ1Nb+WgmxG8LZdtkdz+welYEaC/GMSZ2uM+Z1UwNaDNwxjSf12ICdTp7HqT6ADwLd0HOK2HGbkTEpbiYDrRywuFdaAL9ebb8clmKIV3sF6V8XMPZW07DnVG/PBjvuptMw0qHKnsvaB4raoGr1BpgEYoV6suK5oPoYsYFDPIz0lPYWjjH61Mp5gBDO/QgguvnIaPmuo9ycFuljmNeAJOCua+1kIdBX4H2fd4WoW/hhGhB1gC6Nnwl8XuE7UIfdspWohxYi2f8HuAQ14N1Y9p8R1w+FyEF1cQifswEC7uOngwujawSc851zy8aCP4Z2I5vPpFCf1yE8JaCRhyKiIrTtGfJZP5Z8VVoFINZs1O3SgZRADoA4TV0j27wvLQJs5hRdOBy172CHSr9N0NfPYW5nufx4IuTAR0lg7SAH+eqMaSCgSmcS13ixjNiRkJlOnPRCVJfroQd+O9K7eoRUG+7BCvrMKwA9SlexDhzTEywbo6t3b2Egp18I1rqsk+ExVnP7voXirNB+Z2oorigyiZKLlcfAgwIGNvQHlEGVxIWtxMKZzTNxJT7ffRMgyxn5pzLZ51s/bFnMQ/TDO2BU9IrFO5YQ1HvNOnW+cB2FDv3qG07qRxUUKU0OemQgZavobgncEnmEh5exmJBUG5P3yKs62e0WTOCiGpeR9XE8fZESmKvpOOgWCnTELDCmw6OKPJh7YUSovQAIb47pumw6L3i7us5LqPy2NuIJbEzUiEv5meuE2oEEoPs4NUOY09JQCzVwWt0CKm3n/npCduP56N39uB/9F8MdD/MR45jkGIARengXhZnub/4RpFIpsuu3dfDgK6JltDA0U1yJijV+IjnfrjlC2tR6CTfEG9gGFkNy2l8CMWSlHyesmtKCrOeY+zpnO6bLQj5+VDgjp/jDql2fqtS7WigMduA4MGKygrIdWlDjqUnUK77PggyD3kWsFA8d2XxpBC+jNjAreCvR5IKRHU3oYgXWKBz20cDdEWSMM35cjUQp2tc6cHiH6IXOckbynF1EX1t9suVsJQ4i/C588L+Jxyik14uf6NhMrr+IWlLIVD23sn5XDZVAC2G9ovrFmcZ2u6FyST4OFh7cu0XZ6wVLlcWxhfT4HniwVqxcW+G8m29ygAoaZ5M3Kt1eb3IcY6jlhIc6Ej5nI/oOx8L+ml5WM8IonnjAZOFnKZ1dQX7HxzfXAN1LP+f1mU9jSAOLxmOW83yXhFxO8smashOdDqRWdPvV49mtLLl3o9qPsS9kuur/7tST9WNlMOgXZkrBUr7zAHG7P7DYtV73+NcYd+mcHFtAAQnyENjtTuMLSzJVknIeEPlYlHYpEA6Yb49C5XqhOn08PwuFhVC/K/BnPGmebgbPw/IpSsKCETpWoyz7vSxKEQT8s8mX7uV5pRBRdalHYUYEglF0xDEnzlJ6dWG3SORHF8+KTde/GPc4CREFEwOtv+vW6tuwLe4oEgvhz3j+BhXA98O31ul6ZYX5Bo/TdWxeogOQUcpnKJj0wjE/fGKs4/Wk6/I3ZQP9hi+9EfIrNQteHxQE9xGAzQ5Ot9QnelX8QAQCAWBOyRdDYkggo0H+nlaq5+df7xJZvqEFTvUVIqsPZAJJPThFAIG95u86BB/aWwXYW3qazP3stF7aidX0u94Z96zFXa8/K7LN2Y41rkG5evSfGMAeBggG1PvFwpXk3h3EWWcNipMbYneGLpNd6zTk9Sy9aABNj0U75B/0mnQPf8clQrGePW9QgIkbKxCaVIrELHaiCIlkY6PVDDNgB2EXitnFWctA72VrIoOCks4iYSRBkzK2DuGSngP90lb4lulPpyH4tUadOof6w01zTe+i9VzDovRCNAkCkxR9wBBgWfYJNd//6ZWtiHuvU05gB31xlfZ6wmCefU5jFHpYhzVOf4Tje7+MynSzR1L248JU1c6/X6Wup06Y8kHH780wg7qET3jrb6TRzCoTYYLFOwNNKTcY9DlsZtEVUO6RuOmx/ofqUN6vDSgB6/DEF9I6VCvwwfY/nbUOVQ74e091ZVi6VkO+zCuzl6KWnWrd3mY0JyjmdWEWhBkv5fll6v8/i3dYKYFsf5OW6vY+U7uMiYo5eyxDyyrjpvjzXbo06RHTo9gETDqEH4T30OM32YaahS06h7EuFWTFCpFBJGym3QZzDKQvsc0spEKkSgUvWQjF7E9TwMfRH7IUe4oEG8Dg8c/RHAsPWdnydcksYZq9TvgoCKioQ6lBSb4UkBQW2gv/x83J5MuDODn5efNp8oF5+oANvsjD2QlPlv4oWmGS/9fog/o1t8QHOYGfThsoDO+GlMXmQcJluyLlOf3QO/SKCvDMn5sH9J6GYj8RkKynmHMSUmU4hK8iOnmNrs0FBqOVdbSVMOrmFCuCigMd6Q9aVc5PoMCLkRUTQj0oFoTlYrp4PN/oqx8SMiCJ6KmvcI323mtVNW9vCZHJc+6EXTOgWoaqFz56ymCFELzoI4iCsrdihxynw0NKDo8W4hpGxDT3/aCKww4AgAeJAYh4uM9fJstAI5Yw8y5Hu9LBTLmbNuze8wbPvu5FDMGMcgvJxWZdl8jok6Jx0JKsQY8JTPg+LH2CABzYYymNmRFjnpG8G7TmPOHRbB5H+/Vg2r/v/jNevTWZFVkrsbFtgKk3jlQPwsQFgE365Pd82mI3BpJ/eE5LeAu/Vyx5UZeH5URXyNEnbZnxfphPzTw7AX81hMnC3x/T14AkoSMZM05HOtQSzpj1Oj5KbVYXoDm+2s+7N0pwBYL8fwdcr3QFFterx6UQEXL2LEwy22e4OFinWgfpqp2ipm6uQObplt2EqbKN4ZmKFc8KvvZ9FEWMZhKZcnUT9ekY1lKJrhsQhXGvCzo18XxNL3Lj0yFDTHsaRyhQ9GPzeUfDWcxZu65NnHaind6SHXVAMQNJrf1r5mRNS04+s6/QEFgjedRSexg4bHPbKcHzuWGvo0IN1Pq06zTt2GJkd/y2uR3b9HmOsWQDEFwztHGTA3A64fz+vz+fz9UvrdqrCzZWrz7acjSN0uOrBvwt+ngVdlpsZe1KZCfxfo+c9XWAAwIAX8V6/AaxvpwcgRsMkg390AO7nUojNBpvV2JVtYcaJ2BREPRRaYOtC1noONnxOFngHysGOzVVBe2VI+O3AxGtot/v2rsfPpD/tjta6/ztAWKlQL63uzSA0mXsuca272+tYjFmv9UC5bi56gK5CxZtxsc5KLAJu4egXxesBRX7OjyKseHgbiPmYNdTHzG3vR9+3bHSIzr2UXHdb3trZPXfoA7AjsFDpF9jzaEXC9l3JsAPKgD30f+xyfTyjzknx+5ip/u1o3Dqim5BtZqJXUEKJZS2deO0gUtAnAUQ+of47VvpTnekRnRzOf7EYdmzX6/XZP9Pr9Xh96ZkIrnHxxP1Ko7B6vUH6r++Dej89H5gZW2K37X0mATaC7nee+iZM9rij8U/if5NRpsdU2YzP7f6PDsBfjXlOPnRymhefUr8X+3uaWyxs43a1uuBGDcIWkH3Bs2wLDgJ6+Fy1FWVAj6RZlz9YA1WPSahAGT+eEkBjq0BctXqVFwZveQUXvUwuHwRsPZUluL2AzDs6OkJ+QDrRO6WBhfaf0jJnBZ3GJHAmFIc/WzpwnVz71IpGzquODBDBUeBLTH4UoQ+GfMBwgoS9uMia1wj0y5Mg3KyQEEUve2QL9VVHpYex1wO1D58RKonPfsRQkp1mHYG8uDGti06Y/pnrdKyI/GM9LrKjpOFwSavT9hxz9h1dbpt2KGWvUEng8QD+nzoA3yY4jSChOJ8+zan/yf26lulaodvtwo0BbBHAcr2J69ty1iTCZ/L3r5ev0HHZrjcbEoYUVLR3HpbS/+EB+GsCVKAYOR03lgVvDRohSMJsE96kdvtJQwwpoUuNWaVi2YSKeVEuKPrlwtaDkhaBnDpMk4iPuNvcnluRg2P7nzrw4lgPqxOyoKbHsK+OB6PEWkq1lDGvnZUE0BCtdaCWbkTMb6H9gqn7k+Jur+u96Ckpj4dab2PEoKtIB1FfNc7kkeczmuiD2IUeQ1EIcl6EHvdnAbieYT+aNzqAViUUUdBbtZjpkmYxBv08gn1RuT+w0zgyBlYr+Refl7YT9eldIgoMvX76WOnIcVx1/2cnSMOWl2AF285CEmIptZlrenvmr797nioJbIEhUUdl/83G3VYO2/N5Ty3LOoEmL859OAbfJjG/6niYWPPp8aHH9aAIZBLBnAAjAf/x/P/XAbizI9zwZck1DxOGOLy5UofJvp+KDUKTDaRNXKhLtwfzq1eK1S/BUOUAVO3fqz+QADroCIZ2Cd2yoh8k4jYIljuAVM94fZ8WbipK3QrUXaEXoCAc0WSzxtzgKf/3LcPc86hQsgiWjUPMBYhJw66jlo8+N0tdo9CfjpRns7vPzzhVz3Vh43tBeGs3X4JhjFC+vV9CNAmIKKShhOApN+3dIPTAEtJIccIxGdwpd4QhUFM2DrLg9jR0Vl5cVjHZQjGIKJTFZUReUq6fMQRIKZseXH0RgPYZqAQt7YqqxOVLYviK8+XXfvuLeW9v6ks22Olup2qr9wrrm9XqzC7ErIGb7fIqU2lR8JqQRCR527Y2K/6KFRT2BAYff/31zyMAIePcA7GegAdNmC35waT5lJCR0gG4fuhN04lmXM09FbjOd2OdWdmWPLfvbRJYdh+0ox3GIEwKILDf9kspeQxjVCadlV2T0xXbsWkuK6vD7XhE3UPT76/R7I7sV7A4grozcvJi8nF4WlOWyULmtnQ86CUoyit6iOV1+nudkuyo2wow7LnjtLHXwbwZFIMVUZqHjIxTspl3RB+GiM97mbPoPL7f4Rzv6gasfTIbBXtafDvq8yx9G2yTW5/mWUVW93Uq0yA2RBQpXa9jwRrRoO/6qTiGKMwuyPx/zBAfX/KmjF2LOzMSAOq31c7plHB30L2KOTCT/6xsjQfIxm6gYr0e/3162H7/KQ7C/s7tig3UPz4Aj8aWwPlAfeKHDaADL6sAFbwxiqQI9ASj6olPNKNv/nSTRjmwmUT5aFGW7ROD8txrY5hz7xxzm+2u5J6CnnHr0qmyw7hvrkrKeVHkngfF67XsXMgKkbhhtJX9fhUHRGxJx0DsDqV+0Yq54yO6lErMSYdBASAw5r3P9TzMqIDFI6dqVzJfmBZ1SaAvsv83o8HFlNdAypjFH3qcYRbxNaEAN1DE2ftumTudwc7P0ezN+tUUbNlpQtZiFxNhjWRH90+JP6dSx3woxT2jzy/OHRNodfRbL/AZkXrR1W/bminA6pflJR4TvxxQHs2ttUpLuirEexN7oZ1bIPjFABjWbBsD+bjD2R63AMG1ajD5oY9nIyEnmxMK4Jk1/yICIBMCb/A2giDA+XKAiuqJPjCOAtSbijfBEPcRDMQm2rVho0ANO3QAT53RV/DhNTWHaI8f2BIJrXI4bZRW93sVV2733Tx4FamXihDukGGn0NMhtjt7IABQGhCWdQCSnu6C/s4+x6XztcAbWUDPIa5ZV91FMfiSBKpo6/RdCs/ryw9ibgiPUPbtxeJp/iEOriwd2A9eZqXpjjYx0CGJgTjPl+vmoDfZU+yddYPNTMaG+llnVCAb19kcUVGHWMr+tPktoVOXQvFirSX53UXf1aAMsZM6HgO+GXSLvWL35Xp98Q9mY19ah3c0PdzBEMjVOnKvzTayGxE8W9zgwk3BDB38DY95gT6RQz5QBID6DcTsZjI/E0KP19f0/s8q0P8+AKAIEwwU1ENi8NCXabjlxZ7/9UPjgfYkFefwtR+Ar5Gv9V0y1upYT/a0+zinow/iZu7AT9isEbvWrWVFGL/eC/RsVkhldXs1TSC8E4e4dYxRdEr1dRauF42K8zqzPeDrrWe9UxerrArQr+rZp3BUKeStEmno2lrpV5SsbPGIyYtKCOgvM2um7HvB2QkBI/FFeUfBYk5dZFWYHc7V5j7o7aEexgjhLG7o3UopyMSEBVzGFubX2wTjzgQDO5zPzZZWOp3BGsTYK8o9S1mfcRWwSEOpP35d16U/xBmWoAfPr4tZzGA4ePpaQLpY6GDvFkpOe5c6C0yeDuDmlU3ftifKmt75mL1u/3QXGdhezYSH53Z9K/lvr0sFEni9psc/PwAvOsL0j88BYJ0oIorxEJ2FMFXHOTNOfLChBJyOFavwlMTKPmBv4BwiaGxpiLWnIEKwCiSx6QqCCiz2rJ3ywUg/2AuQDWlZxY50nZX+9cTTXifmOiK73PUSw4LM7hiZ/KfCHvdR52WJVRKVKNfyWodUF0vidPKX2zVNoghPGkemyq97nOfsWNNiYHAOFiN6GnypW7e+XpF/WqOFi0MXPotkjooY2H3qks+mEp9sFRCf+73HCGfwTiFoz7HEcSs8eGzEF4xxXToIcGWddRD9EOAILIjSTtA98Hry18vrOwI05nnHUuPLlyMXPF/Nug2Zl4PrdRP8OpX/kfKrPjfcQ+yqXpvKEj6uPRfb6jmX+xQ9wAOX6fG6//VvIsD0YJe4sQoCM+XACNs6oggNLrUgQz+CijM6MNURsA6akKloSapsDFgwUKgzpXA9VVG3elf62wfGhAsTA8zyJOVd3aL96ZAPZIMwCTDoVRWvKtMg2uX0XPRwz96NMn7BUEjkIuiA6FTdL7gpjnHVBwsnLuGV26KbdakUroXnHZskuuWUHcQidEAi2lOZGk1aTq0oAcOBZz4zJDamHg8zlv+PKJQR2Q3fbQC576ESz0WZnmJw0EeNrPKjguW2Kun5dwMKqWHsl33UES+UiJf5LfigDChwqI8SJfgo+D/xF7m+Xt9E8KwEMkTRfoK3ws7GsK1NgIn1BQYv8PSwNa/3+8rkP/8glXgzkz9d3fftYq38Rv9ppldjqODfHIC/bl8CEQ1tIZ2G181GTQ/TiKHb9IadOGUefTFq1B8/HbaIzjDLEnYUj2vPglD5eDH/DeUzz0S8ToYOyG4a2EsoaVai9Ohk6BXsmchOadFTzDofUSlAr3xGKJxOWl+iHnzq13HwaK5g2VqWhaLD/XorTxEGb4Nhzxe2lndklga85xKebK4fSxj96AXf23496P+0zG0KEXZPPWnHIQjHqq+LcrnLaVAw8KgIF1YCY5znWQfomJWybA+FNnQJs85xGMoeKmY5ihPSYMidx28rw3XtE02GTp9P0GLYi9ionvDVkN95AK6vyw+HA+8H35aqNExfCVMdvMCoQSDUckOarTm9wLZw5ZTwpE0g/Ko7zxYuleCzl3+KgzX/tQjw/zkAQMCzeHSzWRJ6Cw49AlHDK3UgfUPBozoABTS9WutH24AYqmV4nusMR/zN90DdG8e72JYg/NyyIGW+WYsCp2I8pmFgrNkVPR0OgJ4Cngv9NufowjMvW5z1IiompzV1TIPTzR1FHa5C5GW6l7ytKbtlrVJXKlMEfipJjqV6ilcKZvZrKvoqGeRAtglrMhTI9S7uvOT9zARPT5fhYLqbAdDeuYh2ZX+s/MlOfABmKBDtwpBLl2ACTmT/ea3EbRJrjviFOZZ8bbRkUFgLjCluw0qJ+hA1fj+rEwFcnlfzGeR/pxnq41U4ASEAAA97hdEFd+YZzjqWN80Giwu3U8bTnwv9XHVmNbfmPd2sGExP99rQh23++jcHQOn/RS25qazHOMHtqvfrSsWfQbR39S4vMkO5OTfZrIIpTHMAlsoqXOgChKV1EVuLj6h/Gpa3YD/yofijFlPLzQvOqAsPvWqVa/FTFVJYlAKG3Ae92RXBQwWIPfuYV58wlyji1fuSx30VneiLEsd0FNvTcsf2rPPjfi9DyL3QwbaIBcbRvmReBuE/kMVx1MKcOiqC/ZuonzAAC4lKQCZFyN5QRKdmXI8U2eVhGEWcAMl/GMpKi2DA357GlLgLc2Qj21SXkHe0x2lEDu2ooMMocseeow/kfxxR6qDXktKPpX97+AoB19fpZ3inzevf9WsTGSg4NZkdAEMAygohsK69nfaeRyW4xtSIqTli7Pd6oBFVWTWf0r31dAji0787ADdoAOPGV3+h0cOIwf0ePpNd/9C+H6fuzvRmW+GtUOAflq2AA+YuTFXYsddQ6Riwz7e446AzvKOVRZ23ZVHGM9K11Bahqe7P6GYoPEDrUdgdyq2fURep6dCISfl+GXUSalaERuV/0x5EihIpvj4pSqIMtzHsXSMjgD21HuxwzSXwpYIZwqbYHUec9dmg9lXvyhBRnxADPFAnyfQfPTL2KBQhEJqWuUvzmNpx2ZnkCwtq82y4dnu9sDBSLxfxsAHLs11gsk0Cs20a3cBWeqqfISCNK/qA1vbrfOoWBF5PIwGX65ehIcZP51a4uX01tNqfVGLeSAd/y3Qp+XtGNhQRJuQbEHR5bi8KxqIMfPjEsFhTURds/jsG/N8YYHtUJhN02FLo+32jwjRN9+bhHa2g6a6v+WDi5B1wK6BPGUhWmwssNb8FYYbgs9vwgvP73iKDU2+lVIllkbUbBv4GWV5ksUNX0+Xlge+rFQrSXtI4r7HMggc+pUJLgMFdV+vuBkZK9Lou+CyY72YtgK8AopSNiGyuB9a+mP7A9HXGinCvc4VIoaK6R4NScZ3N8tiTfpCA6vuMgew8Ku5k0Q5B0X0u45qO2VaSenHJSMsBgcm9psiQ2DjW11iFDmOND0LuazwI65axz5FdeP3wi7tF8WV8aPVoP+lJ7D89ZnnDvCZ/edrdN+upBidmYwhQqNukeN+uMm24t8AYNXo2t9AOhS6IJJiZ38NsP22HxISeGOzxiOf+9de/wwDTuRAkSqHv4WYLAqY6KzDxouVAKXJ63Cdo4HR7kyYUARxdwI8YLhLHTLtxlPGMdYtpXuCDubMmAglchNCZpBo6XcR5XTBtRJYTN0XdFZG7zg+3Gas5Pz77HA9aw14QDUEd/XV+kkfYASEE1GtXsPvrx2COEHO/OyxfdQIymzc55zrXSU9j9UNk+nzTLe/W1eEVKKzJAIHQW1FGx8B0xcXQhX3NiEOyIMJoYFwL+yZ118bZsVIKi9xdpEzI1Otn7IObXa3Yv+GGOrD3j2am4M1S8fG9q/T8n6fLvBFA3rh9yxo/7pdqcKVGIsJMYA9r+x/oMCIXYCP/1eRozkEOtun9Pm7H+3jfmgfxfrJpUGq4pvJJoeD2X/qAfzgAlW0FIxZAtRnl2Ga7CPNTHXqYablHufrReJYCSATYlNmMiiJc62tfCvMuC2KneMhnUaSMkwhImb5P0eMcvZH2+u31+qGggX8Mq//C+KjCKgq7IfkSsektR1RewN4DWJWTORE9C27bTJXVpsu9sjisi3hF+htdzyTUL0Y56rBRiW33tI9JJF9MU5/DL8KU43ZEJZUO9VGlBex9xz5T3Y3oSZyDAruAqWi/r0N8jsr+OjL9nNZMsKcNNKJvk+/3p8KUElg6hiEeqR98z5jcWnx0bGtX1xDOsH+F9XP/X+Y4/5ouX6LGlwtr987m8MFW/hTnEOWj1Y4ouA8Hut22n4FWI4sfrArqo00cwvyCm+nUh25ODND86wNgPjPsntFMtkFhf52qg8Yfe0hMIzEmZFoVmw6rd0fAuFp3PgdgQDmW3bZfBfFplOhgLNgMKhbrT/sKGs3OtouL8JJNZQhIOZbq9ThKzl1GdnNd1hRi7gUFQ9UhFiEKoMu80IdjPVApl2VSAfSaoe65M5f3PoDNBj1NhZieSeCzhD8g4NXp4axucAeC8DoCz7jZlGYZhvpgsgQPuTrzGcX7Fx1WhhXnek+z4CgiwkwZrTOiFUR/5aVY5zEw9oqJWF3pBx8WZt+Vu5Ie4FpO92IQ/5n4zw7A9eR/34Vgk7ZqjuLLc2pt78NqgkjEmFIXemBUYyaTBqQoaIp+jbcLWSl+sJ1hU5tU8SCBnkLRY/uXKcDsY/UNsCoKn3hM5yGcjul6YyVJB46hNcUff0XHFAub8FY+Ku42oF37OZYK97OPiQKyDOQoDgoOBoR9aAnihkSMFezvOjeMirloM9a2upFDInSyy9kN1au6vKa8zrVjfTswFQ7ys8lvprVGQq5pSfUWAO73mdZel0KXn7WBikDxyapOIu99wai9RzN2hO2nnJ/LddbFjmtM5vc5GFIF5PeDlSHyEGedJlGSoEPAxHcXlLnghPadhPp5j/eShjHl4JSskD9YMIYQDHzeXzbwc/369TxPwFkDsghAIfjr12CK0N4WsgX8izWDbDbw9qHIa/K/uppuMo/IzUzCrC+sAyDaeJsE/l6I+dEkslLu469/dwAuDIbebNnEZCV0xjaTH0Sk3L3fzIYdqBXTuHaIUFKv2HAPYbHpIwSjNBAwwQtt6w4lgyNn/WkUfm49o1RKAotbwe5JjzCIeg1tPw67Eq5y9+r2YjKyXcXM9NkyS0c3iJhnrh/qMMa3WQhS4C9uT1QG5j7ttn/S92tuh96NQngI8+pRmHS9mOCOKFiHJOcecwxbFzdBi6RYIKxIwZZitT7hyBsri2K9G7rARGqI6JIIrwwJ4xEqvkKaDuGneLXFh0pBST9956dt2VfBnu14NY+vlt95AC7p8pX6iQAAASsE/VK31L0x3yZdM/anqkYB4JheZuSLQbDpwuqv38iBK9YKAqDi5MP2QM8X6m6Gf2yNThgGNs30Lw8AaLIyqzmUw5EHL41Zx4bNFOM4DOhCuKkp18/H3d4sBpAXAiRPp+Hj3+1y2PSriNAHlQd3DKyLitZ2WAks1TjoRaU6Tnk2zihyGNRfrMO+s8/bl+qrY65XqOKGUiLM3YkW+vMAoP+zpKmrFKb3p1CYnkM3JCrOkfnNvR3Nh5TCQxTfj2O7JJbN61XZpF8H74c0DYk04/Y1CSt2ASXwOqMUCvgXaehcN8+biJxf+lXUYbXxpFmcsWcGNKZTqfCSO+qXOmIC8kN+DpU/v/2z5n8S/hdF4NflOwBc7cf7pXRe6BkjwvKiD4fqD4I8h5D+8a7MvTNQjaUUoJh8YCnOEEbY/FU3lwVeM/Y19Bdu0/8sA/5/DsC9udGIOD1iHvYplFKUxb+spEQMjJu8RAxv4ITt+j6ag5oAwx4M/SnPI4BVudVhItP6NrqVtaesu+p3PHpdJzSYhlVZelfemJ9HFS2vM3jPZlVpy+u0ZD/7JG//rKOoXJ11BnbTYj0lQvz6dFH5VgBtvZpU5FzTZMtLEmCsx09PoWCpmfWLGNb3YVsV1fUoRQB1l5c6JPHLGFF/RqRI7GGGXOikrLSMEhhwTkwhdSvlypC88KsfOh2BMcxOacKcrC4v5lz17SgLLD4pTn9Veb/qfpevmw8PuL6+m0H6w/uXxrFYQGDGs0F3jft96KYfpsSsWHo1lQ5ogM38vSrT/wgvCjR7aJpTJE4QDvL/oJL7aP5TFuCPB+DRIBI5XdgBrGxbsGKsHJkgMsN1wq/YVJ/uD5rFTQlvdAoKskYlBYrBbtlq5/etc5sOwWdYqyp6U8gzjyRGrJGL7YSgxpBqJc597X0lHFaisuYQcFXjlpzX/+TJUxW3pVro5NCXoTsv4oelm/Bpc0l5egqkC0T03asbX/mJyWenfOGCuJ4+Li579ijAjl68Ig0sBii3zykpwosRxlj2sRTRRSX1XTFKf92tLfrlc6fTcIiyhjV5l8bCNElccx73jo3+euT569/p5V6eTbGuiqV6fbV6DPu/vop/xgOgAhYNXl9NgMdZC759kF9XpF+U2Hdy+abX2yHFhQILxm2bbXqg2GNLQt7M3Gxa+D2Zv+OZuJtzy+9/koD/3wHg8lcmMHx74jlY3cp0QDK5+6wo3u+o0033y81bcZp50OqNpxE6rkb0bf7L8zC9QmrxqQ0BRwWl0KD4eIsixk4R2XeizqgmJBHGpQ+KvCPG8/51fT5fz9f118Qk/szvvLDgxaAoWm5IAS11P/S5yu763CACp6WU8PdQrXO77AgA6fvZR9GJgQHREKPvq6pDw2FkMCxOuv6pFb/Y4hjWNtZ7LpB2BfO1XpUceszs6hresqIbLw4rXqhPJVia9lCjRgYRvF/KpWyla5+hHQZRKEv/J+l/Xs6k/7yep8Dg3+16+0IAFgXEA6u2AKUOAenFSMB2rlpVKHKAv3gMVINtVSdcQQQYRB6m7G2LHKB2xoEmgPz/rAP9zwPwF5JCp9lowySav3qbDaIZadLQhx6/Mx3baXpVBKD3hrk8a+Qt6K81Xegx1PpBhpbp28F3tQJDXNpO4bYS9dftmX1emcuOeqnmiJQSqBsBcfauK12QJwDJXkRFy4dlhCAUiHufMsc6o+w+7LOy8tHnMJwukKNRQV+71JbkV/Z2zuY9Us4r+p5DETlA0if7HkGpDSUhdhRjCqvyFApk7ZoXh7VoVMSfM33JcXA0KBW0BCuGGmkiZ/uIY0zMKWbq0BVNwmfxnY+v11f4t4d+PSngFxqwAsDl/P/Lt9XNXT/qXa80e1ZskHDzRbpqRiyABmD+t+kDmmm8bmNjPQKGxrzpQ5lyk9XsbL/rZc3AfxsB/rpdcBlpquuVYZPDSorbkwLQBP3X9d/a9hO2d+tsYAFWgH60MMtzF70LGJzqybfkAswvlaaXo1IGrzBNFicodVWnQz9ZB9OnTbMqSoxtXNntypHfba/zJfpKAvZScRaqsqIfiwjQmBfdVix/d7OZX7Ge7PueAzDUaDHGYw9zPaZudCnhS6Uwv7ZL0cVZCx+zMxW2rXVKSlKd0JwPQpmBaZY9dN3hO/Y+Y81oWjdklCzrvDIcGhOaovmZYPtT2BXP8CwI+ADVVRjC82vUh0D/fF6/Kz9nKviif5fTb/Db+pwzME1vxVB9jtaMoxk0aD8ieGhDAQ+xAqqYBQjXDZne4/QIs+r9bTpQeGdJ8GZKL81/MQv7BwcABAm5uClAMR3kbfCo8W+bCLk+7gIq4v36D6QENbkJJhjO6TAdDiSvUAxGzBpE6Mi3wrGxFS5zJUX2AdYyZF0w4SVxrbg+Rbd1XzufdEOXGObrd5GcV4n1ya8p6jLOps4rwBBHG/jRdRTHA9EhPDzOr3vDGvlTWXhLAg3LUcYyLwhLrINCZ94rP4yiokOvj/N+HEXwKzZT8BAKLJcpVJEA2OwpsTuWnKgXVJ2JPdYj4+jOttDEzdIgfITNzGIb8GKJWLxcvw6uTX1c2f25JKsE0QJ+vl6vX4nty/Pmiwo2GG0zPydqjN6KmPMRrBbMDQPkHYfg/Rvx+I3p4K2ymN/ACyuKtwwS2NwIfO5x8//6AHBskIe5NO+3gU6aAxWGtKz+hqq5v83LGAtLZCEOMxq0yiWda0bg9YBrV9ESYD6mdaZ02HtF5MQG/LbpJMQRu4RqDGbBNKQ4x7ijoVCzCFrsijwu369T0iv5sDPwenadH+estLwC8ItOALPBgxtXz664QMCgS9wClRWd65LyEtZoqkAelajYinxQyFeKX6IoYFp1j1YXM3ZW+P6G+hiy0OnQte2BlVS/l3EZIqZnqR4xeo34i7ON2CdKY1tU5mou9w2h7HeVqpP9KfifsC89LfmfoeyrBtj8MLw6pwH063D7hzpKe7gnivFZkeywXTA6AxtLGjWNedqDDImYb5ApB6ImtdkckP7vZSMCzX/ZCv8HBwBFKQaP3lYGMNeQyruG0RO+1v1ubWAFBHZBhQT80Tz8CQ+3VshlgQ/YXECLk6RbPghIxCMKJebk1sHhKLTXs0OWVewcy8BBf8OciF5qhdnyOhP/rxjQP8+Iybl4dsPaMQpcLQr7o05Arf/OQhGjOHs7tKUdu7lMmRG8bn/yqP28M+nHTngWlCttP7CnQnMvC5coxVvCP0RaHHuqrt6iKzQAe93wednjs2tr3M1Bgyyor8KZOqv6nF2ZpiJGKjR6v3hF/+9Vn9fTWj9n6tf3Hfkhft1+PC4tAUAfvo+BOBY0etfdQSx+YDXAK2jp+e7YNKLKiUGLTetTMmBD9HObrGugiIye33sygUccI5v/nQH+9wGgiHi7kFhu73fi+WMqDCsA77/fjU7Au6ZY2eJyxmTwKVgEWH0j5HdUR1WOhdZQ+6ESkBTGGBja6rL6vFiXgF4+S+FHD6/zM8bRicHsdt2X8nr8bWHqRNBf2fOqqMsYhvIM3j9mJTGMyLgD+Ls2Uo91WwkKD/VWBWT8nVCimNnkhuHYFEJ00cVVhiHnVlTl0OuIUanvl75rdzOIWXUg0e0fYo8JVC1ImPExxPHa9YL+OoHXtIlRZl+Ph37Kbt3d/eWO6cxVTHw9n9z859kHsDXg16+gdvltc/XL5vJCAxbdUCAMFffyViDFj4tSLOpwthCqkPA53sdWpk+jO/k0j1CaBQ/Wgm8Pk/VvJtsT/fcH4GFUwlQnP2/zH7QRFH9FDaQKV/do9PSvdCesEcDEojUuWARXUqhrl90HAIMOxscjHuJ7dNdqMxZmGqwENDYXhMB0ylkOFf3r9rUEEfLkynZuSby+fOE5Ac8TM9n9uflUIcmq6DEsSSkaQz/kBGp6C3XwmY1MQf/CBlpwgvL88+xFOldMadELEfwb6y7MaVzxbYgLWlKxa3Pq+o15pq7F9R15QrZVFAQWuvwIAiwruqPzWrboU/l/zL2LgqNGtrSbJAmoEIgWAgQkUO//lie+lbqV99nze+z27Gnb7e7q6iqJXLmusSLqS3U/O1pYpzN4/Q+zTedPBkDFnwbBz+H/W9j+JX6mDwy+r6a+TzrxhM7DmsCoBQPKVGSlwQItX+ZiyYqASgD2vwfj7zJuIGcC8Pju9q8YAG0AGzjr2k+l9QVtAYi+AFG+Ga+rRR7yKcMEKUUBNTjHHR0x2e+qg8wo2eUAjj1TFnOhmyUT0J1UXhPnCCWvamc0tGblV3Pm49QfAZXI7HIvXmtTY7pKSqHahwU8gsI99r8U8b/OcgcQMqjyQoMGfUIl+EeMxgDm63uXTSrfKPI3JfkUj8elvshvXLZfKkDOSu6zr3iAQL/lM3OCcOp+OUSDL9NduWCUw/Cn+bLZXnA95x4VPDgM/QXCvwlKn4spY8/yO/t75csGADKCSd7//hHRHuLmr8N/y98VMlfV0sH4V00XFlSgC0ezKxJnq9EGeFvIsGzvcK1Lgs9dkyhBH3AQ4j//+/dDAN1fFRMrxACH8cywYeoadAsVFxYVm1csYjUwmslZ8RKN15CBL32eWId+1T2R+++PE+vi1Xrk2XnyDtA0b44hnazgEk8qBGcWw2pwGXXtw3Bfkj98/FsWdFHvU9G+qid7unFWFW+L47cwgypSyVZv9+iubAkBDKrqum5mJGen/J4DyYDrSTXKqd+yU7ipFNm+Jpj5hsuAatvldAsXWJ1iF/MpnLd+UjXoayBpm8rOOq9D3p/pEJ96+ECVwIQjklwq/zyfw1GHS1cUryGGEn45/nvCAaWm/2sJ7Clz+Dj/JHOHHKuHTDMDDjw/WBeyJdt9lAum8kInViZRIuLBoi6ADGNtgM59aRNAh5UArODfN4A0BLCiwmxr7ForPQEkmwhdKOm4r8ZOqwvgVhbdkLkOQR7gJh+BNAitDL9uIYWGCsFESAOUfhlKRFn6ptMPTM6DqvkANXc8hQMahfBsjj4G5dY2+WXFsz3FIoWGdlWhj86HjfOMabaPrh1loIOLpiiQ+VNUgTH7uMQp3n24nw5o+35dZDdRHumksK6TV4lyqW833ThVcRe5CGV+s/4Ww0nYIZXYzLb0kZ9Uo2+3jcHFr746Z8dXvvn+soXTl343N7EPwysEkPkp9P/6sgqgsfX/t+T99SVudX3KnI3XZojHirrcnDEN0OGT98ENBRfXYcvC/N7I+9ni7+5pIhzoynJoi45vHW1psPwXEeBfzgJUBxrU17TkURJBLE7evhl2pxwzbbCYaGHDgJK9YPZj048tGHOsrMEg4T2hP9smAGKqGpVlT3SLdUEvoVfqpVrwNsOyQneR+fnlUr5VoZO3XJ6X55UFJB/QQcXUV6rkzhemyjA5KkgrS+2H9h636jZHr6yinpme3C/z7hXsf/2CRKS/wNjN2DDOx3Sa6vM9V2w6Tb8g+5ncxfDq/tb3aMAcqlk2uoqoyVZ1dtsm9ID1GyWiKmigNpvDHI3X8R3ACstcf7Vt8SPxe5z+S+b2qnNPFqB6ilag1VByBSYUEFZVgjVGsGdwR8hH7uusk/Coxdra+GA14NoED1K8aeXDryYf3vz7BgBRmLMZYDcsRj82IFQQfLtih9W6DuEYrwujQajo5Jv0Mod+yIJ8lyoBuYKJ9bAKfUSvjB6l3HOYZMxuAhXASChSC1wAf+APWBaZz/N0qfUxt5ZPXfiyeKzMPXLBlBAu70TAnQ3IfVYUOR2yJif//iUDYIf5CNNZ+fpXXm9xcco7L6rbppCdT5X8Q7gQmOrbxALyfD7y+5c8Vz8ZYbWqVVaX5psxTMFfJLP4Mpkjg/7LWk9uO5F6bnozvxT6LuFcXciIQP0W7yCg3PVBATSOHxbwuPtPaVvAvOkD5SIPr4sAksKZfHywot/O37LBkLBiaESmLe4mzQfkFFob/xjHnzUCm38RAf4FHqBMpJOmFkyDkS6TDI9Rc+cXjphXq2+Y0f8DuMruEgss+76GylXBYAshI5mpVD5XFR3h6vBfwSsDh6YBKiinrzTXId6zCLWj6WlCoHwvHnrQxXNI9uDQ4vxLM4SEqSjk12GMZ4Hzqf/llLYv12ts4pbXRwUl+3wLMQ53N03zoIz9cskvx7bM8umXHt72mLHC/QVctAYxeILn73Y5jptCiDySUljlJ/1tzr/y2zSzRTB/VTEiLZDfvuQPLl997fopxnFZ3Lt4fa7+vNZ+HrG/uL6yv/Tf4uQcu0c4iH0O3SakClUwJIhXUKhYBoGQ45CjBzs8mIIYRKGl4YA7l7DAMIQwuDWOiH/hAP5FK7gshyJ0abR8T2KizpQiDZG8WlVSXkfr/SpCZRWy9ojGoxvWT70cERvjjjXoua9yhNEz/byrGoAz5IR6rqq/oIjMPTRvrEIw23Loxaf48gDFKxUofkhEF+MjFVj2eDobfccJSogZ6N9X0BNvzmed0bTVytGmS7zLAAZ+EWQk/e1yX39dziGr2fvJet7G7eZV+2e3G9xhX0r/VN0j7l4bMgRoovJHn18uWZi/jlnv+JzHy3aB7eMXSLUsG2heDM0bxWLIv/ujpBlfwf+haPqK/WUR5lDFKvkAJaNVjsw8azYVpIJJIDIeR1KLdBHIp7F1s8QdysQXaMCQNL8vDQjQDeVfM4CRtJ+tI1MaYg44so1km+DOetHoBV6vs0PPgpy02o3MMAWsiXIhAAv2NXUBveEbQDF/25QXzDJwvZ1bCP3FxVuMaG1fpt4PdX+Jl/7ra1jGHyHgdf7Fh1k8nunSRthnQfnPdQVZAOTUxbUY6tO5OuXb5R42tKuN3/Zgw+hcZQH9B3ep6DuCXJ9ZFbhA9f5Vn1RPnKqTv5yVkx6yYNUA0wRZcKU04x6m03mK06xvFW49IiHT15dcF1hid33E+eXJ/GOTwKV8Of6XJX+6/8ZDpVTFzNmHXdbvWY8kJ/LSLASxfxnosxpxnLlmyKCQcGmXxubECHmyrWfEPs1IOxhcyb+KAP+7AVxdU1gnYVoW5SYmFbQ65v5rZ0TUnYK/U5i1wo9toOTwN5oWQ1Sa9WgHoQ3rK1W1gATk7pUgzVncHDhRvWmVBsqbejdd7vWF7dFZOVQdjuXjoo/PyPnTA7wAFHjYmAEppUsLPu/mfIuYsOxh6y9f7YSPD/Go5QKmU+WnekZJRldsUprd+xviz14GOZwuzP5UBswDix/9dPt1iedKcQLygQnhqYvcVDZdlKh/TZMs69cNSZEzKlXbuVJ59EH5sjyQQM+X/xz5FO8MwDasOrBz5L/Vaoy6i56c0upwZPEBtatI++MRjBYw2O4H0D+3xiHJBVY2wIfX1bhhTeaHn/9lEfAvDMDwRKZDATAIBBrHbuy0aFYhFpU5hQC2fg3rjew9Z+qRNledlzUoHvYh03lm1R4ZC/swKXutOHwUhXRYvYsUYGzvzdMwqRyf5WpJ8cYf5/0/jv+dQBdNjK6upv4rbjGbGPW7ph/YD4t3q0QZ8xK7br5Xbder4Kjrk4x05krrwH9l0H3V55n9DVmjPPn8q8qn7Xyb8ksPv8HXNMfhK+R35QtT/XXcL+hh13dIAevJeIFhiJqrs3+Epg8LeBnv9bOyeWUAuv+KgKr4IFTOzCLCTgRlz7qvdzlSRNqPQ+l0F5m5Q9Dr7rEbjjJGBetBKYB17dgSa0zZmWneYEXgv4oA/7sBfJfl0kBMoBSghRx2gKpasX9nGYlwA1blOuqiB9tYChlcsYwFHIRmbgiVSci6fg2nuopQ4rA7rcQ28peqWncyk9PrFZZdFnMdUkA7/TaFOvtVvi//z47pDxtI5cES2RebTl9K28H99HlsJqBZQ/BzH2skgtzQH3fdlvwSThlIsM3PUxZupJ1xzgxYnucMcepKJevl3PfoVkxQRM4x/3XUdT9Nfuqggr3Qgzv/Os2wRqEgJg8Qc1UFuJn2hwP46PqmtO8B+3nX/zLgw0Sie9aIzjkWIP/Y96r2EZas8wG+ZaIoO2A0g4NtBB0NguEBPj+6dMYK5LpgDWBOXgVhayvDf80ARusE6eR9IiZuYIhiyuSHdiU5tIlQN9D3UZ6ickQvl+UwUsKoF4n8jfL+4CpF/GOmOtT/5cH6QWlA0IMHH0qCLj/s5vNFtd+sK+zO2eWZAhbPsy/eDuHDBK6yUvnXCFVEHUjCdbDnPqy2Zltc9TIgnY3LTYlGZkSWmZ8BI4TzhVjhT/wNGEm+5jkPmw52quMt//WlsO6nIcb1fkEQlnJflcDldlLoZzn5NMU5R4au+rowDx5kTxz/YKR/y6v+5zfdZwL4SmAeGUCpoJjnFRJ7cK3H2pfX685HGJeqqq5R4VZufWQD29fRxEMtCWDubypukcTfYGDGJZzWuRpb6CEI/FUDKAEEuMJEx9EkXN3OHojMYM3WjisvV8WkT+kJx29VCwyoSJyxHuBNBCmaBHqFBDpX/24rY5NcAPLDSgFyN6EQfPM0g46bTOR2i+7VKXuMgf7gAtLPpVucUsnzpEz+Uvf1Bgu9MnaXvO4yxrZGty6yxT8RRGWE92zf6mxSvgC4h221e4/4mIqw+ZYh16Pj7m9erj/Ud0UR+QxX64bfTgBAp+H+dYvTpBrAXe4XZYp1NPaSngASw3X84f2XTv+8zh+/X3y2fgr6PboIN+BVpjG0s9YS0L4xzRVdlAqI7XHUclWmzb07n8svVy4pgbiE/mpWgwdb/9alxf7OIIHl+NcM4NskpAcjhDT6ebQhvHWDG69IIKc0Xod1C+txk2lAHm/ythcooOGGaeQcDgiDHSpYcNx7g4QEfJ3iwcy5bCqyDj/rObe6nDRebBV0imDjyP+fvClF8dP3YwEq6oFsM3E8A85hQx9W0H5PoIGxGJSVw6WqHK5fFZo25YdzvFxuU+V/TXIAyBz3piVR5ZE89dIrE1dCWAVlATJW0AuKLm5Q8pJ190szREWAZrpHFybZQJDDuYDYUKyJuWz4+mryja8g8Kz9P95Dcv6K3PLuqiYZXdd7xsbTShegrud1Xbdd2ZTfgFKbhkjS6UWnq+NtNQeavuzk0gU09WjbGw8rV3dcSwN1Dn/RA3yrMjURAlWSgIygqz/cETp0YrzK+2y8NvDYGDLBFEz0mhW26Aw5Wwt2+zxb6ao8G2BQQExGde3Moz6Ql5VJ91ulqvqW3VVy19GrEpiOrL68u0Cv7mnxIwJcl7tC/3aqz0gEZFttOqBn1oV0lN2S2sZOd3JYskEH7Nxy8c3cQ1ARnG7XsfW/5qo6swgYQj5D89hD6NVnp3gJrp78zR+/Bl3+i7F+XmRPcTrPt26ahwvMxnrjshhwqLIbJ/uNgy0lvFq9Hxm//ebR/C0s/hdx85tSPNmSXiYhU1FoZ61BucoM/6YK1zZWMHBlO3BAc6uH8UckRECG3Azs/sPwgAQOnSlEmEDEWJgC7F80gO/rMlobCJLRxRYR/LqoEkSwVJar14mDUrmSdayHZQNiVwEAewUuMPqZljQpn8/ACYdIeKA6ZA/Tx01RrY+ITVZHdRzT3CuOIie71feS51Q+xwDlj3rAnmHRNr9+weOH9MNZKXwPF0fdn77C+eTbZXy0isdCYaJ1tzmfiwXt6O1XjgDF5LOzm/S3sktVywhVfWaRMuAIcTNhiTAZ+dA9ygBOzIlVBbp8+HLTQluxcrSL2VSaomOfKKhy1IklXI9d8MeY71nwvQe+j9afarxe5bEyIxUvclN3DCHHAJp8X2IbGLUV0ZmwdLAHpXiqCKD0X5k4m7jHUJokwJDbUbGc2XXNulgrqGmVpo3F9181AJQDbUm8MZPC+QwNYygky8NwHVXPeRtMOu47+8mH0djMwBcNHzoc91JXjRePjUQViVAIR2RQ9WYPAw/SLaaBmM098SNDsy9lysUze3pepOfYvGzm+GvKBl1Pf/L5+QtQ2an+YjMbf56VAAkxgoQo5sK3S1OpqtO56uXUd99PtRLD+etry2ff3+OWzWi75fW9i9WUx1OtaNRPwFdnx8pCHueLon+YHZq+KleyOshj3absdrlnc6znuAyvg3+d+6vh9zCC5wfGRgkdmd7J9f0eZ7+00cViUQhQabKUywEc0lS1FCUUJ4x0ZWBLlPVsuVmlUNadNVGQwZR9LCEYcP6jkfh1zTL+ZQMYyQKNbRJQOLyQCNdBSNAd1Vm5aqMCMGNnvSIvZTsY3nIfcrMDFaxQhgwkhAdjrTnTu8Bt6W1EGcMKd4zuHbtE4T5dZBDzFOL9uMiRjuMrmSqL4mNypv+1ui266rGGsO0ULptDovZW55cZ/ZBtm+tNWWTBFP45Qmr14DguOIVu5yw7zUCGsvNJYSdALtebcAHleE82n7HtTQAJAwLOE6tsW39XDnva7wwyw1eAdG6Kk7JYvf4IH3FYHlf/9fP/+qMscUO603pZyvNU4i1FE5WohGsEDVnajvMd+WB5TCXR4ADAZMMePLg7ab9rVtg7125tkjyk7W3oq3SxbBbTCRrHv2MAhiix1dBRXuYw0RAaT26l4XU1QLjpmhz3IWWBaJpVSgtI9xQx8PqEMuCNpoLJLNvBJ5uxjZ/ZFNBQxIhkITveq3bs++YJjnqBZp+9H318aVSO1SgFIDAJZ+SvyahFZhWWPaTheaxOysYS+W76Qt1SbV7J/6ULN2P0llO6HP7rolCQMYpkxRsVn0qRBLZ7cm4FJNkAxWmtjE//ZA62oumS3cPZxckpK+iVkjVfOiOd4L1w1z/1QxnM0c9zrXdOaVQpOR1Gk3zM5EPuhQzpYT5NbPUAZSB6GXpqiqggPQ72RbEA3zQwyiMr2XgZwJ0pkOX+a+kDewH/sgvwrw3gO02VjCqIatOWg2wtaciqVcEu67sswZRXvH3l0nUxyogMA8ijqUgpDVcxq6i7eR6pvgjSUnSEAoWhsSbjQidFCEfnvXdpQ2Z8AedeXrWUP79D53qabpC3oixPW0+XcyK5RKFRmfXtHDLbIkkYGwUNttH9ZUab0kWlnTDN3061TrNiSqzXUfe+PzG1vmR5Gzh6efspyiTunLlisqqCRQ5CySrzhq+w+fx+r2OcUPiCx/co3w4/m8vydd1fJ99YLtjAoUsjbFZQv211HuJCq1W10LU8V3lK5+1vGDe0kmzA9/q1rphMkv1gjiUCBTf6KFP3SjMgMsCyiSh/oSLxNwzgijW1NBUbIytQGdAeqoNc2KtDKYAKVdUobVoGUCZwzDYLOsD6eBW4kQUC/vFusVu23nY918P4pPuqhw/dO6DP81b1deXPtzrDBW/x3TT9UT1di4VpzZwdv6bjCDOK7qdfcvp8q+ySA+0OIPuzee1TJf48jiHcbsoyhtN2U0lyulQDwi0XeApqOX6dO2BCvarMFD3qrbwvjA/0wOEAlEWYP+hbdOKGGcP12V3mpM+aI/liAIHlHrpobEbH7A7BN2UTaewyTnc/hy82IeiTy2z4ZYRTcTawP4jL65qvhVM6UoO9VwVO/uTiHoyPX+9sMpIo19Dy86T/oen2pjBoWGMqETEFbVUBiiTff8sAmqRHrm/WGeoEeWKVgqG6yUlT/R0GWbUuMGLn/FZRwj58P6A3VFGIjJh8uyqmiFfAKQQUciGUPKCOsH1iffYMROwCEMI9zr/8QwOoa+555i7zlzwA1I4544P4levA+6852+ZpkyNgTzM/PwyggLZhPPpQK2tf5edBKd3q/X7Mt+xyYVjQQ1rR58rr4oaiBVodMFr6bEHaNBLhFceGGQlcJa+V3EM/c4XpeEV/zzal81sEJdnZvfXTQNXjjulwsxtmN/tLkMG6Q4ctN2+CWTbnCbiC7GaY28zgvNelpcFW71sf9nzLgNAoaaKCrkCGox2LTg/1Hvq9RhXngsnD0Pg1agDow1gJ+n/c//+HAXzrKxRIVxol2eEAgjCLDmFVrBvZSPRrD1Kdvh/YJOZ9XHjHBsBgbEHeTFgnT7Aj7Sc7OOhxbhCH8SuyhFida1xGs92QnRtfI8DiY/ajm5FPRsyYHRdWuRnDZ9t0nI9+CpMu8HauZzgqsvOZpvyDd6NQsnEgKHXyp70KX/ntwuihrjI5DICjVVYxqDyHOb8x0eJuMqmITWSLST5X6R841TaTe4ERKbq2/9Lp36dNpZvK9upe0R/nlev0Wkemq1gSJhV7KOoEd7nIGsDHVAFpcT8ceA0nc9VHWPHTgwpZCSAoQ0/gvAJSoLnm9UgISWjz8Z/zx2QKzrr9DQQyNGvJ1Dp4XUxYwiijr+XfNYDRROOaxFbVdG2majCT5w+rzmNNPLZ9oBSZXKICBiiAdAws8mstO4BKxMEgpKMHMaDDOWxtMIt649VqJeSghz1HkwLc/D5lS1qTHj8agLRSBlV5Hq4OWDuz+qjr+usWv35BJRuj/Dg6YGEjimR1W4xpAUNfpe8Ra1OWR/fxnjGbPn3Jn/v8FhVC6rjN+hKqAVXqVZsLtAWiQv9x1BH6z4YT70wDTd5BCW+cMiiQLpVKRX+rUjefUdyoz0Y3IRuObFNYUmKiB1KEMPnmpPcav3w4K4borK2hBp1GbjNe1ip0yA0aTavLqwDAgh6Kvh18oQzSUWc2tQ7XHQb5oRIYEHX2Bv5pklKo60zvt2zc9e8ZwHdB1sfcGQHBo/OokwH/JdJ1oMJQs9THenhBFJluqkyHzNiDww7DKYmebZLQ4FmZAc84Aj0ZdCUrhIUOt0cacUYmBTrQZ33zEw5krZNyQZ0nO51/1T3cvGD14O66bfMl5BP2c4N/7qbTVeBdbE5oq4XjmIE81mO/rN6T4+VzdrrZ2m2lLC+eKkLrqsgbWuV5cVFx1lJSIHiADK/LluPOzj9bhzCwD+RvMKBmsOHqdc97DxzoaMosL5obcnIV609n5Tnurruuu5/7HhMgAURN3bUL7fGtX6u74iZCkPIT0SmV9EemzJrnNxQygm5OpD8G/xxCZ9i/bLgnFueh7GJc2dxtWhr3jStMNLx0RfP9Nw2AfjyqQ0yYmy6YPG2AHIopVujoA1TGZHyp9LNJnEJrL2tWLSvPrxuQXQ7GJN5Ur5GOAs7kKLKQF++tw6VoOFfHl/7GpYf7UzmVS5PT8TVHV9aUTxD9bhed+OnsT/MX4xul/UrK9dd6nWqGBpmzS1+81gf0a9dHJfhfHtC3jrr+gr0AOF0OTKXuXQ+iYY60p5hX+WghHuE7vVIlrV5XMBIR9CkHLv1wG2CWYOmfwnS47VNtIj/D9ouicuureLGWV21BfA21AskSghnAxvqMfLp8oOx1pgD2GSJscqp6STb2PYz9we/shXqYgLyfM0BBKAE27WGCvpGBkO2FJh6XsrWNMNeZ8uP4dw1A965kEcCW0dZgUoGByh6aYFsC5gE6nF3lYQVzvq7krFarBvyqCknGjLK8pyWgBzdnNWti6M3JKpR+0eQOljooCdMDPwXryW+xo/fz7KSPEegV7L9QdP3appMe2ZbDNDvJb3sGaXyDpXgBsZ7AYb6GPnm4+PycQyAxTedqnqp9I2hk8yTLgaGGPpvOU1lkUJa26MkiDt2HG10svYkB9j7egV5b7CkSq/lWxRovl8FBJP/h2rEB3rzXykRhJKdfqKoIqksXl0Zp3z20d7ckl67IeJEhrggw6L27rEQkuscagNjqtMlEPcSbJh/MY6z83UfTAjVp5zKRQUDopiJxJAzAEt6097L05fXvGgAWYLIhLJshFqewr4u7k5Cvlp4Y6EOvdarWmgoF3F9mPX/ExLt4hMR73O/KwmgY8+4a6kMSGkDkfQ173FDVnaxBhrHFXM55v22DsaWk8L/07BLmchC5vH0eLvUtCb6eMJrhootYPHj4HhsEaa04DQSWe3bKsK+TP2r57dOq76KL53I6QNuO8gR13KQvU1309Y5CD/HgvW0Xm2DWN1UPk6JxgPK5p0hQtqB8QcZjBb2SxdCymjHiM+Tss7Wq+4Pt9+DKGC83JkVK+WRDJvsajfKxMkidAo83GmgfVJpaC8Ug1Sr7maSzSeXW3l1AWSok6SQG1LsIG43V6I081dLYHtgQG2aEYzeU6//bAfw/DQAZ2aYwlZJIs4n1RJzVeC3XYC9tZ028QhaCQnVflSXOWK9uuYofUlaej3I8ZCJwC/yT7dH2nfGw94DCnEcoO84nSmNWvMJ2Vz4E+7YN/vtaVxMCsbOc/Vyxe377yupa1RVyYbF5rJA+6FcSJx8EvGl9ZLFNdJZQ5zo/lIXlSH7Q19/pIis/wNGrdFWgyzpTc4ePiuK2Uk5JSVhlxwwwT9/5ZHS3Oog7kB19RJf7XsXFySrGa6SP0MegkEBA2dh7VAJJc4c+DujERc5fn66ggtBy632hyGJiW/Du6tuTXJhCgPyBLoU/cnomPGryqUGWdC8PW9mBC7BJ6A8VgJ3NbVrz/375LQbwXaq46EwqdLA7rRiwZkDNoLCn/1sZUxC+Xxe9upsDYDEAvxFMU1yp3WrY1qxPLaPacCPO6OT52jTbne8nMgK5DJaN+6/WuVcJONCkdzVqjBsBPycT6H/1vc4u3u94CrvtiYWvTTSMzsG/9CDiUR5S7XUfzpkx7SnV/CLb1Beb5cahNqTa22cDoybuxkXJv/506vdVbiBX6KZLrXBGUXeLvGk6grnyRMs27oA1r1d3Rr9egcyx269cKIDjaclxgSaQ6LfD0i2Ywky2TI/3YMAmC7gOa9w7lSO97QXSGT+ynD0xPdSM7dyHinvThNJBJkwOqHKwKwwojLqDDW9Wvf+u/R0GQBrQGB1dByVZ13Zy/sE8ACIGAcHojd4/vaqDHVnVfvsBZEBeVFd8pX9OnNSlyGw1kIbbJNcmZ6GcJsTbHG/TxEBgP+UqCaqjj+BfoimoAZvqLx7aUHiSmMnUW0R2VsGCfeLC6kWb/EEpVTyW7x8MnEbKsBR6XeRlVZ/XFwX720QDNwu5y5RT6gvVWx0vKqYSpLdNSN4myt0pdNSXNavCptQRUNswxyqhdeGs19s6xWzQA0koP6cCHmQbc3L5ATxahrcAKkeZ5/ySdF/syrMi6XsrAcHZ323Oajdq5uEouVL2YU1zD0x0xoXq7AOLYAGILoJilhEM3pjBDQJk2/zLUPwWD/BtVHMFtMNsoNjkcQ3NWO40NFafKnxeGGodzpSiMkUBMp/OVYss3LUy8nmhS+CmRHeY7VlUOk1Ei7bvOGVu2OD/rucbPHNoPPgvORxdyFUV1i3ckIiiVXPO503VPqqdumfDtUjAIY76RcOg+5jYJJa0mHOXP0B+bjtVF51+FeRxMnLqKXf6Sl/9tiHqQR9nefD4W0ihwXb4BcL0mQUNAC4UgGQ2ZLh6L5sy+Tm3hS6gHNU+0xtizLFtweWQZxz0PiKeW/e0JcNXTqXvrxOFVZ0dHxME8kezyhcNIbdWIeQ7EWd5sBPilEszB/CJBq4zZWm+kLJVQ4AbKVjVkgGYHTTl928xAOMdMAFimwQxpvB+bK7ycxBY6HUgGLQeETmLHWSgXmwHjpm3/vCY0MrIAarwR9wdKTEM31rIYZiUKt79LVKkzY2cLYTSkw45IjF/uvfIeuXQNkMeV+d2+uwTb5tzYyKRTCyMzH8T9yrELOn/iV+qKDolgrWifVwNmnjR8U0tFaySgPyO+9IzlzmxhiwPfTcll2VpwqAKVAkKGxoqDtnVvEWbIGSpU5BvVWyfs19XW2PPsA55FcG+qGxUID9CF8ehPOKiE63yCLWrqp9aHkyRXw5ypaAb8zCrEIRTCxS1vEG1s45VwRQ6KBK4JisbJi1Hd9gOqK4ltb9v0h6Y0bwj8fRnasA/ZwBX68qYXLFCF+Nm2zcZywgHm5/o5dvGWJh8BApEvK8q4wjwg/LDgYyWNilFK8pnWLZK7Mm0A6gHKQO9bY7VjBzOsGP53Prs2RdaopeTbtXM1Gba0IeIlwBFV14PD3/fPreF07agLWM9PmbtANTZdghp7rp4qvpQYSSC6wqSCW60EKr8uCykEw9WxwdHbRLzBnWvXBA8VhYvtusuh9Q7pQ+3vDoP4wPjUdUn1mMBOqjAqQzJNXhbioDt14p2ch4GBUoVeU4R8JdDJlg1N1+Vb5OxaxcsDOwV4FrZEVzNA5cpDAD0qc6ULwDdV863KvkbDBRq7NDNn5gD/EkDkAtYmsIGjayKsSUafFeOzVqxEmzlHJsBnvYmw7/Mbasymhl/OZPaTmyK6DMvioJA38ipQ270F2AJlOZOtIT66esWTSGrvm+VcqtVB3aGZfjs4Jw+gZHPA9pvF1VvuoHzk2rRWHjuj/M3Di5YWRIRn5FyyAVclaXr7Og6wmkaeaIR+i29gsul2k75+XIMhuVMZD7L8snl0+HBo8Gy8Qeuv9yobZRbxvO5JgSUsTrtSiaqLVq/M5LIZZvp9zhYcbJMobmwNX8KI2vugqjMmKiywlUSTA9vOwKJF6anf25NFeDArNtZHngoV9SVD6FbHWwwbYO2a7MC5F0DfYDm+mcCwJ8zgCvVZVnozusbhUPpS3Xo+46grIEEOV9V1hRgOIQRgGLmfWHXgN3tLdFMWlUsh1359FHj/bdq2GobD4GJdbmf9WUnGmQ7heNx8ueTyu+Lr9mTuIX8htqDioo81+395V2bKDgTA1Ni4SpS3LdYkCpCfja2sevCrtLXUs31BCLdYVZKKYMyUm/EfFmPbrN1ERUEHnzOidp/gZ+E7g0vTI7Duhi28BZgq1YRfp0Rrzjv1TwPhmyzDXMvd65soOqVOevewqamQGkFpD+qxVWmsc6kP0lvZDAnEEcP2JfxjQxV5P6ZTu1QtepGodUACCPVgY1RRFgp2NleqH4s/5tM3F8xgO8x0c3IsNq0kOoypQSlMsB1XcOi0lVntlq2mjV0M7Bb5oP7Yf0N2ANWnD1QQfYJWAfgVhgPKuoI1jbwhr+RnzOFnSq7+Kk+uek+XabsKyo3jHOozvWsBOGAa/3ePnw9tx8mVmv+WOtnud+Xhxjfi0iARHEwN04XR/82Do1SJQBVflE9aLmFNR4SOZ1MgK8OvS9f6U6HqS1p5sgHAL7PqlN/lklW+WnWfbgqNuXnKkdepD0IKWGrb2zAhXyX86qtoUiT74GqdrgGk1aRYykJnnppuQ5cTp1V6t7MwZP7H7Zm73ayl1VH3R3gw4yw37hgqAHKZTnKch2SREz5pwLAnzQAlXy2eTLKAmxBmHVk/QaoR5Z12WELS0r6PWMO2ny8eGgN7wDBGiAA+lhuY+EAtKS397T2kEco7jNsR2wi2oqUHMR8VKtC9Vf0tb+4o55afSJEMvmEGNOaej1JcsVo+JIRvGP+86e0nHN/fDoAw+gm2vv0s2Z9X+YReYDU+pJXYXkMoWVNzlyJS77FCkwj90YlS3FKL8LPZOuKBvnpFuUArjOCM9B60vuHHHWr6Gr5/cb4g32IYD2wWllEUTJLyGyVginJYOthgawKiFcGEhCOOz/EvTKiEN2kFfeqe4WAt1KLLgkKNQgDRaWArQHBmiT8/efu/580gG88TZd6zp3Vq8E8ArsCXVxNn0Clf4yoidAyl30TrFTfzcq8drSuZf++mZloDtZblUPQO6toGoea2683FikKfX+QH3qWJeK830HbT7ZkFPJoAmGHVXaJePee5FfuZgGpBVwsr0CQUgKj5r0/6ZmAm7M4fM9p/J9cTS2TVV/Qnvo0gCoekn6KAotLB5+8SSL5kLdeWqpA9oxizJkd060IdXW2HWhKxJ4yoWKexNfVdT/1U3Oho3+uqiq7jg7DUxyaLT6qAKw3Swf4ywrxu+HsVUUGkiKk5oLlB2kA67IkGRZ9EvcmAkDtCj2EkjSlbL/ZAFg2gCKAZayOVposYIQkolM+uANlUirAzpIcgnk1FbKLDrKqp7w3ToF9QkTED7uSWppG4dhJ/Ssrx5UzugNELIwIWaMofxjJKOo8wN9PNjgyvjF5EyPa5GJyNkbBN00TH0nn/zCC9pUOPLR5HuZRJFh2qfOT/69zmaRu/07Vkh0v4omHsJfqHqefn/1lyybR4qb+YvSo+F9V+2JY4FWpQDWbRF5Wyf070nmlg7Uce284Ppb7fazWqkXeK5qDp8dqUE+O2BvQDNZXdB9JfLhj9AdoRHpWs3T0phJj+d8KSVQAEOwcxJBkEsrNCvhhfqsBsCfIKgo9wRaymqVUAtKvqwmUDaYmzhXuLHl1u8vTmljlk3IgS8IqmrFYeuey8ZVWSqNf9goEmTeYeD77LeOo54megSLItMYq+xoYDx6TPPep7i8uTXes5jfXv7zUuJ7n//QCyQLa7sku+8joU8EerFpnH/TW0+Ql7XowtvP1df4ueQGLBfelc0XxUPmWS9HVU6GjnEVlypJ6AC47nQ3iVfUDCDiqHOS14BB1F9cPx53IrcNLTYNQ17QWbLTjjpInkyBTepLNQZmwyTc+vT+NJfqJ2MuhHDvewWZ5NGMG0wTqxqGMXVgUBRCK+P6tBnCFhm7oHDKBrTK/pYQ5ZN92VbBMgYbMroSKwVUpXuVsuiNLYFdKufKseL8744cYjurFIqI3vM7ggmvDjBMzgo3CVWwbHitjLM/uRtXX0wSYiIHze2GgeBNHFY/27yPrK5Yf0aB5xYQnMSN4llgNBw3lrFddYDjftNVVlEWXdJxSI1mJQFs804sH5U+xzA2Vjh54cSQDUHWqlCDMm/wfFCg2XT4oAq3mhebpGKPsKCINqL+Qr5U/5kAi13NLfLUb9fbN8EEOwrUd8k1iiA3TVytddd0G3TmwWUCHfdMlCi8DBPOTCUj+XgMwgPjaOmZuplLMyEE2q3waEkva0M78UyKJWa19ibA4DIdMBVXpZEwDuewVRDaWDQP/hDaor7F8Nw9piZhbUKkSzthAyO6+ng6EtPXrvr+0y4sZpvjAjb6ZGF7qMg97aB9+4B0PirShp/exgdI5h+rW1wq08bG4VT7k3J76DlYRLs9vANerpQTNcPST4rkSQ3Mrw1qr7ANBUNk6BKzJqvUDTe+8ImW/gZfTdX0gxBdKQSD9PeCvtdpNI/ygZHLDYahjIEBKrpX504BT7WGkO4MJx+m3CsuHLQM3flmZzyWdyGZ0zW82gFGZ5bFmxjxWNgs5QTkS5JRMV9T5LKazuML517KRnmJmSDpnKg9DagxXK3F/ZdU8zEM9KA9AS9DU8UJcBmYexAIjm+1lER0bl21TR5UhhUKvM4HVcvzkjHvvj/yBlaF5SHWlksGOM7kGRraxdAVrywoq8i8K2v1RPkyKro9iQPcwm/ZRE3aPCPPgKx/H5Yj9HFqoSMbr0FyDlZjAS1FDtM09+f/1qM6qCar5XtkCfZ7vDwM474FacvNVDjsMaX/GwNenQQOtYMAApAmynIjsMuQrYKg61qrwusG0vIdghD7y/Wi8rcPwp8//zxrAdew6gxmN9IBHlkaH6+Jdm5lmAR4Lnes7StKAgiGxPGxkTk3ImhjAl7D6nW1WPB98I7byRJSLUx42FovvK6BABCfZGVJJUdsYTRnlByfUg2XtxSD5ppL8+aOzrbL2EQ0gaza22UU3tnR5XY5DVWcnZXGskikcXN98RAr669p2z/sP7Rtr/k8XktYOryp82sZY64bT15n9ciZdCDvYrr8hvSD4n92Fs3QmonDOTzY2VA0l51D14exXChFgyd5NXskwWivyqJEZNFh8UKEQsXmYLp+7YbAE+TSaeWA2E6EHraA/gQT6Nw3gu7QtISoPDy+V7ztdmKV1KBaQ1AEQZU8FbLjfGyX0zVzhwZXcHnKNYd1TfLAdR6t84sLecF9VNIX7HXSY7UYdVWXI7NizIYckYvPeDknLgk+mpVccMB7J8UEuPz4WCrEAQ4gojbd5QBKdSRub9TnvtzwP9U3PbAe+x77++AwwSysDaFUB0A56CTw8coDnf2MbDYmQ0Qs8x428BcnkXtXKtlbZbCwZWU125J3KgZ21g3MOh8CgsHDmjFcmfjDs6/NAzquiPtzuyYK96QREk+MwOeDUhuPZKPNLl1+RuBtGFQNdaIwTylT+vn+/AcijGiO1WztTJQj61t16rAsckWsHg0Cn13lXgg+7pXGZucoaFmFe9bFs7VcrBixNUHrTZPIRsapSE3lF7h70kQcy28Mu3DRJTedNFvJS1nmChcvy4RY+eFk/OFrLIvEzdsVHNzDlgGU8Q74xR6gqAz0hcwBliidFMdzvrl3WblmeyUPKBOzg+YDJVxVj0xXy8ae6qkzsUSc4nJgb59vGJTC+V+U+6y0DG5Dl2X6ug4HcXMskiEuiGrCyJUE4HhibQKTjDH5jJSG9s8P67FgA/FwH6KLBVsISLew+KD0HC7I03TKOv98A6ADAQ6kvD2EU3Yi1vBbyUyvjG1Mv7JZDicoa3Wy5y2CkIHrpRiKk9w4Qnr2ioUoFDNukYHNYtFGdA9BtbCK0BzFrhqV4coO92EI/HP4HYeDbG4wp8nf6r3yS9f2gFk824CO8XFeWLaZeNrrF8BUVw59cBOWD5b9NBvBuLC1PoZ9nRWDJ57Dl1b3PegviMGZmkS6gTKFRjl/1UM8YQRJ70k45QjivaIQve50btaIiP/yJK/1DWnvkD0DpGJ50KpDZGXPdPWvi0iVe8GDP25s0aLS9za51CRdMR+j6DxiA7YoPpj+jdMh4aIaQGcEtMBd6EkijlzrrOxAgn7hs9USIfV1m3lGPvO5sJ8B2hz2DQGUGFXeeroHRHQyW2LZLmVz6azHw4/QtDSk+OKSeHLJPjY7XYb/gQVYrMD0Ywdlng1zMUbhQLF1CabGUa19G51+WFuZTN9jmDctzMPj8ZfEaEzI9pkELAsA3Rnag2LVNyGQ5f/YHHm6mojHtT+Ck57q2QqD1tP4PU4P1Ni+Vu5yBCfgkwyzXwH6Hax0NKWecSiYlvUROm3hsGKCs811a4EhSIf9GCvDnDeCb55LUaFV56rGwg9bCh0BOcsSusaC16GF2DHVWupYKbW522W6Zq/IAxj4uM6wzdLd6k7r9+5y6w1m198Cb+Hcomp+0ym+a6PFNuPQ//MKbnql5G8DPH0pdlfplm7yvETQeY1pVTxGgeEYA5CnlAjxf6anvaJRPJvv8KDXGJPkNdCyC4+6N6a+f9qoyQEhFgZefyP3YmZ5U+yi73fb6fGLTJe57RS8ITzhnaU++BlLhe9XJutfUgStIbCODhpzXqkKVW51T9TE8pEKB/1hDrlvo15blv5EC/BsGcCXedouBEhkMICEtB9Zcr1CIUnvExYMalLtiZMGRE/lZbIZbZLBhH30/AgJ+wO9rzmTFIPaswLMxfjhlNF1RvJeCijdV9OvD5YdHeP78WQh0z4D/Pn+71irXp2Ob/JLZ+Q9U3k2okA24fuQXieD1191UX9t3S0np6NJ99hMeqpBNhwTOplpSJUWOaF6teKCMj1lgneUMhQ5WQpQgrXd5C0tE3P3MBmlUxIeJzymzBkO1Gu2ev7UL4BhDDppkV2civkj02BYov5dPTVm/LQt18tHN4v8pAwAdujQejVDox9pl6MAqKSZdi2ZV6JYbZ1kQ9qpCoVBX31tfwOiraGN1wcgl9Hk78hypU7Kuw4IsuSGEs17vr/OxeDV5Pmq99FP5dPjl+JEPfNaBSzIA+9/zpD6+hgqP/uucy1ZlR7I5SGtkk9P1RUnDd1EmsUyK980zC0zjoNe+QVG8coGRb9fHXe48600eLQaZg4r6HoZU2hy6tAz+6OHuyuBlhiqhriXpx4ouoGf+g1fMEqbqsA4KILvVdOJt2roaOSzTX+bBwH4cawaW+CMQYR06/qz4hwxAPgDU2kI1IGOLaNW2qpay5mpSEiT+a8xgJgGqZgoi7IrTBWSfSr8GxuBXAkJIShiqAnZnm0KdMwCJiszFvwnCy+JHmlcUn/H+QRz/gz78Bz3rO/t/dICL69jxlM/5Nuspj02V53PI0MY9jJQqmYpcXWl139q9TvpVDLxmDK+JA+mAkoq62vwZID/bydH2nqusDrZHAoFWNBuQ3ZfXa2IJa5SGrsE2QsiIkIZI8XR1d8AjdxiPbcMKih7rAYAsZiNoMtoIJdyowzWJJrIlHpTjP+YBKAVgi1qSPnHj17ajBFyz7qqkrcA5ULm2lHN27CoNW9smdA1Y52ygxekoCvY11nh8BmGubaiDQBhGUkqF/3cAKD74Il/l3eu+f5SGP03gYQjc4+Q0HsxNxZV9xSyvdfNV+NGj1LVtjjY2HzTOFi+apfj1CPztC2n0toCUaSyv9TMnW4Jeos+M4FURvRr6JvZ7HWRtBvYAYc4OWKKRoHsMrj5TrWcSUMpDet36Mu6oxJHlJ9jSAVkhnWRPPsBugWdBy3S9I8Acl8kLkwoUKsQQjf/HDOD7aiy0CxlAQcLRLq27t6vi57B0bYsXalcHbV1LQHAdqB/2MKKxV6adJjBx1uEIew/MdUHcVAWCzHmAOtOO4Ppx9Z8Z/4ty91Gvv6rEDxf/Y0a0PEgm3wQDV2oAFK3PeZ8HfVNFbDnto1pMtK9Ik4DyUU6kPuCSNgyKVz3ZPmaPCTeUrGFsbluYTehVGWZNLOg3wP2+r/LMmwDgdIMFidbX4WsvL7AoN4iLUe8T12mcxjsYEGeHHU0Vkg3RJgLI98DAIkRAtv/jwYC5hABTacYqgOkDNeP3P2cAo32HJUmSqUzSwXUtzAQIHiy7TIAaUTaobGRtJ0jF2WrGL5CyJpkTqA2HQXfksAmSIWWHHpQuJHvLMJQ/6WGex//R7/8gkHwLsP2wAc6/W5YfBBPAdk3P6BT2PLcR5IqfJh+5Xj9ays9Q8uj9vbz+E2T2rAnMJzi+DQIPpvOown8LjHKMizpj2jkzD9+/Qg1cLnMmqnveZeNyiC13wRY/df6dEiL5yNUeEaxruIaKegoIiFP5hfsnzjq7T4NxgSslG4fR+OHkgRF7++cMgFKgs0WRZjFhuRZFioUsr7w2HPFCHwqeckefWE5K59lhyndaXvCatSzeKvwy0WLIwSj8GHKbdxkLhFs+6UFeWd+zt/PMBYsHkyyV+0eO99EJNv//qcp2Tez2ysr9nBsd9xEMgl+x2fOZTI7FB8jg4/wfwIJXSOATHLBBlGa3vGbJlKwSHZzDYj9zgZ31uYSVQhF63zL634pQdMQ7pX+qjZIMBPk9Ex/dsDKSHJse93Awiw8xrWeMhgfn/Fc4fHX0Y2nqzlw8+eXr9z9oANYNQI4oERQPiUVQZ0by0QXVzcZ+r7jEKyqapDyGKSgdAL1gFKcZU+w5m1kkrZSCd1AOL6aWNf5BIqAoPo7+YRHjuyAs0uG/tIRexPLl+BgLPHmFEwqgrKop0xWN/Xbue33vvVcitikcfHzXpyOxxcI3BuQJLnpefhszJrjYWKCOk5tSWuVhHPSToYx9dUMAMNOZG+Ez/676pvp4njWGgVBiTAUQ6KgatMdBycO+z+pgiHPGwGj4TxTCSyvA/azUSXk4OD3Y/JYBp6t8oFzL73/UAJC2Nw+gfHOhbYfN6eLDcLysrmhLnIQ3FsOI0pSCBGHAtlYi+ytt0+L3QFjDeGIUcR6RW0Y075O/vlO/B+Xru0h7yUeksdAjHDxUmK8//upbWsJGsCckCueexRVXneFgPjgo/SpePxQonm0DGwm/ib9fWX/xQhgARDS4MYwYPfJoN4CgQKHMs4AJ7vc026cremRpK97WjW1JhOKNyuEO8QTrng0pkvGzKscakAhpD9YtoAe3MYwu07EWoe0ShyvLrA2OWec/luP4zxoAgoKNTZ5NlMDyk1Z5fHKxy3JFt6SEsHZZjLWUdNUZdzHvNNoarLHbEA1XVoYroFBZLF/n/9Hd+x/An59d4R89IJMSS8uk159tRKv/xqcyh3I0O5+q3rZNCYHfdtlENl6vLw2ap921LxjQ8tEHTqgg15JkONscuBYd57/3nGzFPI+vf3iWu6uaPHPLjU2tYgIO98yRkyWShRym/cXekWfl/1CUp/VHDtjQBTT2X8/Ih3Ufbk6j0rGEWLSMpgdh7FDpV/9WF/ivGcA3VFSj3X2wp4UrkaUZbX2MJCsmklq0zJSdrLSNlC6qQpSjG7rhHlggXdElNYpRoxZTORDXRAJcjB85/TP9W94m8DrzNBIuP3EB108xvvEP+jL2webmv/qsvvVTUMp22YNX2NY9VZ2WlR8KRc82IgQDr5vfLi94kX2MDKOjEiwAC9NeMDncrT+MByfPNkiS911Vx4n+p8wDsH+vjIAhWJXwIRl0+TYqcgg/xMbo+Bn/lCYIHGkINlZLw07TOJv9gwBJ1CCGB3zUAjqFf/f8/4IB6Bpx8gvnD12S7Y3RRSEaXWHJQ1SgoS1BRtrERDkvQwA8bL8ebGhlvQ8blesMdAOuxgdSPFnWn2oB4/LO+seEBfiQ3XlJ8F4/KWWfBnBNwjzP8x9hia6r7Fb1N5K2r762FLBSEubfAeDlfZ5dnmcO8KMckG10745DG2blljrZKpwt+Gd9EnqvM3aSKy6/NR14t5v1yauwsQlCq7xpVsP6ujkeiY/rWJPy95rZHKCwvSo7fRhbGAW3EMPR+bfMQJkwfrn8/ucNQGnA1bTpB51QZ0tz3ZVANLCWoGrgKrOgYUTJooJggcDqaAkWUBhClzCwP7qu7DkoWa7XoFiQ+acH+APap3hiQB4FYTl+tgLBeCcRjmcj5yHE8+j7fLBMQhepfOwGNW/PBrrStQydCNYT/DH+OH/rHyFR/6Aa+ygEnr954sQNjr64yTaAq60yXewcDQmjwOKib4YJ7Q0efWz6HKDxRpEFW1ywUngwukXFezA3Jv+HUpxVzxB0OYMCOXK9YIqQrIH4pYy6/MsddiiDa/0nDOC7TLedXZECiVJdb3xxObqxg5XXQn7CqBp/SbcMSligtDos8+PsWWmV9xyWgzhIcdRZoH6lAeVHAvCHruDHb99yyx8qYh+qQm+3kEAg6Hpk2Ylr7yeURvJav457PFbLQcvylQOkky5f4j/LR1e4bZcPkAEQgWsHP4KfIY2D6MwrDCjSN8YAtM09VKTkhX1mW3G9jQB7/5iNWr/fsJGZycEdEDPCpeJipyO+t0Pa+SWOjuVK169MlNAE4CLxuZMBfv9HDOBq/ebROOpAWFK+yScoVVFgKFGc1MuTExhtfX1N8amhhbXGYV11/dfSDGZsjDXdG01E8XDcxY9qzKL9p97mH4VjXhbwUGL9g6pc8dIYwAG4c8h1MFXO7l1lsmaI1MC81L1MzDoLjx3xxxE3b5BxMgf3gTIvVAlci8ZWwKt5i2FL9IG246+vfgoqEHuSDaCnSgdJBo06d6XTlzUMTQeuhC7+AeAauExlOLDMQHjUCp28qW0AyfmT/PvH6Y8mENfQnPsr5/+XDECVgOMZ2RIyz3lgE6XpEkOxatJlsPLQxCysLUjLEG1zZQzgxL0dNk2A7GjAlq6VWx4aqsX1w/m/BEOLj5h/ffz8VOB4KXGYBfxPbcmXsdxvp/V0WU2xCOq3qFiQhzy6zfevpbDXOPjRRyr+MF5IXAT8270wQQk/9Fh22Op+P/WKBIozVc//tmqqlAIyK6Y6OBkhgs1D2QgCRoLIUmPccMYGuB5s2XpjiTbQRwdFx8GkHxjYkSTdO8d2Bp0jq8rKofz+TxnAtRhs/7RkomoatYmdCmR6MV4NNeKaFS9lmWosi2FuO8tm2SYfQZE4E8KpWCBAKLuEXyZ5gOu7GHvUeGXxUzywePV2n/T7xavd9/9z+A87GbKjDwbSZPMy1r6/yQVUxlYSr++E8un1PxqPnz9Ki//OYOL253ejKFAdcPRe6UVezUoHdew6eoWDLaCdlynVgAWJPUSj/rJeAbQkvssyY9tHhgH9Fdr/Fi4bE+xzafxn+F9jggVbAXljt0DSAGTWJB7H5vs/ZgBwCBfGTG24zI4BgGEUUCuXT1os0yf2G7UpVPjJTtM2iy57cHtYK7+2HiTIeiTHgGLeeH3JRT/7feVj6PtUjSmSlfwh/L9Sv+s7VXgTjRKn5ss0nZWS1Sc2EkGm9XOGLm/m7sd1/GglpqvevJZOPseM47MI6D6MYrovrTuyeiOvgHm8qrPznG12/wEJ0+4C8kvuCRNollizjVAbxtwhIsqbFil227g7WAAKCRgIiMIU3Dp/0BegHzQk0pYy6v+OaPr9HzSAb8PjwkZ+bXxL65fWpRsNrdc2ruju3P00HDD8ui3ArXpDencK/OuOKt7qQufAz3i/wZhaZePDwxfPpP4N53jngG/Z9afy+qvTN750ZT5TQPuD0sTsGNDn8BvicGFuc7aLEv31s/1sOUD3tMDyMY949qKWonHWIXj1qCfjFCOXDbCXybHZfghKmZXpYbADmUGxGMLQB4TKFQH2M7S7EWpRULXHiqy6bn+Hoay2MQzSuluZ+TY+6XaQEXTyFB3XjamsRd5/bwT8Gwzgm8SPWmAwkrLRXkTTjKpHODwbTw6+G9bCVJTK5NMALYbQE6mhANk84G8GJX6HT7c6KxY0xTN7u75beWXxI+0f/3clljHlEe8Zcvm0jQa6fn+Br9pIei4zYzmTLtbv1vFRYdqtfw0fPgrDFx4NrEBBBvC0gHsLB1XbDqaB0xtDQJ/r9C8oGYN3QyBP37yvD0WcKhWA8gwPM0Rq0QGYzmzqTwAwONB6wPzRlfBHD0xXlEzd4QZiMRiHQBwerP9T/scNwHrCo3UEcfDGTwtTfek7HIOJuqrAJdtLdUIDmmVN+2GoDa0tv4MjqKrW3dsMhXwA8W37530dPyqA6w/N7ZcO1/XlAJ49oOIDVJI+A063L9VqESHRzDZ19jnMLQtXLqlUfTQeyuWBJLaC56Mz8UwRCQFPO2HbZLy3i7LAulL9t+H2M5iI5N19Ttt/Bv6WfigsoFkRKrRSHeLlKki8Qahts34wtDyLALr9pgtp658EWeuoe1lBkx42qjDWAG7G7/+4AVy56C2lYAnI3gaEigoesjouk/y8h1WeTBH0OMCwoQJCVMkAAsRILA7IUx76WOLpYYUwK5PIYvEpGFF8Vvk/Tv6P6lwfpWDxrgiv8IEQjoFpByNxRPgKQL6+P7IMr5Dz2jB8qpWUZfEBS7Zfdakb1DwtwCZC98LJyWR9PcWtPmf1hXFD76M8wk5wIP4HpQkgEGkX1CxOpFVpaxIxQXB+J1KxTeNZtZKnP4D9u9K6w0PXQjZqubUlAKq1rfS+fv/nDYA8oNNT6hIugXlEelnWAmI4oGd47ViCGmgVRwgE1lVBeMEA4ooQYeZWmwdCeuGNSkCF4XvE94z716fv/3n/8degEpbSwnw5vj3Aq/2XnEZPAQCvdLWF/QsYelDwnxV98p5nffjr9ccQevmUK8QjlOVjcShZSPf4nPKxgmiv1Bgedex5pe/1hWO3jf5bjMfOMIAysVI9GJE3wfv3/c50MDsgTU9KC9OKpwT7MRhJuwVSV2Y2TdOZow452OgHF5CGMH/Z//89A/im9TAoCzlQKLGc0F4R+2OpR2EfM/7LjiMa5OqduxMWlPjDtONQl1QafvfrkJn0lAMd0Hz25Itnu+9zrJv2+3QPm8Nyu5oWxNFFVq9fhcK7HTRkPamX0rOUbLKmeNzRbLVtvNNpyJvkOqznXHxskr3s8KNLXbxR4c1jIJCMJ3M9+l7BSD7DvvfHUYMTPowRQV49nHsliDN5gBHBs1pNw5jOuLcgALDetBgT4IL2r2+B+6tSXJvG5HtsGF+a823Gv5EA/l0DgJO8KRdZ5ppmE81SJtrqLr1EswB5WnIYHrA8fbh7zm4C5MReE2KUbj/2mS4YMwGXwXrzB5X4V4H3Kb5K3dkg3plZQQ0Mix3a60Ogu3iffxPsUzafR7p+8Q7tzna4zUNHRKjuQ3x+y1ceUL72kMaPBaXnn3f/g6NCfxToB+sL1jvlpm1GXL688X7L5w9Yu6cb6HIjfrKdOR8ePHku/TmKEEjC6q0EZIEOo+dBJoxZEL9pDQtou0AGzRu//48M4LtMyCBl/KwN7os77tb17To/MqHmcfnDt0Xjy0Ge6s4KKPl2A434kbobDqRkDNEUqI8OfQ3ARE+dwOKH+/8o/xvVTXE4DHAPkVJAvajXNXrmC8ULGtAAAUQMdKs2NjER4cymk7HDMqglMTg+coePc30DjopnPfI/99CfRepVrpxtQLK+23GoEPi6rUajHbI0C8Y4IE3x+qmKlWHCjVcjQAZCa9QY9f1uOCCiv83NmfXoGaILpEuDjFNHIWL4vL8yAvxdBmDokIU9IQzAdMtM0Z525WHTyRHcH4skjKqv91WlP1sR67rIFKJsoGut4xlNH4cYDUywyewYn3d/fOP63nbQQZ5girSJVNm4JdOPpnzKTKbPLY5sh3QLiV64IDJav2yx9ycQXCzsTt5dP7Fon+davAgJfmKUPu0kLR0XDVPAniEnM4YVjUnrBHCza5NWgzUd10CUuFSqg5OAnEeHx+wYAn7HvqAew8BS+EMQMhGBj6D+yD553qYM829iQH+zAQASJftLL5AcFXBqaQ1AI7ZgngnCsbGEVVG7tdurMrZoWTGXGdgqeWePoa9y3wTboVTe+5IK/sB5PFtA4+J645iBWhFYxVEnctIeqcqhKcYPj+FAHVF1I9NJkhaPauuho7fIYMVBbJ4RoCw+waep8B8/F5DKlwWU7zZVY00EfafaJ54wmUJ9Nm4gm/9XJp3QQ4CE1FSPAOhqJLIQZyJEktmyzGpzAcemyNCsO5SSKqqG7oH7GK7lslhV9SBr+bsR4O8awHeaBSy64ctaol5nLJXegQZsiqYFDOoMR9hYRZ2CeeE6YIB2ZEaA6Oytm3wARCJclaZ85/SP4D++m33oMu4QqA2+6tfV3XqumJ5exTylsbrg0TKMXhEXsTN4mbuqYix3CT2d+94EbyrV7kfz7h+MT/Dp+IE5ecyJyo+dwPHVKXoKHBdDBtHRVOnq7/1NNnAyDlobOmZHTts37Iwh+1xxJ/d+ng0HIAu56/2se7UrQh27C8oDD+MBdQb6AlhhaGuOHnQ+TdcyQfD/Tw0AGlkufVt2AdHCTlUMoPBGlxwYCJJ2JmYjD2Fz6xE5sGtHVst6OBfDQ46iXABYBnLSMOTJNJrio8nz6v/Z+TfGo2diResE1VSAaih3ivXBrQv06cULBqYAcEajSFUH4gt7XWU5SrCMhZSh5lWFpt/1BxLlcx45PuAoH2jBd6PwYyEBO22o6BWRtmqO2SkimoZC/K0y2BNogBOydYygj0HJngzvgHkW4ezBmGS9N/J92TYsDB0bgY7F/zJBa4sBA7DSD99bNH8vA/gdBoCP7JJSFbVpYi9Ga961trLq22EsDwaZBhIZkiSg0bWjQgOvgK0Vev0ysLqtZwgFUjZYFvnh+R/nPzYK6s1l3uHjdn5z7W7JVECvamfPNB5N82obDjBzMPFB3g0WO7f7uIBHHpQBGkpfNzO+N4Mf52wTgBdIoHx+vHwZQfnZKk5J4AIlzIyLr/209dtxzIpOlZzUscnfMHi0gkSRIYb7PFT7gejmUNGhhE7ZJXJwhYBhhV5jl6WaqHDTrPKr4DDNI6Q5kEWA7v/YAL5NrO5Rj+p8j7KzH42deNdBIpyWCLAPZ/3jchzoF+Ip/EGiMMd1bRS8g0kLOnj2c6oEaM+KsjlScygFaX0x+flhWp2qSh8tfPjES9l7pQKBLfW1fE2FmgFpI6OoQ6MPEjNjscuSzq2cdV8dwV3/gD35WDcrX4DUR2VYfnqAj45zGTYIbbN+l2lm/RmJIf2aJsTG0JlKtIIiNbWiZe53m4a4CqZAGoBQa7kskcHoXXcr/IwlWBDXFRn+0y3AsMoEDxi6Zvz+vzYAOATHbmmhj4BDhFyQqRXSAr6w91BYw4ie3Vi2jAYMKF5CeRFWW22HZow8fYVGqAqPtfLhCA0dwwNwseK6DT0g3uNh9W5FOlEp9wRnyq60ql+R8VBm0cRnuiAPgIaBnr2xNfaQU/ujN51b68VUM8Jfw/A89ev72F+tn7J4bSD8WFUuPwEnrB3Nfb/NmwN3lrN/FPe8Z2NUN5w4p6wT7uDY+6qK/cqMCFy4kUbbIwD7mxntGxejAx40sAJ4UGNZLdj4FeydioAxoe6u//cGMKJXVtpMwPRqTb/YmYylO/SCj0XPl12nxvhFaZhBmQ7oEeiDgj1yM3fjxVFVAEgSjOjuGz0TQOTkiqoj5mZFKsExTDeBCj/U2bAgz02crPy0r3EYGLRl8j6vIfGAwJ5JmJBbZsa90pM4yCU7leL5pDr0wRD0Rp4/2nvvIfAbdfoBVfhhAY1KvJk2YG/kp3kVT+fIRhBaxgeEAdb0sYikb74zJzDup7QzCec6e0IQp+h/rFStevdNAyEgvxvWkaUA84JoN1k38Pv/3gASSLQ0Snk4KssuiQsQGGhkdDQyAIKXnZxxU647W+JDuTqji+u8u+t9IYzWmALVEowS15s0sgzDGwElGiTGkJD5fNDVrSvjUVJUYafWQSqcTeT6cK8DM9cXTwnEUK3R2fYJy3qKtcDyq4MmcLbLaVeQV7jxAxM4vjx+8dowKZ5LI49s8Vr8AYd+LRkHZzAfNvra2wwsJEc1MHUn4nHr49AftjoC3bxy1uNgAfxARRFNmu6wBGAYmAgjDMJKXWeDYJfE4dnMWxVu6aGNXVmW43+DAUAimICJhhS1nlAHJkiZK9leZ/D18nBrW7WrgjY8l5mxnnO3u8Y2X1Hnnt0wQ9njTHHc226kYYXgFfeGm8YoKOwplaOlksqZ2S03Wm3dt1WfvFNo66Kl1LEovG1owQqvdAx4fm/eZqgIJ85S8DeS6D0CGD/2DhIWqXhBTV5URa8GVRmHeYq9gX9wA+jjngONJnxCzI4pmgQQYwLTTKIIvqsymYl77khs4AHmwIo+gOnDO4ulJMqDtX6t03odLID+JRj4P2IA3+OStoNkrmULZb2MVY43oGDdEa6ucggsArQrcmc2fjO1IZnKyPIwJGNMFCCehApFf94pJdAjYLuC0Yk3agQ582FIy5I8oM4WauU3IWLUb3xyHpVMC3RV8xgdUnFbc4YcTQn55mgaI+HSu51lXHhJrNr4dPCPOw665Fp8rK39XF99YQ5LZJIgidnQfYLz2JEHRBU1tzPdpySRdBhThAx1hkCSEGeaWqtRzFEJNuCDfRiU4TQrW8G2FAARZGEQEKUAtFTYu+jK5r/EACwM8KIQLE4rLYYSGtq0FETCSq2nt7boeZvEBDvONtx0EJB6cPVDs5PUwyIEeKg1FlJnvXQGuNlqLNW+9cMCfd5hG3O+7dYkqw61DrSVci5gM3Tqj7FxQOVbZaKuVl1XUBX3OQk6dOWZEZqvh42sr+PHnnHxgJo/IEbX4jmcKH54h0eXqumoQ5C6OaP6RsiBGGEGFlrBSXIbbnoAdv31YirlMqg98AYtFhLwuQS7D41JsujPdhqqjRXWJe/UeoErwkAjzQCe+H+NATAZcqk5uTQ0LixpgfHJ2dxanqCQGcMiBSUOCS8cqAYdN5TLajyytASMHVMXAcERkywOWdvZyRsxWbcaoea9Q9UTUsngGuooamcdftwze5bt3u5JGUDVVi7D0NerAGnsNYoFALRvdGMjLQu+Ylder+/hwyPrK96o0+L6uWvwILGyYaFZCVQuDJoi25+I2SOFMrTwITmTRFPVtwM+kyeYoIVjJITcbqp9SfTAApEDG7ciQZSCiqYK7EqJDQxyJkqodqQNMP79CPAbDeD7uiSUiq0Eglu3oZXN9pnVp6yuY5PBt8wGIDldbNWNuRDaWMaZKdOPJI+cp4V9Z3z0DIqPYzViMrjDjZvWSCag1EV60zoKSU7LDGkP0fz/ea/DbsirzJ8zm9L2DBJgL/YmxAyr3ZE1T1T59b1T9kYev6GorzXE4voCnY4LVGOhgfYN0dc+Ic+dzQSqfRtmUIiykW2fsyO2wWSU5g6+ePxYrEx27zC20EAtQL7bGBl4Y0tiQ1ekFGC4Fw2w64Y24H+VAXyPLAilfhDkxZ3uqDdIVWPBvjNtY2+Sx3SMCeFxMH4rF5sdQTIFvwxmIcOYc5A0TJUiwJ7XhSRGHZ0x5uFC2mGJzUHpTDc9VzZt7R1VXIDu3d6aA3C+ijub2nvipTYON/Iyd7S6pCBCIrCS471bcH3Okt8wsxcc4YVYHJ9x4Zpamzrig66jkUUCNe6RTeefiopD9gZPeswSF3yVzYMVhtOAllrMLBXwCERz2xdvg9XB9IANFkSGVSQAMAW1dQO//7sMIFGKj1b+WdgCtmyr5EZiCgGoMYqQzGULpGZMNI3tHEocn8SwyOxNGfFYWZbA/XnjoydColZDg8iiv9yJOQjwPSD94J3tQVOYYr1K7IozrAdnLP4yEPn+AzkXb1UBrwqFF9pKke0s/+QSS6f8iT57n/8fVhCfKLVRRU6kpR89PKQwBOpWB9jDAwx5c5Y0pjJIvvT6Jm9y9XL4OW8ZkQwQsyG4bi2b0C56THNjqzVEv8GEYa3wXxQX4ARrxt9x/r/ZAGxThTWGhAuQE7iW6YQJYtEVndGcQHFly8Mu6R01w+QSKHphHbZpLDleS9qknf41NYojoJVLkDSJwRWjOrz+YsucPfSqBVm1RZTANbD5l+kEnQnU4vidwbGrhLuhBjA8HtoEYPJcNRzNx45p8RN++F4yeuywfoCRTTDGoyga2TtCNfZg7dvD9hsvc4826uGmeDfPBRaOws+RshpNMPmOYlBpK6HyhQ30j5T/ZZPYNIwk0AAgXWd4K8Ls+F9nAAYR0rkahs3YTDHYYe+M8WSIZtCzkYJhCUZ5RrtfKd8+LHgElQSxG7JG5bGh4TrLB+mQskOgzNCBlT+UQGRwz5goKeiB9WA4jPJcgEqPQ+S1GCdAxRBWwaGqV1Mo9afETiaj2HObvuGxaxO2ap7Qw+KJRP4jBtl+FJ97abqspBoO3g9TogoqNwnxMd6M+dxVF+sEzItJqiNgSxwLHYFB9j7L29HwhCjC+OHs+pggrF4ok1Rl1N1ho/ZmXfQQbQ/j+v3fZwDfFqG6xXYHufU0q1A16lwwRCtVzFDCJTyY2oWz6AC/pHGikiqsOirgoYcJbCryy33MR9UglzSkDbKODvJFfz5kJrfEem3kJ0dF6NdrkyOgaatrTajysAdb1Pfmh3M07ZSAoxJ0J+fK9ntmU7j85h/7AcXn5umPvZPr5yIStoBTZ6OpcVPe04nKQn343WQC8Pl9vx42BkLeDYmHLLF9ROIbOFD4/xTc6HIFi0o+lc48quZYbaRW3pMiPP01YurS/I4m0D9gAAYQ6QwgDnGx/JQvmoRiHQzFSHJL6eesSBi6BxuSW3aL9oOb0AuQc6Trz7Ys25NEVyOo94QBVXD32gi3UBhkdKCEYR4QW1LptSOv4Kpz7pfykD2G/FxBQgwwVCnWdOuDsrGtNvL2YOmDDysNXH87lCoAWfvYPf9cOPkfhjCOi/Hdgk0jgDkTtncba4c28q9M9+wWYM+n7rMNMFUBg5ElNIn6EfrcgeSPgfi0rsYByNSjgRkU7pAuicE2D1yYDVy64vu/0gAQm08vlzKgS3PLYHRxOmg6W95ZiKCnJ9MIZYwsQMcClDDTj4CYOuypj1ExwhKOXjhdgGCiE4xLWKX3a6VcX9H2orNcnTEsFG0L9DcoB6DOXFnIYNZWycW0NBC90oUuzODBmBApELAiqNJrDea3TdTr2d+9pn0DNnDK8Q9mUJI+cMzHoXRv6+GH0W/7Xt/esRE2sCdiOoCyiLu/U8IgDKsgoWTFGWXGyvyKAlgOD0Vuf3TLsCpj9jw/9xwCrmn3bmzbpkx0wOP4X2oACy0KjnspE5ElNiuXRROrgWCqRDW9YU2cobFD+ZLW12AWMAAoWqNrB6vwoRc/JphFyQS6pEjkTDbND3cVjoFEqnYQE6/9TCsZ/GFcl+uov0MvplhwE9tamczGkHSNDYp23CF2tqV+/vnKrPs8wHn52kTh+LtS1jFkQFgbQ7U9zv/oo0NyMvRs/tQ1et8uz+Nh2vEubnBfR5WAivlUtG629NVUFkH+6r8mohlNUYL+p15gY+TpLi7+IbrDBlhjnaAU0lIfmFf3/V9qAKkp7Oykl+ZITCbGYGbTYAM3NTHa0SM+oI9QyDWJSBY/H0122tl+tNflYiMSC6CbXOMR2LJtjFDnONCd8KmB1qFel+FNvNf1p/0wcpuZxeues5+g4NDTc5T1qfA7qXrYwGaEvef/Q7ZmNpRt3skf6ENHgT8kSZ/seAwYhr6vYhEi5JBrNvdhrhqYn2GGnfuqj6uNhiENX52VphemGLOnMGARFESrByigMB8TGDyzpKgt7d2TBtDvgRVMz6rwiQk0uVc3fv/XGsBoc2CLYvBXNFbKLmYDhREcDDY3NnZko763caEpYBLiBqaG2brSHOe6D3Anx7YFMGK7fAqU1h8MRrDr7sDATJE2OhVfLkeENrC3brDJcayAmLGXpePoEK9yKFZVYG93BenVOggZoOJwnIDvAcV5lPsgnIbEZGJCfnRlZVlKEft6jfQNop+ZVeV7ZRQxIfRUoztUWBli6TUyYke2WGcQWnx+ZvgPbZi+JctSxhwABGTwSQVOj0yJj3GDLgatg3KnMzawLu2q/r7j+v0GAJHg0DzwIVbD2L5gAo+bNzC2iC4lgzpvigFr51l7yy7B3qoyPliPgTfV9LGdBQV6aWZb3gT5qOC9kQ0SAzwMHUoOVAt25qrLBlhGXa2Mf2VFyDQzZlH1xUjS70Pe5ySBlg+YaXAx4z6kXdchWAMavDbHaQmfXuS4bBHZztHUUnxVVT0eAK3oLPcbgX+NKQ807Jdy2HgkxBOH760NdIS1XlkErmZqP95vHFKbJFoffTAeKMbBcDFS9tuwbfx94f+fMoBvkqbUBwIdBF9M4rEcWWMYykheQEAwykM5XMo9NLCcSrE1qeXo8JUCrUdDpc+4lwywsTsBuzSrxpVnGCTnLyu5ZDlTApvE96uyszCMgLxCbXSMYV23e2/AEdA2cLQhXu/rQMeWmYx5YJsOWD2pS8y6tgOw5XMjeCdPWPvDb3op/bY0adAEz73cPSLPNufv2UEJF3YOXBYgw8/s7i+HvmBYFN/ALzj7yhkMQLvJqkD4sHpZqL8jxgHeA3LQbliWViGB1moxkopaAvhbD+ufMIBv1sRhBKBlTRGj02gsMgyucK6wnQE23Bp0sDprBhjkRS7Ql5ClojtpUkkmjQdaUoeUgZNmls4ieZcZES+EOqqVzQ8cChxga5Q6KBsbqfKgITGmjtVnrWmVZgP0hGBwz5zZJVNmEAHouDC5Q9nanjCD1BjRmsbInle14Xhcb6ov1Y5SUjKAcqggBbMoY5ADCCB69tQ8et+Z4hW+PwTT+zRCdUcziIHkYOmK6pdsPTzc+5Q7D1olUidYlpdlWFi7Kpp0h8bf1AH+Zw3gsbJgTt/RDTBFy9F4zVCgNVb0skEfBDZx23xoEiOiqkbU6NmINeFc2U/YhzTr5fJngANA1ciPUzw3yGpR2RucNGvbFrm+rNJ3a+quam26Rh228kX9UBkTEzcf+P2B+ziynIZtZD2f9rDvDa25UuTB1DcEqnsgPgyRON3BGZkR+OSIm6f5oy8CI1BaAYHwge4/6R55YTeb4naiypH9tXQDbRk0O5KF0+zQ2UfktXB2psvC2qWR4Q/GA9I14/h7/f8/ZQDfpdHJ8pIbhpgKm4MVhIW9MaZCFLeLva27ity1pP1TNiZC5XIjT16xhWhE6gFwZDhy65zJPLwJUxqobLiTmDdZ1cbBNi2Jslm/++vo4SEibWAVz1tz1ifptYNOsAXoeNwVJC7NwdxR1UK8GFgraaCvbGi49aKATZ2Zmbgd4hdhJsGAyH9sIjJh+hqmCNTvgRNlC4HJDlueZKsZ3o1pV6djn9j1YHbdsUt+k1eqQAIPD1rtwXYqzNsvyvZhIyuv1gNgNciVv/uo/hkD+E57q4ZoRHK6hF/aN2nNEWar7skkGjtKwmZmsIPL00+M/4d7NET03dLAAHdSNDSJkSje9SwRo0Zw3sGyaapkMpmWPBG0KRomw64SfaGZ1Fn/RzZlWSWFow4x3NfIbInmE104JYY7xtKbhBmfA5VAT3vJtB+geWcS5bKtVoS5woSotwjyaGabAZjJ0aPvENZjjjQoMkOf83KjYXuUDTKpAANn9S6CWrDtU/MMtlCpjLHojANeqf8I0L6xNSAWgprr747//6ABWDdAr54tLROZebSE4BO1eXbaeJO1o0MFPHQI/J5eQMmZZewUyR1mrR77nZkAYVRh/jg6UkCg9DP5vy7v/8feuS43kitHGMR0g44xsIjWAZYEetl8/7d0fVktR/iHI2yHZ0RpxJ3dc3TXNAp1zcpsGqdfg5QJgRyxVscYaMZi5gEXo/0hBBzMHAJZAtLlYE7sJ90AcdipLeG4/o0dXB8sLhMxRlDn8c3SuQdQda28mg8wp2WZOqk8EkAXUTxcDgA/+094fy53Kx5IKezdVs7Ge8QPHtQxlgBYVDd3fzALayPMSjswFPq+5AFV+w+EsFS4+AMNTTGw9v9v9/8rDQAqQbWE4JBt6mEkan1aAVCABFedmFXDYjW+GvMRwJEIoLJSBOkDG1MzSE2jWc1n4TdIcFeLYJDtl0MrREPbZeAAgM/Mt1k2C532zWqmERygbdcuaWuORV8s4OL4NQ605L6p22f3/6fdXeYxcDlYTUBDZkHPi4EEe3zMGGnF5Db/iW/hn8s/WMFfIhtADy/ejzfmDD8shO00By0brGS74oI8FOHJblGT1eZ/U9yyc0diLcIH1R38FU5JoKrqr6btV5zTLzOAp2Arjg+7QWmLATRmQlwGQoP5hUI7qOqPnV452i0UcaQh7HzBO2cHhUShw1jxOh7Qe9jHRO52aMP6FqSgtTNOvgBGWeYPEVU9AvOnLL16u9cauAhICIPB1JU0KwOnc3+rcgTRM/9mqQgdHkv4fZEAbl9Qula+X6hoDoH/8/16NUO8090HjLDf3i43hMFQC35TtbfvcvDm6c0ZuSxA1byXdQmkAJC2anZNVrv5oVQ1ezuOwGI+HGXT/lH5/0vO/xcawNOZ99gc7SUBEROfichEvKTRW8w88kp8ZPwZEFFiXzJPeCSllGClM3iOlm93sJOzgp87cNmOAGyCUBJgdZdYOkKTuPfaB4kBrICTeRtSpkfS2hE7yQFZW7u1j/jzMCe9nCRVBGz60QuNhvDQVjkFBqJPmYUG+PogS2fet1vC//aGGPHlHu84f+rFy9X+Bg+g7Dn8ZSFghroftLw1Ajc/uNAmBfdJyKLVI61Ku/TqmG48mjFIAn2y4lIMz89mAE9EwJw2TKujEjtQKIgObtKcaCapEZMa5/1IEpXfWeZic3jJSGtrdBIv+W841B6BQbAGaXRbg2g3dmpGaSkzzKEbdK3iKiwi6iKYawthoQ/ExeTqMaV7QBDE/Dgyjp7eE2QeTwoQGD5f3n6o1XjZLZQLfvBgX4Gt7qjPhxcMCmK0Qhcr/MZwCpigGTD97l0yUKBGs6bhDoEDKOkDP7sTm7qgiovAvcxdBudjzv0GM3f9FeH/lxuAhYFNMywB25xNmhaB5bSW4OUk3gDAoemUHrPTh2KWHblDsNhFoMFLFVYYUKjIJNRTMcdqNT2dlruGZlxcFg6ZuFpVXsQwUsGZBJow93ith3uHiTAjjfflJo8/rQxjOcTuO2PYOPebZftq0VFDsnW46DjZUbiAHdmpX5AId3Qne15MKQ7t91saYtHDos20uLD/G7RnIdzMCKzg0eZLIzVI5PwYQtF0gaZCWzVBSSqfg9T57P0IAiE0/PyUBvDsEfefXd4KT4AXoCOWRCqKklhlfcxBBKTwAmpAoT4tPbb4bh6BQ6wRQulpofZhp/iPXamd/SA+YRegHhCBpQ4Xwsjy82cImuaTci3a/aLdTmddjReyMWZLTOKn9pAtG42ZAtCKzRuNyeVdsdm3N5nVkXzMeVsma2A/Fsa9loq8gQR+O8Q9Z97oZlXmLqlY9h4YZJll7Ls3saWwHaHFIvljcGkWiqCSmWtnxlWHOHbSIBgQAE72kV93Qr/YAJ7iCNeIQzsA6go7scG+gg5YhXjSMoFd43tIgP/svh/H3zj1lr1xl/cH01FqtKlcnBH6Rcsz7AvZ1T4qaCI67fZJ++NyZaCf+tsPiw5Q8JXLHEtWsonU+ePQqtq8LOVy0wzYfPLfB4wcELRGRZQ9WxFHAYqUizIBEOiPaWn6uj/GiG2fO9qgOP3lxx0E4A7vP4ax2LGzviROKLLcpC3vA0Zo4Ty1KlVIEdip7JSLhRrQauYq9svkBJw5/dID+sUGQMHHoTMarloPT9oTYI/I3h6uMkd6ID5c7Q+INTQK89H+tQAiZznCSvGjslY0AVA/tDamjlsUdgCVUmKtsgAM5CFA31DtzZKtnbxZGvmE0MXOL2RHRBP2QNSvPeKVMFNZWAd2xNyRdaQJhdsVPocroIFlTxrMWF6jGTG95qtahMz5d2Y99wmJjWwzK5K4Kug+6f7br3K9CSdvbmGIDWrbqhn4ehtN+l/O/uySDL/O+f8eA3jfHBZAg+mPJwXaHcrSuxBxCCgech+cdGHTk5tXc12EjIjanwcLMi/V7ierU/uUU0Znm0esTiqtFBYt7R5frleYKBJ9uQDCiCMHfXUcVJG0ee0u7nUCLT3wLpFENF6nWed8xMQXYCqQW15Rd7kuFtTveH0FZ66qlYrLFZqf5bHfr0Qk80oggLAumlVHSGAeqE6id7l2WgItFqsFzXmFWlbmih2DJwlgVuKoSQZnsGv+6vP55QZARyifDEFR+24SksK9LSgLCjEGtWC3fNli4RiM4amVM9VCtgTeyWCo/OyQ553ZXpiVZO+Y5t+pCy5sT0iBEZZVy8epIrXKuYRhdV8FcjRZRGG2cIDQpBcT8jFuUdWd6kUETaLyCbuq4hGSmAc9nofFbKsJ98yys4YzdkH3cr2D59hFP2v+4N0LgPvcNQ8A9Rqd6wBAaKsSg5WMJoVPBXuSzMRQhUg0f5UOoQe8jv7rz/83GMBTi+PaZCoMgaE1yV4cBvZf9noT4tdsfl+AkLEJopWoJpNQF0j/7mxN8Z4HV5nRziFMp6YIgta1H/CMaGy8zKv2ONKqSaN33+OR8jC3C/rSPLsWmEK9iKNXnXjKAixJzWMUfA4nmLKKA1SY2S7da6paQdsCtFN26Iz87BvtlquI4wIgqLS/37+TBp00n8Is5nBQ1C7r2tYWq3gzI01gqNdZqC9NzXJ+/edXMAAxiFAB0N1qUr2otTteCN6AhJpQmg2dXofO8zm3BXqBmOF3qxFEXgZUY9foznhPLVzxSwCjyU0q2+R7MBPlx5yPn0vYyiZQWps3JgGJ7G6xwmuFrtEOG5wp8QS4yQOLYPp/iZJwZEjPvj5ar1NtiMV+V/sp+U3SWIdF6j4X+D2hvbZ4fsmA/R1zZN8C3N/lIiwztDb5QNyd9rAZysq3qFkZkASU5qq9at2K9A7/7On5NQzgeQLFaXXZ9VH0pCwMoUeCg6wi+yrHyli82olM2mTQfahhC6vkHm52Va0ytzSfwaHumQ/TyQ4tyReOPjPtmSPclgcsgayb84dlgyZVWzljtgosD6iMnQGCHQJnc3HxH14ZJrUHMDrwJ7QAST/e5lvMjg/uawHvDzsJBSTdof16tV+wXg76TJYhqkC4y6eo0SQQNOnuir4iZmQJQNwZlg3/nqxVjKQI8/wqBkAxkHzE4a6T0hCxK6WDpYgwKrsmqt3XUi9sgNlbVYqZoOqaQ2kSCko5lngXzMe3i8gR1C28B3o04qltOzPG3h+1BNUV05XZWbLSSkHUanlbLALEvy+3+BDrgOUHQUkdkOMoR8OoSPREGkWD+1oeV0HEYce6XmRImgRYXNnDsVgmYMk804rFYYCYqFqau5pSdtNF/xpY9l3R1SA3Ym+uiwKAi8DoZOtfyACe0hZWyW+hYFKyCSMKYiQNYcdACNr91fGIOEJ9QrYrGsTSSeBhZgUNfqmF/i9wckFHVStSbdcSvds+LhImxbGbIy86cAgkpdbOLhEzgKg9BDwI6d9DHYZ2PHjX46rwLV6v6ciwSJP5zd5Y/nkg8UstsF9BJkP8sovZbtHgWQuvmkBdWPxXhAIIDi0G6+/a79GYf1KoDO3HkwoXV4Ou/f8oA/rCBvA894U1I1YREOQT7B9m4yIKqGoa+wqJ1BKWpgY/nFJQSLRKW92s456OoAmyZV2WSIt0TASl9l1ENBmEr23sWvC1YieS+iK13a1Je4sJP2WDRrRElUibPx/x8a9JhjFleTcYJedfruJzQQj+7XH9d7vbyZx4u/+Az3NfHoKscLyo3jDWzupOModaYopsLyxiNpnMrEN3QuVct7StuYya1ihZAJ7N0IJt/z3n//sM4JnOaiAJ3Ua+05C8owlwkWtACUHrQ0GkSFKftgMWiEusyXNmzQe0WN58d+awOEpe0IQdyFLW4osT/DPsIFZGCZZ7R00WPQ+JrmQHFiu2N3P7RcYg+nGUHS3Kx78ukvS16z/F64eahcVw6MpQOl401Xpcgf9aZSpg6SGWKqigMCrXw1EtYFHsggELiQTBizDr5n+0gDgUDKl36RcGSa78pgTgtxqAekKdOhD+V02DAwbArABQMDpYVPN7g2R8kizdWCPz9cBKImcZAA31M0tbeKQ0bHHWiycQQX1DmcgSVrFP1FR27anKK2jTBA4xdPnyo5Ib/uV3NxLmGQ9QCJgbcS1Xsrw3SduJp4qgf7Xw4aC2/Tq1yayuIcARlr8O6G6AoYW71Y00FfQhrTC0EeQJU7ttHgXUVWyCT+UVIe4Ue7H08vkFDcAZJNIGJBBnEFa7BU4AW+eutl9OXrNrhwRAOVM6oakbUDq6Msrlomap6g+KXanRJNCMPTuu8pSuoEFcyx4EUdYV5JKBPLaUgiX1JdY5RDes1jB7XtpdXyTcAINZQ/DtgEUiiuPvusR7K6Ba7HQnjDA/wS016kXKS+YBO1WBuA+PxrqvpQ/TV4KK/RW3vO3pEFqC9aVKUegIqTWRHFlp2J9f0wAsGaybq0yyHGTljmZDOPuivE+colaAIT+qHaldcHF66DlzQp61VdRotU0rZw7VK4DLJnldAa1KhKS4nfN20c646UC5Qy54FDpzFZjAA/1ecwtzSsvLDlF9ZnI7CRxfJPUbHYf8BgXJlJj7loQwZKfQkSltv2eWCGEMYDC9V7vxgiKQDYSdqmOA7soof21q+SOrVZo3xoSWXK0E6OPLGgA2sDEVlqh01CggrAIBwoebSoFJUvegKlnbLQVsqx8ukGHR6dE/3OVlWQit+aq+qsSrJLMtzIXVfPahg4VDrdhV7VuZn09JEyNPL0kNafZG7Zxzv6n+BCM2OzmW+lNIoYvSPFoQ8xre1LhEs+9xjcvfzAnvDK7RypEYNlS/u/0IM6AbiSeTvplZ/5l5AxJ1qj1tVuxpGa6GNGGDEcVK+g0d4I80AGrC6K2OFXxoG3bqVgLVvE7RSJANR1EjVZhjI0DCILpk5gNQiGkiAAkhcdtu1h4eolWwBAInkCgV7csfWdxKPGDFhaTQIIT2hJiDApxhnHo/du0hHpua3tG9TdpDBt8NezV5IANIS05glJJY4mbV/r5IC5YBAz9gp2bcQZXEAAvxwcw/7e2y6G8V4CQW7xtEKTH3NZWjlZBuw0VgsiR5n1/cAKQzEuh92fUfbEiFUwvTRVL3KulplYRB4/PlmEmCuaxPWyGw2JFftD9yoLAdnXGGCSK4Acs0q7oJyfMAZ9zlBwD1qKyBQLs1mdKBDZJEG+Sy04zJTOKS657CX0onc5Ofp1dMdr9I/XIp3OreFziK98d+LEIoY56XBt6/mqO60XkO17CI0nZ/m3GsfbNEk3zEElSIbnI/ud98b9rufv2N8f8DDeAJ1zUa9FQF6z6dA9Mxo24Ex17wmaCK4UrK7QHdiDlktsEs24ZR19IuO3LQoGoDWS4gYjE0FhXyI9ADdR3Mr/AV7ShZsABzAdNOiX0U2g0gEuGgHY2NALA7wct4UTVTHSyOGkPgceY8ZhFU286/XugEB1CJgD3o+5lzAu1Zh5WB9lPFfANhVoRGF3JLn4zP0VaEdlcgoNRDTV7g957/hxnAkzUnirOaTxVqUQzzuMwvROoCQEJM0zOwIUo3Ps5IXQUgPFv2waGZqlavwIVcAN+C4yD7nuLYYA81im4/n+MfFs1HFIDkbsmhOspRpLzVaSqW8tASH4GBncJZtCvGbCJcC78TNXvaOgvA8af9ltKIRB9eIC/6EYfmWlgW3JHy+fb9+HuuMa2tr6hsS14zCf83kqvc/O5z+DADcHxoOHkhum49wBB5gcp03C5p1imTIIY91Str08KBH3T8LULs2qEms4dMtWnsrgdvfr28r2CQ5AFIOjyqBFkSOWCeVgIexxS/wKFSM0udFcIhVW5e4ze7x1r0opts/sgChKjxex9Rs8CqUQE9QypZZz6T58iaYUgUCQw4KQC4BKbgyBFXkangDvYx4Cjcfv85fJgBPFmBmDQDBi5AMrguLGGn3WdYWaXS8TUrDIrFZekQWPofTsYxe5T2fHflVuzUHZCTUyrkY1pZJyJgxg58IfBO7aWwoYhjyEfzDSRmdJZHTMn1AFEimkjLRL0hURUPoF9FqQYY7dB9TReG6HJAH8NO0X7Fk2Rggmr+q/Hc2EWQnibw30JqYJkumD+NfBn8rF4Ajr59yDF8nAGQCWbNRPt0jRFuFS2BwbUHelFXFqPrDY4x7m2NgtXHKzHVThdcBQYT86Vy4+0JT+V87Nlqo5z7BtxbSSVBhuWy6v1AK/K0dcSwEMJ5Fg2zionamtfuMMocSkaL3XyGfKvW3Vpnqp2Oo+zLdWrz4KR/qfL6h+7/InGLM5XwxUeJaG+ez4rz3/Fleu/zjzMAkCKFFCC4J+yujcogJYzkm3FquVjkhiixN7qFzPY0Ths0V7JA5nSFaAOQ75kDqCrt2CbDbMgGES+eiNqMixXkULIpdjBfkG7dLMwGdvEzz/ogshxIuF+nlnfgNg3FKcQc3bKRyFvkL/ZzC7Eh7eAAo68uMFW8/JvQp0EJYWD6nZ3npzv9w0n3pgHJB93+DzcA8YvTE9asGJhguFEWkK6n4xwfW5p4uQXxBIla3J7yqhkAnRMwlzfd6N0j757gD0NPTCgATqIVEgTL/m4MFLUGYO8AgKub2lzi1vw8A6mKw4GONo4c1gso4yB5s2HnDM5ws99io5uTLz+iks8HtlNihv4apJFqU0ELo9CgZsu7WHNBeq8bXXD7rsMltBSW+gcewccagBKB1kUyLSIJBwkn2sKFFbxDiR03kKuuRX7o5AXNA1U9tXe7qBDIzjxtX1PtClZo5mgBx7rYW9znRQIsbN3YHwgJoZXdcSblRpKWAfVqjcVKUAJFPobY+jVZ6LXAZxzaG3sBqKFdVDVIBN0rUaqEOgghi+QwBTgJpw9B/c8Cx8rWNFQZDAFwJtsHXv+PNwDxS5vf3+jaoy96SmNwHolAWdTKk3yS1fR2bDc19M1cUKUuMM7HegKp1QoCHtbmsQY1h51WEm5ylsfyIjJ++wj1ABzG9gnpJkkzZRnpEFG9EnhHI2mImCTdSSZQrLaPV8gEFgv+F44awQvtOJGT7lGJ6J59yuDqryJ+FmfekLAivfCVveCggeDHPv8PN4Ani7GairAaPRkH2ckcrjfCzhBXOCaW+hKSM8N8NCgSOfxhT/GmsylJQ0TGKtVbLxRy5HTUAROsYCXnY0B0FgGkBYvAJ5ZulOR1O5IE7KiJ1EnCzY2NNUs5Jz2qrtnU41EACZA1WsXaqEwYaIvaj09IO+ZEt2JZtOlBfVsd+0gDWZgIq3m2mj72+r+EAVgqyDxMGiFZ9UC1M5fKsJikq8/aBQWzym5wU8ssNHzID469Ciei5lo1Q6iiI15C0XSGarALOFBFuGrlGSrnOT94m/FBjur2CmLiyT8nFYk6zRF6JAJEE73RNNgprH6pcwBPSNvLgXjJrtXmmJ0G1exjWOqwBvU4SU+XWET2KiGINVnpnz76/F/BAMgFq2VzUpZ1atlFO+PU7Fya3VeqzbnuDqe40T2qu5UEKZ38I2YT2UdGi9NKw0ja3k9YSuzBVVgV08UYZsfK2AhlTjOXXX2B1q4niT1fl90GlIjsVAUWR6qQ61CUHbtk3dT5sbI/gw0JEACx9JUd8ymMu5UAI5xjqq6N/9DzWlr/8Pv/IgbwZImr+UxEraCa11pmvYlqfgV+4T2Yqh0AhBR2irh2g0bLTlBIMqa/PH7L5g9x0a3HMTUMni65ET1z/Ek0LoAEcrCrvKBCgVXwJSLvaq5nXIVcxxLbQVoA/GCPDlCgvqjtwgZZmGlp6lEtC9IY6vCudbDeazkf/W46zfUkyRD9jz7WU3+BR/8aBvB8jncB+tQtL9M0UCrpwEaKqgDV9BlFEWyClL0uFvPFMsmV9y7wSrtNi0Y04RUvsrBCs0rGPDRvA09SvTS1T5hiCVPKLCInWbJWyW9RxBX2vqplNALLFH+z8r1DE2a1pXeKEMgNSvRWdmtOeSB6RNU1tQ0nzBcHLb3M/uHp32sZwNM1MUnmJ+qjRT0y5xEY9Aori1Qr8Nls57pbRW2ll6fvHB01Yor74L5pPLA4vwxe3TxCbIN+sH1DyzJ0bnSEYWYnaqiVLBTxberNBzl8szqkiZuq+EA5qIZghRydW7PBISXLPNp4Bx9J3VXIg+ScCAHMk6beQL90/nVYOpHSC7j/lzKAJ/CYExwcpCpAKqicEFJZic9blmUlu9VQBYnCsYuPFGadSpZvmduRk7txlgGUPDLhAwecdcYgQZugwhhB1bXfgWdHtZBBEPBGZDtBK2wOHz6kXkWDunK9IcNGFFPCl6pRpWKLZOYA0Ga/pjkV92iaXAQPbWWFCEqIuJrTa5z/CxmAlwN4fQ1LVl8msxMRaWotOgD2cYQiTJnOvR4lVFD1VjTcYbuAcjEkx4Bp/9j1yxsYkWKBPFVP8+CjTM0uu7YOS0iLkjjoyqIjSEB3H9Lxtq+EygfYuX1H1pNI/xAvAszWF3UV6O5oGr17oGDTs4oRC6pfJRTCQbEc8Rr+/8UMQAyznPqafDvErryuT3W5HNCUe2Y3zMFEyUfH0EqTpNMcDr4KnLnVcI7DSFIlSZ1VRkQVBlT3bJ6CCECGiY7TVFSwaF+zGEVmdiavQyjltkwnes7iO6q0FjTtVwEaJGIaaGhaWKojATiiB4zHGHgGc0S9ZgdDM/NKL/PMX8oAnhqyBS3JFl2goF15XMNapUodEojsunfSu32n/1fPZEsEfE3qlHVCRKicn+LtUOXG0ng+EtWdc5PL+5OwqaWr0k+ixvD6UfST2yn/b6wVgShVtxG+H7aR1EhoLofKvJ/7n7ThLVBATeeuP1sPZtNwY9k70STvL/TIX8sAnrlPUPHNZ0N0cytXCPoIqadppcQ5VLMIaPERJ+2wmEjJu4AA0wRQYT/EIWi534EgD4GfPX2lAtDSO1SjWdpZnShkSrCGo4raH3hMZRFEkaBEMWv2NKVd2rRvpiFyYKQBAwKtw0lj0ixgr2fjh17nys2X1vTz2wD++yjQNG+FPcpJJTQOXvNJNydOGTtoYKN+t8wdRK7wTap6UidLIpdK6gXQVkxsgWbP94XRPoUICNvKCmkpYx671gtPMUPvLBJGgBDTVtIGivMdVvgszT/EVR1rps/ac0vgm9lHFyWS4pnAj8I/aeS5vdgDfzUDeAoh6ACRPrj305/kTVIDgUEBE4DmDlkZlXQJD3jVff+QTi7hPuluQ8ijLjNHauXhVL4mpWqwIRQHGbxO9WRR/OZyCZQI7xrlmlVRmKidb95BICPM6NDOkTgvnQdlzWI+Caw6ukIOm960/nov/dXO//UMABvIHgGEEmBuCj+Eqw/pX0uz8qoU/0bU7VaXlb6iQ0htrvxdQx3BiyEmUsOWZBEBU58BkAveaPhziAt1XSYrxMZQNMtJWLK21mVGVYgiI4u+dKBGYBsjrCIzqUmi2OcwG4YH0hjsJKlKwQ3gBNb0cvf/NQ3gibCIsDKNTdr8zjY/eritsoHgNLMDgKal167wxA01Y2BpS/6boQyqPhxrlnx1HRoOnDytOn1N+EVHFSTpUWpydc7KDa9lqMbwJVM1C4GxpqkBBO0DNL1UY2qdIQ8N+la+UENmcB/mybwDnPoLPuuXNAACwda7+4A+aJsSSGvvoC0GxE+jrt4kzOMmegmYR0CYCS5qycA4lZY6gGO7tArOmsuKhQhvDl43+YgA2BD7xQi0Ja/3KA8geBTIWwDjKgE/twcBF2lMmck0JLKFcWfOKF5858enRhnethD46/ltAP/z17Y9pdrqG9S0g+3fBhzXyinLAbRaVMc2s7MQnl0h19V1ZRqR7m5rgpkYwE8ntqu/r648xSJBIWhYBGdns4BThAEgeQRsktUEBozKBEl0slO5YZDGT8ExkEEqDNBFlJkxouL4LUrkcaqN9heq/T+FAbybwTYAD7Mx10vroPEzb2Yn1XKOEU8ZvfXmOrXJi0NJ1mxscdeiFUDCiVbIhcwep0M4G3cEGf9mAJEl3MAOCC2/pkMPpB4QEFhGOOw7Wt4Jo684j5gDKW9x2XRf9h7mqHqowpC/6BN+cQNQOFidRcETAfbJumqqLA0yYjaRItCG81rRF+04CMv/+rrlMluZKzWEmOrFQCNjSErqqQEoKm4aPcmhDK2rNGysrqPYx7XDniR5oTXmedS1qkpADAJAYTg9R6esJPhsa98ll9a37WWf7icwAIcLEAv2tG3aIe1CWLabZdzvQNKdhstMS1Q9BjBIXVcZS19DFA2Lt/CtjkzBg3qTyHkivVfTKXs4cRETWrdRxbtgvUCFkp06K82jYHrr6l0qSd+h9qSCtaH4gMu3n72y9pG2F362n8IAiAWco/QnupOop7MkpP3jnkG5/tCKaahH0R7oSO/4+6EknmFjH5KtlfeAwqumk8weQIHDUUTcr7byrO/9JWCpK8FefakEkYNk/cR/3iSPXFX7yT9hn2Zefe29v/SD/SwGgAmI+pWiT6o6vkigWL6/71fpv037F0EdnXa2lOxQNLAVcwwc5b6QjV8nl0SzSWNEgUchL0qJukEBYwuaA0x6zPYN19P6BPN/Fz5ZnRFffqM7qOl2Ks2/+GP9PAbwHg1wBIoDOgQF7XOzTPLKwvFR5IuoazoLi3g3hTasSvMYM2rYsKoBhDg38YHeICMAB5jSLhyC9GmHK4TV6oQhVWwJYQ4XRVKV11ZZ10mJqnLktT3/pzUA9YoJBatDxlyN6NyxkoceK9F/ODk9KGwdGScVR6R5I5hgFVLHjvjmSaM077WVxlYQ5QMG0dXgUSpB9wgJvPd5VD3lHFY8AkQHfUfjHfkXFSif4/g/owGoVagYS9NPIcHjPHWCQrta/9Tta15PWJ6IGZXHt+qc3KD0hgMKohharZyj1BsuOwD/pMWAsQ7hEOg4W/o33kO8cAiV5m7nP8r9Yl5Xp/ugJPkk5/9JDcBnRr5c6R5AhiAIqZMuJzHvgwbR2nHV9hF9Ok3rT26Gs4lQdqeqs1wgS8Wl9DyD+g+srlvUGH0M9Zctw6c9pfJ/BbW0ecxf7eetYzigJW3j8zzIz2oAT9EPuwSxX0nRTb+bhB2/1eLBQdhK+CwpPwTREUutkkfgYlokl58/wRylNEsIjtT+S5bBKieu33vL9kE4/Yd4vhSOUi2SedvIDn4fy+OfbQDv1YGX3e8NYzvp7NMXKwfcOqyYb3Zu5s1dt4YtZCdkVMFPMcdWepJSk2JHTWdSubHJsW4rjYh0kvjTHmgn/71Ifbaw6lP54Na37VM9vs9vALy83cNxjC7wYM/OO1TVRCx6R1WzRp6fLXJlA8nxZPqwnAKdHvv6obYw/QaXHRGSR/FecoddEB+y0W0VWQgv7HD7dI/uaxgAeaEOW7DbbtWdpkddVKznRa2o83qQrl6p2xEX4kEVlBiXQf9QeiAeSjpyDjDBqKungQ69R7V3T39Aqb/2vn3Co/9iBgALrV3CWn0Fn8NzqUrv76fbTLrwwW41bqB47j7yWrrIuixd9A7fChAhnPBkO1pSRov7fvwnwEfgvv5pT/1rGsBTmwXMXpxwJImUPm8hCUUSBSunTcBtB8PT1u4ixqe03dDAqch5qLLcNGXKyVm9ETg6+Xy+0CP7Wgbg+QA3NGxnkd41pR3noh7UHAx2WCntp05T0/+8X+/VtdrxH8nJ3KXe+6FETt8G8H8sD3TGrVl2RodGUxyk7D3MV0HNmg+S5DS49CV4zOinr08jenbZv+hT+sIGAJzEh0VdS6b9nAzpVcPZtEn5BG52icF6OaksgnKi++Tnyx7/FzeA56lY53When3ZNWv+s3+Y3uuE9ylO77P/ZxRQyfeiWK5vA/hfeAIyQro07twdSODoLW69eJ8DWCMV+r25/3e76V/82fwRBqDRweo4spzOjC85cNCbiLn62pbbh3i8ZANf/8n8IQbgVqDy/ZzeBTl3R++c4GP9n9HPHq/l/3/CQ/mTDOA0g00FffZysW/PP/sV/sy/Np7g+f36cw3g+/VtAN+vbwP4fn0bwLcBfD+CbwP4fn0bwPfr2wC+X98G8P36NoDv17cBfL++DeD79ce8/kOAAQBBMEbk+VbyYgAAAABJRU5ErkJggg==;" vertex="1" parent="7">
                    <mxGeometry x="295" y="80" width="152" height="152" as="geometry"/>
                </mxCell>
            </root>
        </mxGraphModel>
    </diagram>
</mxfile>